SplineFontDB: 3.0
FontName: Maritime_Tropical_Neue
FullName: Maritime Tropical Neue
FamilyName: Maritime Tropical Neue
Weight: Medium
Copyright: 
UComments: "2012-6-14: Created." 
Version: 001.000
ItalicAngle: 0
UnderlinePosition: -205
UnderlineWidth: 102
Ascent: 1500
Descent: 548
LayerCount: 2
Layer: 0 0 "Back"  1
Layer: 1 0 "Fore"  0
XUID: [1021 548 483398849 16748575]
FSType: 0
OS2Version: 0
OS2_WeightWidthSlopeOnly: 0
OS2_UseTypoMetrics: 1
CreationTime: 1339705680
ModificationTime: 1363125285
PfmFamily: 65
TTFWeight: 500
TTFWidth: 5
LineGap: 184
VLineGap: 0
OS2TypoAscent: 0
OS2TypoAOffset: 1
OS2TypoDescent: 0
OS2TypoDOffset: 1
OS2TypoLinegap: 184
OS2WinAscent: 0
OS2WinAOffset: 1
OS2WinDescent: 0
OS2WinDOffset: 1
HheadAscent: 0
HheadAOffset: 1
HheadDescent: 0
HheadDOffset: 1
OS2Vendor: 'PfEd'
Lookup: 4 0 1 "'liga' Standard Ligatures lookup 0"  {"'liga' Standard Ligatures lookup 0-1"  } ['liga' ('DFLT' <'dflt' > 'grek' <'dflt' > 'latn' <'dflt' > ) ]
Lookup: 258 0 0 "'kern' Horizontal Kerning lookup 2"  {"'kern' Horizontal Kerning lookup 2-1" [600,50,2] } ['kern' ('DFLT' <'dflt' > 'grek' <'dflt' > 'latn' <'dflt' > ) ]
MarkAttachClasses: 1
DEI: 91125
LangName: 1033 
Encoding: UnicodeBmp
UnicodeInterp: none
NameList: Adobe Glyph List
DisplaySize: -96
AntiAlias: 1
FitToEm: 1
WinInfo: 8683 19 9
BeginPrivate: 0
EndPrivate
Grid
-2048 -870 m 0
 4096 -870 l 0
  Named: "g" 
-2048 864.843 m 0
 4096 864.843 l 0
-2048 732.843 m 0
 4096 732.843 l 0
-2048 595.229 m 0
 4096 595.229 l 0
-2048 481.229 m 0
 4096 481.229 l 0
-2048 1440 m 0
 4096 1440 l 0
-2036.7 972 m 0
 4107.3 972 l 0
EndSplineSet
TeXData: 1 0 0 359936 179968 119978 479846 -1048576 119978 783286 444596 497025 792723 393216 433062 380633 303038 157286 324010 404750 52429 2506097 1059062 262144
BeginChars: 65539 461

StartChar: b
Encoding: 98 98 0
Width: 1060
VWidth: 0
Flags: MW
VStem: 110 130<0 1440>
LayerCount: 2
Fore
SplineSet
240.077 162 m 1
 321.077 114 674.953 19.3514 826 196 c 0
 944 334 912 684 778 792 c 0
 652.755 892.944 501.578 871.46 366 738 c 0
 238 612 238 282 240.077 162 c 1
104.377 1400.98 m 0
 102.085 1479 223.498 1461.02 225.377 1394.98 c 0
 233 1127 235 1017 240.377 776 c 17
 358 956 625.597 1063.44 838 912 c 0
 1054 758 1084 324 926 118 c 0
 726.783 -141.739 314 -8 234.077 39 c 1
 236 -42 110 -38 111.078 30 c 0
 118.815 518.003 121 835 104.377 1400.98 c 0
EndSplineSet
EndChar

StartChar: c
Encoding: 99 99 1
Width: 875
VWidth: 0
Flags: W
LayerCount: 2
Fore
SplineSet
700.333 825 m 0
 655.333 852 520.333 882 418.333 851 c 0
 217.181 789.865 88.333 522 181.333 324 c 0
 267.528 140.487 475.333 54 769.333 155 c 0
 854.498 184.257 886.292 70.292 799.333 39 c 0
 535.333 -56 184.333 -36 60.4229 281.621 c 0
 -37.9863 533.876 68.8486 879.83 378.423 970.621 c 0
 526.333 1014 728.98 966.711 775.333 933 c 0
 841.333 885 775.443 779.934 700.333 825 c 0
EndSplineSet
EndChar

StartChar: d
Encoding: 100 100 2
Width: 977
VWidth: 0
Flags: W
VStem: 738.4 136<75.4526 1421.63>
LayerCount: 2
Fore
SplineSet
738.4 1378 m 0
 735.523 1506.04 882.466 1455.83 874.4 1374 c 0
 860.4 1232 872 210 882 66 c 0
 889.504 -42.0361 738.087 -74.8447 742 68 c 0
 746 214 742.4 1200 738.4 1378 c 0
707.333 825 m 0
 662.333 852 573.502 871.539 470 846 c 0
 239 789 95.1074 544.683 161.91 336.379 c 0
 239 96 512 18 779 198 c 0
 853.667 248.338 866.854 155.862 794 99 c 0
 548 -93 149 -57 41 294 c 0
 -38.6299 552.797 116 891 430.09 965.621 c 0
 580.056 1001.25 735.98 966.711 782.333 933 c 0
 848.333 885 782.443 779.934 707.333 825 c 0
EndSplineSet
EndChar

StartChar: e
Encoding: 101 101 3
Width: 947
VWidth: 0
Flags: W
HStem: 0 122<393 669> 484.229 120<10.8401 494.735> 864.843 107.157<424 664>
LayerCount: 2
Fore
SplineSet
377 156 m 0
 523.014 61.0273 722.09 136 820.09 224 c 0
 881.265 278.933 957.574 205.703 900.09 138 c 0
 810.09 32 541.292 -71.5938 349 22 c 0
 81.9102 152 10 548 189.09 798 c 0
 419.532 1119.68 877.339 985.534 884.09 744 c 0
 892 461 574 461 49 484.229 c 0
 -41.9941 488.255 -33.1523 612.36 65 604.229 c 0
 454 572 772 578 762.09 738 c 0
 754.171 865.856 521.015 930.704 368 812 c 0
 166.91 656 167.91 292 377 156 c 0
EndSplineSet
EndChar

StartChar: f
Encoding: 102 102 4
Width: 818
VWidth: 0
Flags: W
HStem: 477 140<9.31875 547.833> 497 122<320.033 682.446>
VStem: 169 127<620.722 1210.94> 226 127<7.05368 476.862>
LayerCount: 2
Fore
SplineSet
637 497 m 4x40
 548 496 213 481 67 477 c 4
 -75.8447 473.088 -43.0361 624.506 65 617 c 4x80
 209 607 532 611 635 619 c 4
 716.984 625.369 765.06 498.438 637 497 c 4x40
169 930 m 0x20
 159.92 1113.58 160.57 1334.6 339 1413 c 0
 537 1500 758.271 1410 879 1332 c 0
 977.271 1268.51 888.231 1159.34 813 1212 c 0
 723 1275 538.516 1352.35 423 1302 c 0
 306 1251 291.602 1050.91 296 940 c 0x20
 308.729 619 327.73 392.137 353 51 c 0
 359 -30 232 -51 226 45 c 0x10
 203.529 404.533 184.729 612 169 930 c 0x20
EndSplineSet
EndChar

StartChar: g
Encoding: 103 103 5
Width: 900
VWidth: 0
Flags: W
LayerCount: 2
Fore
SplineSet
647.9 800 m 0
 647.138 809.911 648.261 818.688 650.822 826.297 c 1
 628.972 842.843 543 868 453 856 c 0
 249.026 828.804 51.1006 540 184.001 254 c 0
 255.604 99.9092 525 18 689.847 235.883 c 1
 678.744 398.312 661.794 619.371 647.9 800 c 0
698.589 105.612 m 1
 483 -135 126 0 51 246 c 0
 -54.585 592.317 136 901 412 967 c 0
 620.059 1016.75 763.9 936 801.9 842 c 0
 813.8 812.562 793.304 781.843 765.68 770.518 c 1
 826.146 220.935 831.128 -156.353 795.9 -470 c 0
 733.9 -1022 148.258 -927.615 23.5 -662 c 0
 -7.5 -596 73.9941 -554.557 107.9 -606 c 0
 223.9 -782 555.9 -856 653.9 -564 c 0
 706.876 -406.152 712.089 -170.961 698.589 105.612 c 1
EndSplineSet
EndChar

StartChar: h
Encoding: 104 104 6
Width: 1024
VWidth: 0
Flags: W
VStem: 99.9551 124.592<763.888 1424.64> 113.982 127.543<-11.8623 572.444> 802.863 126.603<20.4965 502.932>
LayerCount: 2
Fore
SplineSet
802.863 42.6094 m 0xa0
 816.559 415.265 805.503 595.175 775.061 716.051 c 0
 731 891 506.927 897.29 376.021 740.88 c 0
 235.207 572.629 245.204 319.321 241.525 130.096 c 0
 240.573 81.2305 257.751 2.75879 202.136 -12.2832 c 0
 134.702 -30.5205 114.19 29.2539 113.982 83.8564 c 0x60
 112.024 597.072 107.19 820.016 99.9551 1402.09 c 0
 98.9844 1480.14 217.906 1466.02 217.089 1399.96 c 0
 213.822 1136.15 222 1012 224.547 763.888 c 17
 350 951 553.217 1038 745.014 958.992 c 0
 963.103 869.148 936.505 449.081 929.466 56.6348 c 0
 927.853 -33.3506 799.775 -41.3584 802.863 42.6094 c 0xa0
EndSplineSet
EndChar

StartChar: i
Encoding: 105 105 7
Width: 412
VWidth: 0
Flags: MW
VStem: 150 130<0 972>
LayerCount: 2
Fore
SplineSet
120.269 1353.39 m 24
 124.299 1406.03 209.673 1437.46 247.211 1400.36 c 24
 291.808 1356.27 293.751 1261.79 234.936 1240.03 c 24
 175.957 1218.21 115.468 1290.69 120.269 1353.39 c 24
140.171 927.739 m 0
 134.317 1055.67 282.389 1008.89 276.227 926.902 c 0
 265.532 784.615 278.831 218.77 292.176 75.041 c 0
 302.188 -32.792 151.575 -69.1113 152.167 73.7852 c 0
 152.771 219.839 148.308 749.88 140.171 927.739 c 0
EndSplineSet
EndChar

StartChar: a
Encoding: 97 97 8
Width: 905
VWidth: 0
Flags: W
VStem: 709.322 119.846<286.619 483.386 595.013 838.333> 719.458 135.71<3.70734 103.717>
LayerCount: 2
Fore
SplineSet
819.168 -9 m 0x40
 751.326 -17.2734 728.66 41.7373 719.458 103.717 c 1x40
 452.604 -84.9277 56.5898 -35.0771 28.7676 198 c 0
 0 439 218 551.229 412 595.229 c 0
 511.91 617.889 666 610 707.868 595.013 c 1
 708.309 615.212 708.749 713.836 709.168 735 c 0
 713.168 937 403.168 917 183.168 709 c 0
 119.322 648.638 55.168 757 131.168 825 c 0
 297.574 973.891 571.168 1035 731.168 955 c 0
 808.331 916.418 833.451 822.912 829.168 741 c 0x80
 813.168 435 815.396 363.485 855.168 101 c 0
 865.169 35 864.116 -3.51855 819.168 -9 c 0x40
704.64 469.237 m 1
 670 490 564 505.229 472.168 490.229 c 0
 343.99 469.291 114 385 153.168 220 c 0
 191.557 58.2832 535.232 91.4453 709.322 240.818 c 1x80
 703.536 356.073 703.168 366.589 704.64 469.237 c 1
EndSplineSet
EndChar

StartChar: j
Encoding: 106 106 9
Width: 545
VWidth: 0
Flags: W
VStem: 254.9 132.1<480.334 967.598>
LayerCount: 2
Fore
SplineSet
202.166 1353.39 m 24
 206.196 1406.03 291.57 1437.46 329.108 1400.36 c 24
 373.705 1356.27 375.648 1261.79 316.833 1240.03 c 24
 257.854 1218.21 197.365 1290.69 202.166 1353.39 c 24
254.9 936 m 0
 244.711 1021.09 379.855 1002.88 387 939 c 0
 448.466 389.417 461.355 -175.764 419.9 -470 c 0
 341 -1030 -235.242 -928.615 -360 -663 c 0
 -391 -597 -335.906 -553.557 -302 -605 c 0
 -186 -781 170.297 -853.379 260.9 -559 c 0
 344 -289 321 384 254.9 936 c 0
EndSplineSet
EndChar

StartChar: k
Encoding: 107 107 10
Width: 935
VWidth: 0
Flags: W
HStem: 871 114<647.994 795.108>
VStem: 98.5537 127<907.397 1415.5> 127.554 133.599<23.4931 352.485>
LayerCount: 2
Fore
SplineSet
98.5537 1365 m 0xc0
 88.4082 1492.66 221.008 1457.09 225.554 1375 c 0xc0
 232.717 1245.63 237.928 952.34 240.78 732.392 c 1
 381.688 867.301 599 951 716.554 985 c 0
 804.344 1010.39 876.148 898.485 776.554 871 c 0
 599 822 424.554 733 290.554 579 c 0
 282.835 570.13 278.009 554.77 284.554 545 c 0
 422.554 339 700.554 85 906.554 149 c 0
 989.695 174.83 963.554 -66 754.554 12 c 0
 571.811 80.2002 420.142 136.765 254.283 372.553 c 1
 254.372 204.804 264.735 152.884 261.153 71.9043 c 0
 256.367 -36.2861 120.663 -66.7324 127.554 76 c 0xa0
 148.554 511 122.554 1063 98.5537 1365 c 0xc0
EndSplineSet
EndChar

StartChar: l
Encoding: 108 108 11
Width: 406
VWidth: 0
Flags: MW
VStem: 135 130<0 1440>
LayerCount: 2
Fore
SplineSet
120.139 1384.2 m 0
 114.847 1512.16 262.711 1464.74 256.189 1382.77 c 0
 244.871 1240.53 272.919 218.879 285.634 75.0938 c 0
 295.174 -32.7822 144.403 -68.4414 145.621 74.4521 c 0
 146.866 220.501 127.496 1206.31 120.139 1384.2 c 0
EndSplineSet
EndChar

StartChar: m
Encoding: 109 109 12
Width: 1720
VWidth: 0
Flags: W
VStem: 108.163 132.8<753.785 937.228> 121.093 129.001<-9.95657 591.927> 814.163 154<26.6479 548.213> 1491.29 128<19.6786 516.091>
LayerCount: 2
Fore
SplineSet
814.163 54 m 0xb0
 814.163 426.907 819.163 554 782.094 710 c 0
 734.939 908.435 494.567 905.696 367.963 745.785 c 0
 228 569 260.023 319 250.094 130 c 0
 247.528 81.1924 259.104 2.19629 203.022 -11 c 0
 135.023 -27 119.497 33.4199 121.093 88 c 0x70
 136.093 601 118.293 637.785 108.163 924.785 c 0
 105.41 1002.79 224.457 988.513 231.163 922.785 c 0
 236.163 873.785 239.092 809.555 240.963 753.785 c 1
 334 951 565.014 1039.31 754.094 954 c 0
 826.282 921.431 871.762 856 900.327 768.589 c 1
 1028.57 942.932 1242.58 1037.2 1424.29 955.215 c 0
 1639.29 858.215 1624 414 1619.29 61.2148 c 0
 1618.09 -28.7765 1488.44 -32.7607 1491.29 51.2148 c 0
 1504 426 1498.29 555.215 1452.29 711.215 c 0
 1394.61 906.848 1174.16 899 1038.16 747 c 0
 989.047 692.104 958.376 625.962 938.928 555.16 c 1
 951.181 411.193 968.163 237.965 968.163 70 c 0
 968.163 -22 814.163 -36 814.163 54 c 0xb0
EndSplineSet
EndChar

StartChar: n
Encoding: 110 110 13
Width: 1030
VWidth: 0
Flags: W
VStem: 112.866 127.681<-8.73322 541.091 739.888 963.758> 806.863 129.603<16.4965 501.213>
LayerCount: 2
Fore
SplineSet
806.863 38.6094 m 0
 820.559 411.265 808.503 595.175 778.061 716.051 c 0
 734 891 513.927 897.29 383.021 740.88 c 0
 242.207 572.629 252.204 311.321 248.525 122.096 c 0
 247.573 73.2305 253.926 9.39258 199 -8 c 0
 139 -27 120.979 21.2539 120.982 75.8564 c 0
 121 328 121 726 112.866 946.131 c 0
 109.984 1024.13 240.12 1010.06 239 944 c 0
 238 885 240 819 240.547 739.888 c 17
 352 960 560.217 1038 752.014 958.992 c 0
 970.103 869.148 943.505 445.081 936.466 52.6348 c 0
 934.853 -37.3506 803.775 -45.3584 806.863 38.6094 c 0
EndSplineSet
EndChar

StartChar: o
Encoding: 111 111 14
Width: 1012
VWidth: 0
Flags: W
HStem: -18 123.011<360.353 689.194>
LayerCount: 2
Fore
SplineSet
466.595 988 m 0
 492.787 990.381 513.725 981.899 528.141 968.562 c 1
 771.381 944.559 940.711 799.614 976.595 592 c 0
 1032.59 268 864.595 -8 554.595 -18 c 0
 282.391 -26.7812 48.5947 148 26.5947 450 c 0
 5.04004 745.891 204.62 964.184 466.595 988 c 0
429.21 856.184 m 0
 261.553 804.767 152.854 654.835 154.595 474 c 0
 156.595 266 336.982 97.6406 546.895 105.011 c 0
 744.729 111.957 894.636 302.974 866.895 499.011 c 0
 836.895 711.011 734.895 849.011 432.595 856 c 0
 431.437 856.026 430.309 856.089 429.21 856.184 c 0
EndSplineSet
EndChar

StartChar: p
Encoding: 112 112 15
Width: 1063
VWidth: 0
Flags: W
VStem: 107.059 140<-836.681 -317.08>
LayerCount: 2
Fore
SplineSet
94.459 930 m 0
 91.582 1058.03 238.525 1007.82 230.459 926 c 0
 216.459 784 237.059 -637 247.059 -781 c 0
 254.562 -889.036 103.146 -921.845 107.059 -779 c 0
 111.059 -633 98.459 752 94.459 930 c 0
336 14 m 0
 224.911 33.9801 117 105 70 150 c 0
 -0.535156 217.534 41.5781 295.193 90 258 c 0
 159 205 256.889 145.818 354 128 c 0
 572 88 744.253 100.211 841 280 c 0
 961 503 854 777 683 849 c 0
 538.22 909.96 374.54 868.917 227.795 834.05 c 0
 155.771 816.937 137.211 949.032 219.198 968.741 c 0
 378.478 1007.03 565.178 1013.19 677.614 981 c 0
 992 891 1087 555 989.5 286.372 c 0
 878.672 -18.9755 614 -36 336 14 c 0
EndSplineSet
EndChar

StartChar: q
Encoding: 113 113 17
Width: 981
VWidth: 0
Flags: W
LayerCount: 2
Fore
SplineSet
887 880 m 0
 872 222 893 -459 932 -717 c 1
 1016 -648 1133 -598 1235 -570 c 0
 1286.25 -555.93 1303.82 -603.535 1267 -618 c 0
 1155 -662 1006 -798 921 -875 c 0
 876.206 -915.578 811.094 -873.55 802 -783 c 0
 755 -315 754 315 771 913 c 0
 773.163 989.074 889.439 986.972 887 880 c 0
785 754 m 0
 706.141 829.354 647.1 879.931 524 867 c 0
 286 842 46 491 170 237 c 0
 258.946 54.8047 588.313 30.1074 792.4 331.379 c 0
 834.4 393.379 919.286 294.624 880.49 244 c 0
 552.49 -184 84.0898 -10.3789 28.0898 239.621 c 0
 -43.0303 557.119 142 893 466.09 977.621 c 0
 636.8 1022.19 813 928 851 834 c 0
 866.159 796.501 830 711 785 754 c 0
EndSplineSet
EndChar

StartChar: r
Encoding: 114 114 18
Width: 800
VWidth: 0
Flags: W
HStem: 863 123.787<500.959 790.997>
VStem: 112.485 134.515<-0.337273 559.12>
LayerCount: 2
Fore
SplineSet
763 863 m 0
 642 869 442.755 854.445 331.116 658.853 c 0
 230.585 482.723 244.742 326.247 247 137 c 0
 247.582 88.1289 263.975 13.7119 208.858 -3.06836 c 0
 142.03 -23.4131 113.988 38.0859 112.485 92.668 c 0
 104.277 390.759 109 575 70.582 912.384 c 0
 61.751 989.939 173.16 1015.48 190.3 936.205 c 0
 201.867 882.696 216 764 220.974 678.308 c 1
 322.762 933.391 530.394 982.164 737.774 986.787 c 0
 843.843 989.15 859.1 858.234 763 863 c 0
EndSplineSet
EndChar

StartChar: s
Encoding: 115 115 19
Width: 830
VWidth: 0
Flags: W
HStem: 834 128<215.729 712.563>
LayerCount: 2
Fore
SplineSet
656.782 834 m 0
 486.541 906.961 176.706 835.803 173.782 751 c 0
 169.782 635 712 562 783 381 c 0
 865.646 170.312 750 7 537 -11 c 0
 337.71 -27.8418 167 34 81 160 c 0
 3.65421 273.321 107.301 340.427 179 238 c 0
 235 158 367 105 499 113 c 0
 602.222 119.256 733 184 662 320 c 0
 581.99 473.259 100 509 32.7822 708 c 0
 16.0655 757.49 30.5137 838.917 142.782 904 c 0
 280.782 984 544.528 1006.88 684.782 962 c 0
 784.782 930 740.782 798 656.782 834 c 0
EndSplineSet
EndChar

StartChar: t
Encoding: 116 116 20
Width: 865
VWidth: 0
Flags: W
HStem: 822 140<15.3188 344.354> 860 122<493.24 847.446>
VStem: 344.91 136.051<979.551 1404.26> 370.393 140.012<17.7803 534.241>
LayerCount: 2
Fore
SplineSet
802 860 m 0x40
 713 859 219 826 73 822 c 0
 -69.8447 818.088 -37.0361 969.505 71 962 c 0x80
 215 952 697 974 800 982 c 0
 881.984 988.368 930.06 861.438 802 860 c 0x40
344.91 1361.2 m 0x20
 339.618 1489.16 487.482 1441.74 480.961 1359.77 c 0x20
 469.643 1217.53 497.69 220.879 510.405 77.0938 c 0
 519.945 -30.7822 369.175 -66.4414 370.393 76.4521 c 0x10
 371.638 222.501 352.268 1183.31 344.91 1361.2 c 0x20
EndSplineSet
EndChar

StartChar: u
Encoding: 117 117 21
Width: 1024
VWidth: 0
Flags: W
VStem: 90 136<441.594 963.142> 114 124<188.791 750.479> 785 132<505.226 971.077>
LayerCount: 2
Fore
SplineSet
90 917 m 0xa0
 82 1045 231 1001 226 919 c 0xa0
 222 848 228 505 238 348 c 0
 249 169 328 105 448 121 c 0
 678 151 783 496 785 923 c 0
 786 1051 922 1006 917 924 c 0
 909 782 931 226 947 83 c 0
 959 -25 813 -64 811 79 c 0
 810 142 809 235 805 383 c 1
 704 72 589 4 438 -9 c 0
 187 -31 127 130 114 293 c 0x60
 101.815 445.779 96 822 90 917 c 0xa0
EndSplineSet
EndChar

StartChar: v
Encoding: 118 118 22
Width: 870
VWidth: 0
Flags: W
LayerCount: 2
Fore
SplineSet
-4.75781 906 m 0
 -37.1562 987.132 84.9404 1039.89 117.243 954 c 0
 247 609 346 454 481.243 180 c 1
 607 487 651 642 755.243 951 c 0
 784.804 1038.62 900.201 975.015 880.243 917 c 0
 765 582 706 391 559.243 39 c 0
 523.765 -46.0957 436.243 -31 404.243 35 c 0
 240.579 372.56 139 546 -4.75781 906 c 0
EndSplineSet
EndChar

StartChar: w
Encoding: 119 119 23
Width: 1324
VWidth: 0
Flags: W
VStem: -12 121<774.129 968.389>
LayerCount: 2
Fore
SplineSet
-12 901 m 0
 -33 990 82 1039 109 937 c 0
 191 628 208 484 349 172 c 9
 432 425 465 676 561 820 c 0
 600 878 713 865 735 799 c 0
 801 598 854 353 947 188 c 1
 1094 647 1089 864.843 1242 990 c 4
 1315.68 1050.27 1360.49 971.99 1308 900 c 4
 1203 756 1184 533 1046 56 c 0
 1021 -31 908 -40 867 35 c 0
 780 191 726 428 636 679 c 17
 543 532 505 227 448 44 c 0
 420 -44 288 -42 247 56 c 0
 160 263 69 556 -12 901 c 0
EndSplineSet
EndChar

StartChar: x
Encoding: 120 120 24
Width: 830
VWidth: 0
Flags: W
LayerCount: 2
Fore
SplineSet
35 891 m 0
 -37 997 113 1034 151 961 c 0
 216 834 695 226 781 110 c 0
 846 23 736 -86 662 36 c 0
 586 161 135 744 35 891 c 0
664 955 m 0
 723 1069 827 954 781 886 c 0
 701 768 268 179 178 38 c 0
 120 -53 -27 -9 56 107 c 0
 149 237 582 797 664 955 c 0
EndSplineSet
EndChar

StartChar: y
Encoding: 121 121 25
Width: 867
VWidth: 0
Flags: W
LayerCount: 2
Fore
SplineSet
705.232 908.864 m 0
 714.926 1036.57 857.321 972.786 842 892 c 0
 809 718 650 -351 617 -495 c 0
 592.809 -600.562 443.813 -609.207 481.973 -471.497 c 0
 527 -309 689 695 705.232 908.864 c 0
538 0 m 1
 468 92 104.149 661.345 -20 861 c 0
 -82.8037 962 39.9189 1035.14 98 939 c 0
 215.196 745 617.59 110.304 618.804 108 c 0
 649.733 49.2852 583.29 -42.793 538 0 c 1
EndSplineSet
EndChar

StartChar: z
Encoding: 122 122 26
Width: 899
VWidth: 0
Flags: MW
HStem: 0 120<360.779 851.207> 850 120<61.365 283.887 567.506 695.556>
LayerCount: 2
Fore
SplineSet
96.5557 841 m 0
 2.88867 833.106 6.48633 958.497 76.5557 961 c 0
 356.556 971 443.556 982 727.556 972 c 0
 847.631 967.771 885.663 858.077 822 801 c 0
 648 645 330 267 218.556 112 c 1
 490.556 132 542.556 135 816.556 120 c 0
 893.758 115.773 886.525 -3.65039 814.556 0 c 0
 538.556 14 492.556 16 182.556 0 c 0
 86.6836 -4.94824 36.7631 76.1322 78 129 c 0
 195 279 522 705 695.556 849 c 1
 439.556 859 452.556 871 96.5557 841 c 0
EndSplineSet
EndChar

StartChar: A
Encoding: 65 65 27
Width: 1103
VWidth: 0
Flags: W
HStem: 483 112.229<541.89 1002.15>
LayerCount: 2
Fore
SplineSet
994 483 m 4
 789 493 470.146 494 256.146 466 c 4
 114.455 447.461 145.926 601.916 254.146 606 c 4
 466.146 614 838.146 607.229 1002.15 595.229 c 4
 1084.16 589.229 1122 477 994 483 c 4
989.485 21 m 0
 927.427 199.019 630.146 1083 575.488 1262.58 c 1
 479.146 1002 200.146 207 117.389 29 c 0
 78.7031 -54.208 -38.4385 -0.119141 -3.6123 80 c 0
 101.146 321 395.146 1109 478.488 1395.58 c 0
 498.971 1466.01 640.747 1479.51 668.488 1391.58 c 0
 784.146 1025 1030.15 315 1111.49 63 c 0
 1130.33 4.61523 1019.93 -66.3223 989.485 21 c 0
EndSplineSet
EndChar

StartChar: B
Encoding: 66 66 28
Width: 1104
VWidth: 0
Flags: W
HStem: 727 144<229 491.37>
VStem: 100 129<13.3174 92 206.735 727 871 1333.98>
LayerCount: 2
Fore
SplineSet
121 1432 m 1
 137 1446 159 1447 180 1440 c 1
 504 1477 756 1409 816 1204 c 0
 865 1036 759 836 493 819 c 1
 747 819 912 764 1032 552 c 0
 1139 362 1054 106 876 36 c 0
 656 -50 429 -14 241 92 c 1
 241 83 242 75 242 69 c 0
 250 -39 98 -72 102 71 c 0
 106 209 104 1082 100 1331 c 1
 65 1350 68 1417 121 1432 c 1
234 1331 m 1
 231 1269 229 1026 229 871 c 1
 452 860 723 950 696 1158 c 0
 679 1286 486 1357 234 1331 c 1
229 727 m 1
 230 492 234 383 238 224 c 1
 449 96 633 80 803 140 c 0
 904 176 1006 346 910 508 c 0
 774 737 472 726 229 727 c 1
EndSplineSet
EndChar

StartChar: C
Encoding: 67 67 29
Width: 1202
VWidth: 0
Flags: W
LayerCount: 2
Fore
SplineSet
885 1299 m 0
 815 1347 716 1349 600 1318 c 0
 220 1218 71 674 215 382 c 0
 389 29 813 66 1111 257 c 0
 1174 297 1228 198 1177 159 c 0
 805 -125 239 -60 83 348 c 0
 -33 652 43 1272 539 1426 c 0
 698 1475 880 1461 951 1408 c 0
 1033 1346 958 1249 885 1299 c 0
EndSplineSet
EndChar

StartChar: D
Encoding: 68 68 30
Width: 1260
VWidth: 0
Flags: W
HStem: 88 98<35.903 104.003>
VStem: 112 140<19.581 535.387>
LayerCount: 2
Fore
SplineSet
184 1345 m 0
 138 1342 121 1458 166 1461 c 0
 559 1486 839 1409 1079 1113 c 0
 1274 873 1280 453 1067 213 c 0
 828 -56 432 -36 59 88 c 0
 -10 111 26 206 89 186 c 0
 408 85 797 63 982 304 c 0
 1156 530 1130 867 971 1062 c 0
 765 1315 491 1362 184 1345 c 0
87 1388 m 0
 82 1516 230 1469 223 1387 c 0
 212 1245 239 223 252 79 c 0
 262 -29 111 -65 112 78 c 0
 113 224 94 1210 87 1388 c 0
EndSplineSet
EndChar

StartChar: E
Encoding: 69 69 31
Width: 1180
VWidth: 0
Flags: W
HStem: 0 119<248 354.531 829.668 1098.3> 730 123<233.376 718.996> 1332 111<222 1109.52>
VStem: 90 143<906.863 1323>
LayerCount: 2
Fore
SplineSet
90 1382 m 0
 85 1472 160 1474 200 1439 c 1
 582 1437 753 1426 1110 1443 c 0
 1152 1445 1160 1336 1089 1332 c 0
 782.004 1314.7 550 1319 222 1323 c 1
 225 1266 227 985 233 846 c 1
 241 851 251 854 263 853 c 0
 575 839 699 845 1009 869 c 0
 1099 876 1073 750 999 746 c 0
 685 729 577 734 261 730 c 0
 248 730 238 734 230 741 c 1
 233 455 245 234 248 119 c 5
 533 109 810 108 1095 130 c 0
 1185 137 1159 16 1085 12 c 0
 779 -5 505 3 199 0 c 1
 159 -14 111 11 113 92 c 0
 117 238 103 1142 90 1382 c 0
EndSplineSet
EndChar

StartChar: F
Encoding: 70 70 32
Width: 1160
VWidth: 0
Flags: W
HStem: 734 123<242 405.856 702.909 926.496> 1328 116<229 1178.85>
VStem: 95 146<909.809 1328> 131 131<24.9488 540.34>
LayerCount: 2
Fore
SplineSet
95 1387 m 0xe0
 93 1477 165 1479 205 1444 c 1
 590 1442 823 1430 1180 1447 c 0
 1222 1449 1226 1341 1156 1336 c 0
 849.298 1314.09 562 1324 229 1328 c 1
 228 1248 235 1014 241 857 c 1xe0
 242 857 243 857 244 857 c 0
 556 843 604 840 914 864 c 0
 1004 871 975 745 901 741 c 0
 588 724 555 738 242 734 c 1
 255 408 256 165 262 84 c 0
 270 -24 127 -57 131 86 c 0xd0
 135 232 99 1209 95 1387 c 0xe0
EndSplineSet
EndChar

StartChar: G
Encoding: 71 71 33
Width: 1440
VWidth: 0
Flags: W
HStem: 735.649 125.351<815.622 1202.01>
VStem: 1241 112<-8.13222 343.544>
LayerCount: 2
Fore
SplineSet
1058 1259 m 0
 976 1287 876.865 1350.67 654 1294 c 0
 127 1160 64.2539 616.17 235 362 c 0
 454 36 1199 -64 1202.01 735.649 c 1
 1109.77 736.96 1001 738 845 720 c 0
 765.478 710.824 740.943 830.438 827 840 c 0
 989 858 1207 860 1282.1 861 c 0
 1357.1 861.999 1355.94 785.568 1351.1 735 c 0
 1329 504 1327 280 1353 28 c 0
 1359.17 -31.7578 1250.51 -48.5557 1241 18 c 0
 1227 116 1223 243 1224.02 348.505 c 1
 979 -216 289.776 -6.03027 121 301 c 0
 -67 643 -13 1218 614 1411 c 0
 818.46 1473.94 1086 1436 1124 1342 c 0
 1139.16 1304.5 1096.28 1245.93 1058 1259 c 0
EndSplineSet
EndChar

StartChar: H
Encoding: 72 72 34
Width: 1333
VWidth: 0
Flags: W
HStem: 723 140<167.319 687.55> 757 122<687.55 1190.44>
VStem: 90.1387 136.049<930.122 1427.26> 115.621 140.013<15.7803 531.806> 1077.5 136.05<920.031 1417.17> 1102.99 140.01<5.6865 521.713>
LayerCount: 2
Fore
SplineSet
1145 757 m 0x40
 1056 756 371 727 225 723 c 0
 82.1553 719.088 114.964 870.505 223 863 c 0x80
 367 853 1040 871 1143 879 c 0
 1224.98 885.368 1273.06 758.438 1145 757 c 0x40
1077.5 1374.11 m 0x08
 1072.21 1502.07 1220.08 1454.65 1213.55 1372.68 c 0x08
 1202.24 1230.44 1230.29 208.785 1243 65 c 0
 1252.54 -42.876 1101.77 -78.5352 1102.99 64.3574 c 0x04
 1104.23 210.407 1084.86 1196.22 1077.5 1374.11 c 0x08
90.1387 1384.2 m 0x20
 84.8467 1512.16 232.711 1464.74 226.188 1382.77 c 0x20
 214.871 1240.53 242.919 218.879 255.634 75.0938 c 0
 265.174 -32.7822 114.402 -68.4414 115.621 74.4521 c 0x10
 116.866 220.501 97.4961 1206.31 90.1387 1384.2 c 0x20
EndSplineSet
EndChar

StartChar: I
Encoding: 73 73 35
Width: 406
VWidth: 0
Flags: W
VStem: 120.139 136.049<930.122 1427.26> 145.621 140.013<15.7803 531.806>
LayerCount: 2
Fore
SplineSet
120.139 1384.2 m 4x80
 114.847 1512.16 262.711 1464.74 256.188 1382.77 c 4x80
 244.871 1240.53 272.919 218.879 285.634 75.0938 c 0
 295.174 -32.7822 144.402 -68.4414 145.621 74.4521 c 0x40
 146.866 220.501 127.496 1206.31 120.139 1384.2 c 4x80
EndSplineSet
EndChar

StartChar: J
Encoding: 74 74 36
Width: 1072
VWidth: 0
Flags: W
HStem: -291 119<-0.907978 476.581> 1315 118<-11.7706 848.751>
LayerCount: 2
Fore
SplineSet
0 1433 m 0
 361 1440 552 1428 889.946 1440 c 0
 954.047 1442.28 971.92 1397.58 974.95 1338 c 0
 1001.95 807 1106.95 375 875.946 21 c 0
 682.77 -275.037 412.19 -334.911 38.9463 -291 c 0
 -63.0537 -279 -54.0537 -160 20.9463 -172 c 0
 317.482 -219.446 551.427 -177.48 743.946 53 c 0
 956.95 308 905.946 657 845.946 1320 c 1
 538 1314 326 1303 22 1315 c 0
 -61.9883 1318.32 -69.5713 1431.65 0 1433 c 0
EndSplineSet
EndChar

StartChar: K
Encoding: 75 75 37
Width: 1075
VWidth: 0
Flags: W
VStem: 95 143<995.654 1428.49> 118 124<9.62898 518.309>
LayerCount: 2
Fore
SplineSet
95 1364 m 0x80
 85 1492 217 1456 222 1374 c 0
 229 1245 235 1202 238 982 c 1x80
 427 1116 670 1296 871 1439 c 0
 946 1492 1008 1366 922 1309 c 0
 652 1130 422 983 288 829 c 0
 280 820 275 805 282 795 c 0
 420 589 778 134 1012 125 c 0
 1099 122 1116 -79 907 -1 c 0
 721 68 408 386 242 622 c 1
 242 454 252 139 248 58 c 0
 243 -50 111 -81 118 62 c 0x40
 139 497 119 1062 95 1364 c 0x80
EndSplineSet
EndChar

StartChar: L
Encoding: 76 76 38
Width: 1020
VWidth: 0
Flags: W
HStem: -12 132<241.82 706.34> 32 122<629.339 1020.23>
VStem: 112 126<115.589 1435.78>
LayerCount: 2
Fore
SplineSet
100 1395 m 0xa0
 99 1523 244 1473 236 1391 c 0
 225 1277 240 186 238 120 c 1xa0
 436 93 802 106 979 154 c 0
 1076 180 1071 52 991 32 c 0x60
 784 -19 433 -12 271 -12 c 0
 162 -12 109 4 112 121 c 0
 116 267 101 1211 100 1395 c 0xa0
EndSplineSet
EndChar

StartChar: M
Encoding: 77 77 39
Width: 1575
VWidth: 0
Flags: W
VStem: 100.142 144<893.893 1240> 115.402 135<4.96124 486.173> 1324.14 120<962.781 1226> 1352.4 123<5.97537 483.166>
LayerCount: 2
Fore
SplineSet
320.142 1393 m 0x80
 461.142 1027 593 745 748.74 625 c 0
 781.011 600.134 805.095 591.231 835.74 613 c 0
 992 724 1151.14 1108 1271.14 1396 c 0
 1305.1 1477.49 1443.25 1468.79 1444.14 1410 c 0xa0
 1453.14 815 1453.88 605.607 1475.4 46 c 0
 1478.4 -32 1355.4 -31 1352.4 32 c 0x10
 1332.51 449.774 1327.14 808 1324.14 1226 c 1
 1210.14 995 1046 604 908 505 c 0
 842.91 458.305 776.679 449.817 709 501 c 0
 549 622 376.142 902 244.142 1240 c 9xa0
 247 768 265.142 429 250.402 31 c 0
 248.432 -22.2236 114.434 -41.0703 115.402 16 c 0x40
 124.142 531 125.881 818 100.142 1367 c 0
 93.9873 1498.26 290.991 1468.67 320.142 1393 c 0x80
EndSplineSet
EndChar

StartChar: N
Encoding: 78 78 40
Width: 1293
VWidth: 0
Flags: W
VStem: 100.109 135<929.583 1283.82> 128.909 135<-12.7829 468.245> 1060.11 124<971.146 1455.75>
LayerCount: 2
Fore
SplineSet
1157.11 44.8242 m 0xa0
 1123.96 -28.1045 1033.74 -48.8066 953.109 20.8242 c 0
 755.109 191.824 515 791 235.109 1283.82 c 25
 246 789 244 510 263.909 15 c 0
 266.045 -38.1006 129.4 -57.0771 128.909 0 c 0x60
 124 570 130.109 858.824 100.109 1398.82 c 0
 97.8594 1439.33 130.637 1477.53 165.109 1479.82 c 0
 195.109 1481.82 200.109 1473.82 208.109 1467.82 c 1
 244.109 1472.82 278 1461 298.109 1427.82 c 24
 604 931 910.71 144.334 1034.11 125.824 c 0
 1094.11 116.824 1064.11 629.648 1060.11 1412.82 c 0
 1059.66 1501.11 1184.11 1501.65 1184.11 1412.82 c 0
 1184.12 676.812 1217.11 176.824 1157.11 44.8242 c 0xa0
EndSplineSet
EndChar

StartChar: O
Encoding: 79 79 41
Width: 1314
VWidth: 0
Flags: W
LayerCount: 2
Fore
SplineSet
577.356 1455.05 m 0
 602.66 1462.23 624.874 1454.24 640.688 1442.6 c 1
 990.667 1468.23 1239.45 1188.28 1273.38 800.816 c 0
 1325.38 206.97 1007.5 17 702.508 -10.3008 c 0
 431.246 -34.582 121.497 148.087 48.1514 559.473 c 0
 -3.9209 851.541 84.084 1315.15 577.356 1455.05 c 0
569.424 1318.33 m 4
 153.134 1188.26 140.963 778.688 163.416 599.243 c 0
 202.528 286.655 457.58 84.1318 690.12 110.233 c 0
 937.638 138.016 1187.27 270.314 1148.13 764.785 c 0
 1119.23 1129.84 923.861 1361.13 595.252 1330.29 c 4
 594.098 1330.18 570.479 1318.66 569.424 1318.33 c 4
EndSplineSet
EndChar

StartChar: P
Encoding: 80 80 42
Width: 1050
VWidth: 0
Flags: W
VStem: 95.4541 140<22.3188 675.925>
LayerCount: 2
Fore
SplineSet
87.4004 1385 m 0
 84.5234 1513.03 231.466 1462.82 223.4 1381 c 0
 209.4 1239 225.454 222 235.454 78 c 0
 242.957 -30.0361 91.541 -62.8447 95.4541 80 c 0
 99.4541 226 91.4004 1207 87.4004 1385 c 0
313.941 496 m 0
 201.941 510 115.941 546 55.9414 586 c 0
 -25.3105 640.168 23.9414 726 75.9414 694 c 0
 156.312 644.54 253.997 618.244 331.941 610 c 0
 539.941 588 749.915 604.75 841.941 787 c 0
 950 1001 846.941 1232 675.941 1304 c 0
 531.161 1364.96 367.481 1323.92 220.736 1289.05 c 0
 148.712 1271.94 130.152 1404.03 212.139 1423.74 c 0
 371.419 1462.03 558.119 1468.19 670.555 1436 c 0
 984.941 1346 1071 1029 982.441 782.372 c 0
 872.662 476.646 595.139 460.851 313.941 496 c 0
EndSplineSet
EndChar

StartChar: Q
Encoding: 81 81 43
Width: 1352
VWidth: 0
Flags: W
LayerCount: 2
Fore
SplineSet
587.859 1455.05 m 0
 613.163 1462.23 635.377 1454.24 651.191 1442.6 c 1
 1001.17 1468.23 1249.95 1188.28 1283.88 800.816 c 0
 1335.88 206.97 1019.96 30.2158 713.011 -14.3008 c 0
 443.484 -53.3896 132 148.087 58.6543 559.473 c 0
 6.58203 851.541 94.5869 1315.15 587.859 1455.05 c 0
579.927 1321.33 m 0
 163.637 1191.26 148.466 778.688 170.919 599.243 c 0
 210.031 286.655 468.083 77.1318 700.623 103.233 c 0
 948.141 131.016 1200.78 270.314 1161.64 764.785 c 0
 1132.74 1129.84 934.364 1364.13 605.755 1333.29 c 0
 604.601 1333.18 580.98 1321.66 579.927 1321.33 c 0
1300 -58 m 0
 1166.33 -10 944.329 156 860 258 c 0
 803.408 326.45 879.834 413.493 936 348 c 0
 1018.33 252 1240.33 72 1372 -2 c 0
 1419.59 -28.7451 1358.38 -78.9648 1300 -58 c 0
EndSplineSet
EndChar

StartChar: R
Encoding: 82 82 44
Width: 1046
VWidth: 0
Flags: W
HStem: 1294 111<49.3107 113.032>
VStem: 113.032 136.919<891.939 1296.99> 134.464 137<22.9518 539.667>
LayerCount: 2
Fore
SplineSet
244.432 1317.48 m 1xc0
 240.812 1211.78 243.207 1135.66 249.951 877.721 c 1
 504.381 854.025 754.54 836 851.004 987 c 0
 918.804 1093.13 870 1194 823.464 1234 c 0
 680.829 1356.6 436.21 1350.43 244.432 1317.48 c 1xc0
113.032 1296.99 m 1
 108.84 1296 104.65 1295 100.464 1294 c 0
 23.4492 1275.51 2.06641 1392.85 64.4639 1405 c 0
 83.2363 1408.65 102.51 1412.31 122.221 1415.87 c 1
 140.69 1447.74 179.211 1447.83 208.745 1430.09 c 1
 431.303 1462.65 773.684 1460.72 919.464 1312 c 0
 992 1238 1048.4 1102.11 980 948 c 0
 897.004 761 568 716 362 758 c 1
 572 472 754 293 1000.46 70 c 0
 1045.5 29.2441 959.796 -80.501 853.464 25 c 0
 666 211 486 382 252.064 695.654 c 1
 259.26 455.42 267.372 140.928 271.464 82 c 0
 278.968 -26.0361 130.552 -58.8447 134.464 84 c 0xa0
 138.105 216.918 119.883 1009.37 113.032 1296.99 c 1
EndSplineSet
EndChar

StartChar: S
Encoding: 83 83 45
Width: 969
VWidth: 0
Flags: W
LayerCount: 2
Fore
SplineSet
774.268 1258 m 0
 662.808 1366.62 387.268 1346 282.268 1277 c 0
 200.59 1223.33 129.268 1152 159.268 1035 c 0
 216.137 813.21 879.268 667 933.726 412 c 0
 1004.44 80.8799 707.863 -13 506.726 -13 c 0
 306.726 -13 148.508 55 58.5078 197 c 0
 -14.9404 312.885 143.694 423.541 168.508 301 c 0
 218.726 53 826.268 17 812.726 352 c 0
 803.409 582.474 138.827 695.357 42.2676 979 c 0
 -5.73242 1120 48.2676 1273 180.268 1360 c 0
 369.315 1484.6 709.008 1464.99 829.268 1380 c 0
 936.81 1304 834.81 1199 774.268 1258 c 0
EndSplineSet
EndChar

StartChar: T
Encoding: 84 84 46
Width: 1240
VWidth: 0
Flags: W
HStem: 1325.3 114<38.065 115.501 820.368 1116.6>
VStem: 538.231 140<19.6176 1312.33>
LayerCount: 2
Fore
SplineSet
48.2314 1439.3 m 0
 540.231 1421.3 732.582 1433.85 1186.23 1451.3 c 0
 1264.23 1454.3 1279.6 1348.9 1213.23 1343.3 c 0
 999.1 1325.22 839.326 1316.05 670.429 1313.25 c 1
 659.457 1087.19 668.795 211.195 678.231 75.2988 c 0
 685.735 -32.7373 534.319 -65.5459 538.231 77.2988 c 0
 542.009 215.172 540.538 1060.31 537.218 1312.33 c 1
 384.987 1312.67 240.757 1317.6 48.2314 1325.3 c 0
 -26.7686 1328.3 -44.8994 1442.71 48.2314 1439.3 c 0
EndSplineSet
EndChar

StartChar: U
Encoding: 85 85 47
Width: 1274
VWidth: 0
Flags: W
VStem: 77.7725 129<949.48 1442.13> 1043.77 135<966.725 1450.28>
LayerCount: 2
Fore
SplineSet
77.7725 1400.45 m 0
 82.3994 1491.13 210.844 1494.11 206.773 1397.45 c 0
 194.773 1112.45 100.812 124.99 643.772 118.449 c 0
 1141.77 112.449 1091.77 1001.45 1043.77 1388.45 c 0
 1030.4 1496.29 1170.68 1500.25 1178.77 1427.45 c 0
 1220.77 1049.45 1232.67 475.092 1032.77 197.449 c 0
 816.773 -102.55 453.773 -48.5498 258.772 176.449 c 0
 47.4775 420.251 62.7725 1106.45 77.7725 1400.45 c 0
EndSplineSet
EndChar

StartChar: V
Encoding: 86 86 48
Width: 1234
VWidth: 0
Flags: W
LayerCount: 2
Fore
SplineSet
-5.90527 1361.12 m 0
 -33.8096 1443.91 89.0938 1497.12 115.095 1409.12 c 0
 217.412 1062.82 488.438 461 644.438 153 c 1
 763.853 504.229 997.942 1079.33 1131.09 1416.12 c 0
 1165.09 1502.12 1263.2 1431.35 1241.09 1374.12 c 0
 1105.09 1022.12 873.853 435 731.438 42 c 0
 700.026 -44.6807 589.438 -28 557.438 38 c 0
 393.773 375.56 114.094 1005.12 -5.90527 1361.12 c 0
EndSplineSet
EndChar

StartChar: W
Encoding: 87 87 49
Width: 1810
VWidth: 0
Flags: W
LayerCount: 2
Fore
SplineSet
-3.4209 1366 m 0
 -37.6279 1450.59 70.5889 1498.36 113.579 1402 c 0
 287.579 1012 421.983 544.8 509.579 144 c 9
 652 467 779.579 828 875.579 972 c 0
 914.138 1029.84 1020.05 1012.44 1052.58 951 c 0
 1160.58 747 1301.58 417 1361.58 165 c 1
 1508.58 624 1654.58 1215 1717.58 1413 c 0
 1746.53 1503.99 1839.42 1403.48 1817.58 1317 c 0
 1742.58 1020 1601.57 522 1463.58 45 c 0
 1438.35 -42.1836 1271.18 -57.1533 1256.58 27 c 0
 1205.58 321 1115 525 962.579 834 c 1
 869.579 687 686.579 237 629.579 54 c 0
 602.056 -34.3613 414.756 -39.0488 395.579 66 c 0
 328.983 430.8 161.579 958 -3.4209 1366 c 0
EndSplineSet
EndChar

StartChar: X
Encoding: 88 88 50
Width: 1051
VWidth: 0
Flags: W
LayerCount: 2
Fore
SplineSet
44.0625 1342.82 m 0
 -27.5947 1448.97 123.157 1486.2 160.622 1413 c 0
 225.634 1285.98 920.332 226.37 1006.61 110.648 c 0
 1071.34 23.8271 961.717 -85.6504 887.765 36.624 c 0
 812.181 161.6 143.68 1195.25 44.0625 1342.82 c 0
871.84 1405.1 m 0
 937.878 1514.83 1035.2 1393.83 984.622 1329 c 0
 896.855 1216.5 235.522 166.11 166.967 39.083 c 0
 115.533 -56.2207 -29.96 -2.97168 49.7354 115.64 c 0
 131.19 236.87 780.033 1252.56 871.84 1405.1 c 0
EndSplineSet
EndChar

StartChar: Y
Encoding: 89 89 51
Width: 1063
VWidth: 0
Flags: W
LayerCount: 2
Fore
SplineSet
508.42 16 m 0
 448.42 -96 320.528 13.7109 375.006 75.293 c 0
 447.333 157.055 540.42 372 574.901 444.277 c 1
 447.955 695 135.955 1171 5.95508 1326 c 0
 -47.2246 1389.41 44.3193 1511.56 107.955 1419 c 0
 239.955 1227 491.955 843 637.201 591.302 c 1
 769.571 908.214 911.277 1284.67 922.42 1380 c 0
 934.992 1487.56 1109.97 1459.1 1066.42 1323 c 0
 1024.67 1192.53 856.438 786.834 710.771 455.912 c 1
 711.989 453.608 713.206 451.304 714.42 449 c 0
 745.349 390.285 701.66 343.493 660.326 341.793 c 1
 612.42 240 553.834 100.773 508.42 16 c 0
EndSplineSet
EndChar

StartChar: Z
Encoding: 90 90 52
Width: 1147
VWidth: 0
Flags: W
HStem: -1 112<177.557 449.317 948.207 1102.21> 1305 120<55.9901 315.279 735.838 951.556>
LayerCount: 2
Fore
SplineSet
96.5557 1305 m 4
 2.88867 1297.11 6.48633 1422.5 76.5557 1425 c 4
 356.557 1435 706.557 1444 990.556 1434 c 4
 1110.64 1429.77 1113.94 1307.38 1056.56 1244 c 4
 811.176 973 406.176 464 177.557 111 c 1
 449.557 131 793.557 135 1067.56 120 c 0
 1144.76 115.773 1137.53 -3.65039 1065.56 0 c 0
 789.557 14 444.557 15 134.557 -1 c 0
 38.6836 -5.94824 14.502 92.4707 50.5557 149 c 0
 287.176 520 688.176 1017 951.556 1311 c 5
 695.557 1321 452.557 1335 96.5557 1305 c 4
EndSplineSet
EndChar

StartChar: zero
Encoding: 48 48 53
Width: 1285
VWidth: 0
Flags: W
HStem: 1322 114.6<451.483 861.157>
LayerCount: 2
Fore
SplineSet
483.928 1322 m 0
 421.621 1312.68 410.427 1425.93 480.615 1436.6 c 0
 980.615 1512.6 1233.93 1224 1257.93 770 c 0
 1289.4 174.713 995.428 17 690.436 -10.3008 c 0
 419.174 -34.582 109.424 148.087 36.0791 559.473 c 0
 -15.9932 851.541 117.859 1231.72 387.859 1393.72 c 0
 482.394 1450.44 531.115 1356.38 438.928 1286 c 0
 198.859 1102.72 129.891 778.688 152.344 599.243 c 0
 191.455 286.655 445.507 88.1318 678.047 114.233 c 0
 925.565 142.016 1175.2 270.314 1136.06 764.785 c 0
 1107.16 1129.84 942.615 1390.6 483.928 1322 c 0
EndSplineSet
EndChar

StartChar: one
Encoding: 49 49 54
Width: 406
VWidth: 0
Flags: W
VStem: 120.139 136.05<912.309 1418.26> 145.621 140.013<15.7803 537.658>
LayerCount: 2
Fore
SplineSet
120.139 1375.2 m 0x80
 114.847 1503.16 262.711 1455.74 256.189 1373.77 c 0x80
 244.871 1231.53 272.919 218.879 285.634 75.0938 c 0
 295.174 -32.7822 144.403 -68.4414 145.621 74.4521 c 0x40
 146.866 220.501 127.496 1197.31 120.139 1375.2 c 0x80
EndSplineSet
EndChar

StartChar: two
Encoding: 50 50 55
Width: 1011
VWidth: 0
Flags: MW
HStem: 0 130 6 115<248.55 277.626 864.954 968.48>
LayerCount: 2
Fore
SplineSet
718.55 952 m 0
 782.986 1104 775.986 1282 637.986 1321 c 0
 476.938 1366.51 269.986 1344 110.986 1212 c 0
 46.3125 1158.31 -27.5898 1259.94 44.9863 1320 c 0
 218.986 1464 452.986 1464 647.986 1437 c 0
 879.126 1405 942.264 1177.12 833.986 909 c 0
 770.986 753 449.986 382 248.55 121 c 1
 400.986 139 746.986 144 930.55 132 c 0
 1020.41 126.126 1014.13 -2.12988 934.55 6 c 0
 728.986 27 424.986 15 178.55 0 c 0
 74.7422 -6.31836 62.3613 99.6865 98.9863 144 c 0
 368.423 470 659.451 812.593 718.55 952 c 0
EndSplineSet
EndChar

StartChar: three
Encoding: 51 51 56
Width: 1023
VWidth: 0
Flags: W
HStem: 25.1523 134.848<45.2439 328.878>
LayerCount: 2
Fore
SplineSet
919.027 1020 m 0
 892.322 930.047 845.027 850 714.027 805 c 1
 789.027 778 925.027 680 975.027 536 c 0
 1033.77 366.832 983.027 164 799.027 62 c 0
 648.758 -21.3018 291.027 -25.6953 69.0273 25.1523 c 0
 -6.8916 42.541 23.3828 185.139 99.0273 160 c 0
 252.027 109.152 554.848 82.376 705.027 154 c 0
 835.027 216 911.948 331.313 859.027 500 c 0
 795.027 704 559.027 743 366.027 729.843 c 0
 266.863 723.083 278.6 868.851 363.027 865.843 c 0
 527.027 860 735.689 859.094 794.027 1042 c 0
 821.728 1128.85 791.027 1222 715.027 1278 c 0
 580.73 1376.96 320.027 1347 152.027 1243 c 0
 80.5576 1198.76 6.14062 1304.42 88.0273 1351 c 0
 306.027 1475 592.683 1467.89 742.027 1402 c 0
 912.027 1327 957.027 1148 919.027 1020 c 0
EndSplineSet
EndChar

StartChar: four
Encoding: 52 52 57
Width: 1016
VWidth: 0
Flags: W
VStem: 764.505 132.05<909.942 1412.17> 789.987 136.013<20.6865 529.942>
LayerCount: 2
Fore
SplineSet
196 1402 m 0x00
 229.385 1482.68 337.884 1435.8 315 1376 c 0
 240 1180 161.663 1025.74 141 764 c 0
 132 650 204.621 624.577 307 612.229 c 0
 483 591 603 615.229 771 629 c 0
 849.74 635.454 865.157 501.408 780 495 c 0
 597 481.229 520 481.228 285 481.229 c 0
 114 481.229 6 576 16 746 c 0
 33.1475 1037.51 124 1228 196 1402 c 0x00
764.505 1369.11 m 0x80
 759.213 1497.07 903.077 1449.65 896.555 1367.68 c 0x80
 885.237 1225.44 913.285 223.785 926 80 c 0
 935.54 -27.876 788.769 -63.5352 789.987 79.3584 c 0x40
 791.232 225.407 771.862 1191.22 764.505 1369.11 c 0x80
EndSplineSet
EndChar

StartChar: five
Encoding: 53 53 58
Width: 1089
VWidth: 0
Flags: MW
HStem: 0 131<137.085 617.693> 1312 115<564.055 1015.45>
VStem: 40 130<982.98 1312>
LayerCount: 2
Fore
SplineSet
1016.86 1314 m 4
 672.856 1326 465.856 1330 170.856 1312 c 5
 168.578 1205.66 159.856 1084 151.449 978 c 5
 494.856 1005 759.121 936.963 926.856 750 c 4
 1134.86 518.157 1022.86 234 896.856 129 c 4
 697.8 -36.8809 407.856 -43 152.856 20 c 4
 91.626 35.1279 104.856 175 194.856 151 c 4
 409.479 93.7676 655.856 87 811.856 225 c 4
 923.655 323.899 971.856 539.157 811.856 687 c 4
 657.148 829.953 425.856 897 121.449 846 c 4
 71.6172 837.651 19.6143 882.245 25.4492 933 c 4
 40.8564 1067 50.8564 1170 44.8564 1327 c 4
 43.0596 1374.03 66.9414 1422.28 113.856 1426 c 4
 416.856 1450 710.856 1442 1015.45 1427 c 4
 1084.62 1423.59 1076.82 1311.91 1016.86 1314 c 4
EndSplineSet
EndChar

StartChar: six
Encoding: 54 54 59
Width: 1118
VWidth: 0
Flags: W
VStem: 25.9697 119<664 992.109>
LayerCount: 2
Fore
SplineSet
173.97 517 m 1
 153.014 383 248.19 138.465 456.97 123 c 0
 699.97 105 899.947 243.479 953.014 470 c 0
 1020.01 756 812 904.843 593 868.843 c 0
 385.825 834.786 241 707 173.97 517 c 1
371 1370 m 0
 242.069 1171.65 146 982 144.97 664 c 1
 205 791 347 957.843 599 984.843 c 0
 959.452 1023.46 1146.13 755.389 1080.01 462 c 0
 1016.01 178 779.932 -48.1416 441.014 4 c 0
 90.0137 58 15.2236 375.97 25.9697 727 c 0
 34.9697 1021 161.044 1289 272.044 1436 c 0
 311.733 1488.56 410 1430 371 1370 c 0
EndSplineSet
EndChar

StartChar: seven
Encoding: 55 55 60
Width: 1047
VWidth: 0
Flags: W
HStem: 1332 111<-10.854 896>
VStem: 342 138.801<-2.11728 171.107>
LayerCount: 2
Fore
SplineSet
24 1443 m 0
 411 1422 583.37 1430.94 933.001 1443 c 0
 1020 1446 1050.98 1371.49 1026 1320 c 0
 783 818.998 615.753 583.382 480.801 21.0879 c 0
 462.8 -53.9121 321.348 -28.9102 342 46.1865 c 0
 474 526.188 608 770.998 896 1335 c 1
 662 1320 372 1314 18 1332 c 0
 -45.2031 1335.21 -39.1924 1446.43 24 1443 c 0
EndSplineSet
EndChar

StartChar: eight
Encoding: 56 56 61
Width: 1055
VWidth: 0
Flags: W
LayerCount: 2
Fore
SplineSet
498.649 870.843 m 0
 628.219 850.959 768.179 922.762 788.649 1049 c 0
 800.649 1123 778.649 1219 653.649 1286 c 0
 584.619 1323 644.107 1419.57 719.649 1388 c 0
 853.649 1332 950.676 1155.41 916.649 1018 c 0
 875.708 852.675 742.649 726 492.649 748.843 c 0
 242.223 771.725 57.21 925.711 87.6494 1155 c 0
 111.825 1337.1 349.649 1526 651.649 1425 c 0
 764.544 1387.24 681.36 1270.98 607.649 1308 c 0
 438.6 1392.9 231.28 1284.42 222.649 1135 c 0
 214.651 996.51 308.649 900 498.649 870.843 c 0
679.649 144 m 0
 831.034 193.847 931.649 378 883.649 534 c 0
 832.946 698.784 717.703 726.534 513.703 747.534 c 0
 413.032 757.897 426.166 882.089 531.703 876.534 c 0
 816.703 861.534 941.742 761.272 1010.65 562 c 0
 1084.65 348 937.649 90 727.649 27 c 0
 498.635 -41.7041 154.999 -42.1123 48.0723 281.621 c 0
 -28.3506 513 81.7031 807.534 428.793 864.155 c 0
 580.922 888.973 574.658 756.307 468.703 744.534 c 0
 225.703 717.534 109.649 504 168.982 324 c 0
 232.454 131.443 433.649 63 679.649 144 c 0
EndSplineSet
EndChar

StartChar: nine
Encoding: 57 57 62
Width: 1050
VWidth: 0
Flags: W
VStem: 815 140<-5.29642 511.048>
LayerCount: 2
Fore
SplineSet
790 1363 m 0
 785 1491 933 1444 926 1362 c 0
 915 1220 942 198 955 54 c 0
 965 -54 814 -89 815 54 c 0
 816 200 797 1185 790 1363 c 0
751 1294 m 0
 706 1321 571 1351 469 1320 c 0
 268 1259 87 931 180 733 c 0
 266 549 612 516 825 905 c 0
 868 984 887 860 846 777 c 0
 660 399 183 372 59 690 c 0
 -39 942 119 1349 429 1440 c 0
 577 1483 780 1436 826 1402 c 0
 892 1354 826 1249 751 1294 c 0
EndSplineSet
EndChar

StartChar: period
Encoding: 46 46 63
Width: 402
VWidth: 0
Flags: W
LayerCount: 2
Fore
SplineSet
121.04 101 m 24
 131.04 156 216.04 186 257.04 147 c 24
 300.04 106 288.04 15 231.04 -4 c 24
 175.04 -23 111.04 43 121.04 101 c 24
EndSplineSet
EndChar

StartChar: slash
Encoding: 47 47 64
Width: 646
VWidth: 0
Flags: W
LayerCount: 2
Fore
SplineSet
496.17 1425.3 m 0
 535.572 1547.16 659.707 1463.92 625.17 1389.3 c 0
 565.237 1259.81 70.9248 -104.725 33 -244 c 0
 4.54785 -348.491 -149.235 -329.665 -98.5508 -196.057 c 0
 -46.7461 -59.498 441.394 1255.89 496.17 1425.3 c 0
EndSplineSet
EndChar

StartChar: comma
Encoding: 44 44 65
Width: 275
VWidth: 0
Flags: W
VStem: 74.3994 128.601<-254.157 155.303>
LayerCount: 2
Fore
SplineSet
74.3994 106.319 m 0
 61.9766 190.243 187.977 200.243 203 130 c 0
 234.748 -18.4395 193.917 -217.773 133.656 -301.061 c 4
 78.0586 -377.903 -5.00684 -301.852 40.9727 -232.097 c 0
 115.244 -119.421 93.8018 -24.7529 74.3994 106.319 c 0
EndSplineSet
EndChar

StartChar: plus
Encoding: 43 43 66
Width: 957
VWidth: 0
Flags: W
HStem: 470.189 140<67.7516 890.151>
VStem: 423.557 135.976<134.175 947.987>
LayerCount: 2
Fore
SplineSet
423.557 177.184 m 0
 426.652 355.201 421.775 747.178 417.034 893.155 c 0
 412.396 1035.98 563.979 1003.94 557.021 895.866 c 0
 547.752 751.817 544.812 323.801 559.533 181.873 c 0
 568.016 100.08 421.329 49.1348 423.557 177.184 c 0
849.428 472.59 m 0
 671.428 476.59 271.433 474.189 125.433 470.189 c 0
 -17.4121 466.277 15.3965 617.694 123.433 610.189 c 0
 267.433 600.189 703.428 594.59 845.428 608.59 c 0
 927.262 616.657 977.463 469.713 849.428 472.59 c 0
EndSplineSet
EndChar

StartChar: hyphen
Encoding: 45 45 67
Width: 650
VWidth: 0
Flags: W
HStem: 470.189 140<57.7516 593.151>
LayerCount: 2
Fore
SplineSet
552.428 472.59 m 0
 374.428 476.59 261.433 474.189 115.433 470.189 c 0
 -27.4121 466.277 5.39648 617.694 113.433 610.189 c 0
 257.433 600.189 406.428 594.59 548.428 608.59 c 0
 630.262 616.657 680.463 469.713 552.428 472.59 c 0
EndSplineSet
EndChar

StartChar: semicolon
Encoding: 59 59 68
Width: 338
VWidth: 0
Flags: W
VStem: 105.399 128.601<-254.157 155.303>
LayerCount: 2
Fore
SplineSet
105.399 106.319 m 0
 92.9766 190.243 218.977 200.243 234 130 c 0
 265.748 -18.4395 224.917 -217.773 164.656 -301.061 c 0
 109.059 -377.903 25.9932 -301.852 71.9727 -232.097 c 0
 146.244 -119.421 124.802 -24.7529 105.399 106.319 c 0
81.04 916 m 28
 91.04 971 176.04 1001 217.04 962 c 28
 260.04 921 248.04 830 191.04 811 c 28
 135.04 792 71.04 858 81.04 916 c 28
EndSplineSet
EndChar

StartChar: colon
Encoding: 58 58 69
Width: 338
VWidth: 0
Flags: W
LayerCount: 2
Fore
SplineSet
81.04 916 m 28
 91.04 971 176.04 1001 217.04 962 c 28
 260.04 921 248.04 830 191.04 811 c 28
 135.04 792 71.04 858 81.04 916 c 28
97.0801 101 m 24
 107.08 156 192.08 186 233.08 147 c 24
 276.08 106 264.08 15 207.08 -4 c 24
 151.08 -23 87.0801 43 97.0801 101 c 24
EndSplineSet
EndChar

StartChar: backslash
Encoding: 92 92 70
Width: 703
VWidth: 0
Flags: W
LayerCount: 2
Fore
SplineSet
645 -236 m 0
 590.223 -66.5908 61.9746 1351.44 10.1699 1488 c 0
 -40.5146 1621.61 113.268 1640.43 141.72 1535.94 c 0
 179.646 1396.66 714.066 -70.5088 774 -200 c 0
 808.537 -274.622 684.401 -357.859 645 -236 c 0
EndSplineSet
EndChar

StartChar: quotesingle
Encoding: 39 39 71
Width: 227
VWidth: 0
Flags: W
VStem: 25.3926 136<1082.03 1406.93>
LayerCount: 2
Fore
SplineSet
25.3926 1392 m 0
 29.3955 1474.47 158.651 1440.63 161.393 1373 c 0
 164.393 1299 173.393 1130 198.393 1054 c 0
 225.525 971.515 117.209 929.847 87.3926 1018 c 0
 64.3926 1086 20.3926 1289 25.3926 1392 c 0
EndSplineSet
EndChar

StartChar: quotedbl
Encoding: 34 34 72
Width: 480
VWidth: 0
Flags: W
VStem: 25.3926 136<1082.03 1406.93> 287.393 136<1082.03 1406.93>
LayerCount: 2
Fore
SplineSet
287.393 1392 m 0
 291.396 1474.47 420.651 1440.63 423.393 1373 c 0
 426.393 1299 435.393 1130 460.393 1054 c 0
 487.525 971.515 379.209 929.847 349.393 1018 c 0
 326.393 1086 282.393 1289 287.393 1392 c 0
25.3926 1392 m 0
 29.3955 1474.47 158.651 1440.63 161.393 1373 c 0
 164.393 1299 173.393 1130 198.393 1054 c 0
 225.525 971.515 117.209 929.847 87.3926 1018 c 0
 64.3926 1086 20.3926 1289 25.3926 1392 c 0
EndSplineSet
EndChar

StartChar: dollar
Encoding: 36 36 73
Width: 969
VWidth: 0
Flags: W
VStem: 419 140.001<-171.681 -13 1556 1600.72>
LayerCount: 2
Fore
SplineSet
421 1560 m 0
 418.123 1688.04 565.068 1637.83 557 1556 c 0
 543 1414 549.001 28 559.001 -116 c 0
 566.505 -224.036 415.088 -256.845 419 -114 c 0
 423 32 425 1382 421 1560 c 0
774.268 1258 m 0
 662.808 1366.62 387.268 1346 282.268 1277 c 0
 200.59 1223.33 129.268 1152 159.268 1035 c 0
 216.137 813.21 879.268 667 933.726 412 c 0
 1004.44 80.8799 707.863 -13 506.726 -13 c 0
 306.726 -13 148.508 55 58.5078 197 c 0
 -14.9404 312.885 143.694 423.541 168.508 301 c 0
 218.726 53 826.268 17 812.726 352 c 0
 803.409 582.474 138.827 695.357 42.2676 979 c 0
 -5.73242 1120 48.2676 1273 180.268 1360 c 0
 369.315 1484.6 709.008 1464.99 829.268 1380 c 0
 936.81 1304 834.81 1199 774.268 1258 c 0
EndSplineSet
EndChar

StartChar: percent
Encoding: 37 37 74
Width: 1090
VWidth: 0
Flags: W
LayerCount: 2
Fore
SplineSet
756.828 349 m 0
 668.828 281 704.828 147 794.828 127 c 0
 866.438 111.087 942.33 155.27 952.83 241 c 0
 964.83 339 832.614 407.562 756.828 349 c 0
602.828 327 m 0
 638.507 502.291 906.51 529.718 1014.83 407 c 24
 1123.25 284.158 1045.67 38.7314 884.83 7.5 c 24
 721.677 -24.1797 556.828 101 602.828 327 c 0
186.828 1206.34 m 0
 98.8281 1138.34 134.828 1004.34 224.828 984.343 c 0
 296.438 968.433 372.331 1012.61 382.828 1098.34 c 0
 394.828 1196.34 262.614 1264.9 186.828 1206.34 c 0
32.8281 1184.34 m 0
 68.5068 1359.63 336.514 1387.06 444.828 1264.34 c 24
 553.252 1141.5 475.671 896.073 314.828 864.843 c 24
 151.677 833.163 -13.1719 958.343 32.8281 1184.34 c 0
865.771 1295.93 m 0
 932.93 1404.98 1033.8 1294.7 982.564 1230.39 c 0
 893.651 1118.79 276.681 153.32 206.828 27 c 0
 154.425 -67.7715 9.48242 -13.0371 90.3867 104.754 c 0
 173.079 225.145 772.408 1144.33 865.771 1295.93 c 0
EndSplineSet
EndChar

StartChar: equal
Encoding: 61 61 75
Width: 1116
VWidth: 0
Flags: W
HStem: 263 136<62.7513 1042.08> 617 136<68.7513 1048.08>
LayerCount: 2
Fore
SplineSet
1013.43 617 m 0
 835.432 621 272.433 623 126.433 619 c 0
 -16.4121 615.088 16.3965 766.505 124.433 759 c 0
 268.433 749 867.432 739 1009.43 753 c 0
 1091.27 761.066 1141.47 614.123 1013.43 617 c 0
1007.43 263 m 0
 829.432 267 266.433 269 120.433 265 c 0
 -22.4121 261.088 10.3965 412.505 118.433 405 c 0
 262.433 395 861.432 385 1003.43 399 c 0
 1085.27 407.066 1135.47 260.123 1007.43 263 c 0
EndSplineSet
EndChar

StartChar: question
Encoding: 63 63 76
Width: 900
VWidth: 0
Flags: W
HStem: 1296 123<57.0418 556.299>
LayerCount: 2
Fore
SplineSet
512.612 101 m 28
 522.612 156 607.612 186 648.612 147 c 28
 691.612 106 679.612 15 622.612 -4 c 28
 566.612 -23 502.612 43 512.612 101 c 28
349.612 378 m 0
 267.459 420.72 246.992 509.918 287.612 586 c 0
 382.472 763.673 587.557 918.858 683.177 1045 c 0
 782.907 1176.57 767.465 1262.08 631.612 1308 c 0
 489.612 1356 251.59 1324.11 109.612 1296 c 0
 8.6123 1276 -7.96094 1401.36 92.6123 1419 c 0
 303.612 1456 499.612 1448 641.612 1424 c 0
 871.693 1385.11 959.831 1196.52 777.612 972 c 0
 658.848 825.666 492.088 682.844 415.612 550 c 0
 382.418 492.34 417.612 462 463.612 430 c 0
 559.148 363.54 449.612 326 349.612 378 c 0
EndSplineSet
EndChar

StartChar: exclam
Encoding: 33 33 77
Width: 406
VWidth: 0
Flags: W
VStem: 120.139 136.05<915.546 1427.26> 136 140.013<334.328 857.24>
LayerCount: 2
Fore
SplineSet
134 102 m 24x00
 144 157 229 187 270 148 c 24
 313 107 301 16 244 -3 c 24
 188 -22 124 44 134 102 c 24x00
120.139 1384.2 m 0x80
 114.847 1512.16 262.711 1464.74 256.189 1382.77 c 0x80
 244.871 1240.53 263.298 537.427 276.013 393.642 c 0
 285.553 285.766 134.782 250.106 136 393 c 0x40
 137.245 539.049 127.496 1206.31 120.139 1384.2 c 0x80
EndSplineSet
EndChar

StartChar: parenleft
Encoding: 40 40 78
Width: 660
VWidth: 0
Flags: W
HStem: -300 109<553.648 688.605> 1394 106<526.116 637.169>
LayerCount: 2
Fore
SplineSet
615.903 1394 m 0
 357.903 1310 94.9033 1004 130.903 540 c 0
 163.296 122.495 374.903 -125 677.903 -191 c 0
 748.524 -206.383 707.354 -317.709 626.903 -300 c 0
 308.903 -230 56.9033 32 13.9033 546 c 0
 -28.3594 1051.18 279.903 1425 582.903 1500 c 0
 669.78 1521.5 670.028 1411.62 615.903 1394 c 0
EndSplineSet
EndChar

StartChar: parenright
Encoding: 41 41 79
Width: 680
VWidth: 0
Flags: W
HStem: -294 109<41.0286 161.595> 1393 108<-20.807 100.827>
LayerCount: 2
Fore
SplineSet
0.729492 1393 m 0
 -54.002 1408.64 -54.2549 1517.39 33.7295 1501 c 0
 339.729 1444 622.686 1053.49 648.729 642 c 0
 678.729 168 420.729 -224 102.729 -294 c 0
 22.2803 -311.709 -18.8896 -200.383 51.7295 -185 c 0
 354.729 -119 561.729 234 531.729 636 c 0
 504.924 995.201 273.729 1315 0.729492 1393 c 0
EndSplineSet
EndChar

StartChar: asterisk
Encoding: 42 42 80
Width: 687
VWidth: 0
Flags: W
HStem: 1228 140<62.7476 194.642 484.604 653.236>
LayerCount: 2
Fore
SplineSet
452.683 1233.64 m 1
 480.22 1197.35 507.846 1162.44 534.969 1130 c 0
 587.71 1066.91 499.927 941.605 427.162 1046.99 c 0
 396.504 1091.4 367.299 1132.54 339.006 1171.55 c 1
 312.463 1134.34 287.275 1097.45 264.304 1061.79 c 0
 219.772 992.658 74.0176 1039.16 152.969 1140 c 0
 177.562 1171.41 200.692 1201.53 222.727 1230.71 c 1
 188.592 1229.88 154.695 1228.94 120.469 1228 c 0
 -22.376 1224.09 10.3291 1373.83 118.469 1368 c 0
 143.332 1366.66 168.798 1365.49 194.642 1364.51 c 1
 180.392 1383.15 166.131 1401.74 151.778 1420.46 c 0
 64.8291 1533.86 205.29 1595.19 263.997 1504.19 c 0
 287.935 1467.08 313.413 1428.75 339.822 1390.3 c 1
 369.539 1431.83 398.321 1472.66 427.535 1514.07 c 0
 509.913 1630.83 610.278 1514.99 540.875 1431.86 c 0
 522.341 1409.66 503.501 1386.67 484.604 1363.15 c 1
 517.467 1364.25 549.582 1365.85 580.469 1368 c 0
 662.501 1373.72 712.504 1229.12 584.469 1232 c 0
 538.233 1233.04 494.562 1233.54 452.683 1233.64 c 1
EndSplineSet
Validated: 33
EndChar

StartChar: numbersign
Encoding: 35 35 81
Width: 1084
VWidth: 0
Flags: W
HStem: 444.14 125.681<-73.6812 128.851 278.333 630.2 779.111 1079.89> 900.058 128.292<-33.6813 204.477 351.583 705.757 852.519 1119.89>
LayerCount: 2
Fore
SplineSet
279 1368.5 m 0
 297.1 1495.29 433.584 1434.38 412.244 1354.97 c 0
 400.863 1312.62 378.08 1186.68 351.583 1028.35 c 1
 472.158 1027.29 606.63 1027.11 726.175 1028.07 c 1
 751.522 1184.93 771.891 1313.76 779.6 1367.76 c 0
 797.699 1494.55 934.184 1433.64 912.844 1354.23 c 0
 901.511 1312.06 878.873 1187.01 852.519 1029.63 c 1
 939.846 1031.17 1009.17 1033.56 1043.6 1036.96 c 0
 1125.43 1045.02 1175.63 898.079 1047.6 900.956 c 0
 1002.85 901.962 925.137 902.398 831.542 902.425 c 1
 814.134 795.414 796.033 680.816 779.111 571.094 c 1
 882.05 572.586 964.886 575.139 1003.6 578.956 c 0
 1085.43 587.023 1135.63 440.079 1007.6 442.956 c 0
 957.878 444.073 867.456 444.488 759.769 444.419 c 1
 731.314 256.073 709.146 99.8551 704.39 49.8975 c 0
 694.126 -57.9111 539.382 -65.5186 566.6 74.7646 c 0
 576.045 123.444 600.729 267.795 630.2 444.14 c 1
 506.45 443.711 373.466 442.837 258.659 441.772 c 1
 230.45 254.941 208.518 100.291 203.79 50.6328 c 0
 193.526 -57.1758 38.7822 -64.7832 66 75.5 c 0
 75.3655 123.766 99.7114 266.085 128.851 440.389 c 1
 64.2382 439.591 13.113 438.754 -16 437.956 c 0
 -158.845 434.044 -126.036 585.461 -18 577.956 c 0
 13.7512 575.751 74.2648 573.886 150.835 572.469 c 1
 168.597 679.603 187.124 792.324 204.477 898.81 c 1
 123.077 897.89 58.2795 896.895 24 895.956 c 0
 -118.845 892.044 -86.0361 1043.46 22 1035.96 c 0
 58.4375 1033.43 132.754 1031.34 225.748 1029.87 c 1
 251.015 1186.25 271.309 1314.62 279 1368.5 c 0
705.757 902.252 m 1
 583.373 901.909 448.977 901.092 330.438 900.058 c 1
 313.123 793.559 295.143 679.685 278.333 570.67 c 1
 395.642 569.446 529.406 569.083 651.118 569.821 c 1
 669.208 678.927 688.106 793.907 705.757 902.252 c 1
EndSplineSet
Validated: 33
EndChar

StartChar: less
Encoding: 60 60 82
Width: 918
VWidth: 0
Flags: W
LayerCount: 2
Fore
SplineSet
773.89 116.298 m 0
 583.89 179.299 287.89 308.298 103.89 402.298 c 0
 38.5713 435.667 24.3438 557.31 107.89 596.298 c 0
 332.89 701.298 541.89 789.298 785.89 880.298 c 0
 843.374 901.736 914.285 803.278 827.89 770.298 c 0
 586.89 678.298 401.89 599.298 195.89 498.298 c 1
 341.89 416.298 628.89 290.299 821.89 232.299 c 0
 909.769 205.89 856.811 88.8027 773.89 116.298 c 0
EndSplineSet
Validated: 33
EndChar

StartChar: greater
Encoding: 62 62 83
Width: 918
VWidth: 0
Flags: W
LayerCount: 2
Fore
SplineSet
144.285 104 m 0
 61.3652 76.5049 8.40625 193.592 96.2852 220.001 c 0
 289.285 278.001 576.285 404 722.285 486 c 1
 516.285 587 331.285 666 90.2852 758 c 0
 3.89062 790.98 74.8008 889.438 132.285 868 c 0
 376.285 777 585.285 689 810.285 584 c 0
 893.832 545.012 879.604 423.369 814.285 390 c 0
 630.285 296 334.285 167.001 144.285 104 c 0
EndSplineSet
Validated: 33
EndChar

StartChar: underscore
Encoding: 95 95 84
Width: 1085
VWidth: 0
Flags: W
HStem: -139.346 140<-57.6812 1129.72>
LayerCount: 2
Fore
SplineSet
1089 -136 m 0
 911 -132 146 -135.346 0 -139.346 c 0
 -142.845 -143.258 -110.036 8.15918 -2 0.654297 c 0
 142 -9.3457 943 -14 1085 0 c 0
 1166.83 8.06738 1217.04 -138.877 1089 -136 c 0
EndSplineSet
Validated: 33
EndChar

StartChar: bar
Encoding: 124 124 85
Width: 420
VWidth: 0
Flags: W
VStem: 140.074 140.001<-236.681 1535.72>
LayerCount: 2
Fore
SplineSet
142.074 1495 m 0
 139.197 1623.04 286.142 1572.83 278.074 1491 c 0
 264.074 1349 270.075 -37 280.075 -181 c 0
 287.579 -289.036 136.162 -321.845 140.074 -179 c 0
 144.074 -33 146.074 1317 142.074 1495 c 0
EndSplineSet
EndChar

StartChar: ampersand
Encoding: 38 38 86
Width: 1097
VWidth: 0
Flags: W
LayerCount: 2
Fore
SplineSet
411.369 930.551 m 1
 508.542 1003.24 593.982 1040.52 647 1126 c 0
 700.879 1212.87 616.15 1349.39 511 1347 c 0
 379 1344 253.288 1225.3 296 1124.8 c 0
 327.917 1049.7 370.724 1007.19 411.369 930.551 c 1
900.045 195.399 m 1
 949.598 131.398 1001.42 66.3105 1055.48 0 c 0
 1100.48 -55.2002 1010.48 -130.2 968.479 -78 c 0
 915.55 -12.2158 863.434 54.5273 812.741 121.404 c 1
 733.299 61.1348 650.663 17.7129 569.479 0 c 0
 283.616 -62.3701 0.479492 0 32.4795 427.2 c 0
 47.2344 624.175 178.373 751.094 320.567 861.859 c 1
 258.917 974.76 206.675 1041.61 182 1121.8 c 0
 128.87 1294.47 304 1458 550 1443 c 0
 715.589 1432.9 806.945 1255.1 755 1111 c 0
 712.838 994.03 592.063 934.931 463.582 835.704 c 1
 562.905 661.529 683.873 481.945 825.453 293.233 c 1
 865.976 333.746 906.409 378.24 947.479 424.2 c 0
 1005.76 489.419 1090.2 411.104 1043.48 352.2 c 0
 998.699 295.737 950.443 242.623 900.045 195.399 c 1
375.273 765.353 m 1
 253.889 663.892 149.757 548.917 140.479 391.2 c 0
 125.841 142.342 309.119 37.4209 566.479 115.2 c 0
 627.321 133.588 685.117 169.524 741.788 216.364 c 1
 600.703 407.952 473.718 597.432 375.273 765.353 c 1
EndSplineSet
EndChar

StartChar: asciicircum
Encoding: 94 94 87
Width: 703
VWidth: 0
Flags: W
LayerCount: 2
Fore
SplineSet
35.5039 1055 m 0
 99.5059 1162 177.506 1277 266.443 1440 c 0
 301.575 1504.39 395.909 1516.17 441.443 1436 c 0
 525.506 1288 598 1167 670.506 1046 c 0
 702.041 993.374 602.483 923.765 556.506 1004 c 0
 505.506 1093 427.506 1210 351.443 1346 c 1
 270.506 1201 207.506 1099 146.506 1007 c 0
 95.7979 930.521 -9.33984 980.029 35.5039 1055 c 0
EndSplineSet
EndChar

StartChar: at
Encoding: 64 64 88
Width: 1471
VWidth: 0
Flags: W
HStem: -249.256 118.182<500.474 728.8>
LayerCount: 2
Fore
SplineSet
1190.21 163.384 m 0
 1415.21 148 1439.21 1168.38 688.806 1098.88 c 0
 254.529 1058.66 140.206 684.884 143.206 429.884 c 0
 146.912 114.88 438.877 -131.074 672.877 -131.074 c 0
 777.778 -131.074 800.424 -245.115 672.077 -249.256 c 0
 399.873 -258.037 55.0029 -14.0635 27.2061 402.884 c 0
 2.20605 777.884 187.412 1174.41 698.206 1218.88 c 0
 1634.21 1300.38 1551.21 16 1209.21 16 c 0
 1097.05 16 1039.21 100 1010.61 223.379 c 1
 784.606 -174 332.696 0 276.696 250 c 0
 205.576 567.498 385.019 880.597 698.696 956 c 0
 906.696 1006 986.696 942 1024.7 848 c 0
 1031.15 832.044 1027.48 815.254 1018.02 801.197 c 1
 1034.48 794.723 1047.08 779.534 1048.61 754 c 0
 1068.61 420 1116.87 168.397 1190.21 163.384 c 0
937.706 770.116 m 1
 884.146 783.292 918.651 853.096 756.606 845.379 c 0
 546.606 835.379 297.633 502.834 418.606 247.379 c 0
 502.606 70 772.694 37.0381 922.517 310.758 c 0
 962.606 384 953.882 568.946 930.606 728 c 0
 928.217 744.332 931.26 758.523 937.706 770.116 c 1
EndSplineSet
Validated: 33
EndChar

StartChar: singlestorya
Encoding: 65536 -1 89
Width: 975
VWidth: 0
Flags: W
LayerCount: 2
Fore
SplineSet
770 262 m 1
 572 -168 101 -21 40.4902 253 c 0
 -29.6729 570.711 148.812 883.597 462.49 959 c 0
 670.49 1009 750.49 945 788.49 851 c 0
 794.94 835.044 791.274 818.253 781.817 804.197 c 1
 798.277 797.723 810.871 782.534 812.4 757 c 0
 832.4 423 850.4 321 972.4 141 c 0
 1004.02 94.3496 989.585 -24.0977 938.4 3 c 0
 870.4 39 830 140.621 770 262 c 1
701.5 773.116 m 1
 647.941 786.292 682.445 856.096 520.4 848.379 c 0
 310.4 838.379 61.4268 505.834 182.4 250.379 c 0
 266.4 73 536.488 40.0381 686.312 313.758 c 0
 726.4 387 717.676 571.946 694.4 731 c 0
 692.01 747.332 695.053 761.524 701.5 773.116 c 1
EndSplineSet
EndChar

StartChar: bracketleft
Encoding: 91 91 90
Width: 606
VWidth: 0
Flags: W
HStem: -325 126<186 586.637> 1496 128<179.133 567.642>
VStem: 48 138<-202.91 1496>
LayerCount: 2
Fore
SplineSet
46 1504 m 0
 45.2227 1538.59 46 1620 158 1624 c 0
 242.088 1627 476.023 1618.14 536 1616 c 0
 648 1612 613.961 1490.16 536 1495.27 c 0
 414 1503.27 179.133 1496 179.133 1496 c 1
 170 1139.27 177.192 -63.4766 186 -199 c 5
 186.435 -205.261 416 -215 556 -203 c 4
 620.54 -197.468 634.002 -330.905 554 -329 c 4
 470 -327 282 -317 140 -325 c 4
 71.8438 -328.84 48 -283 48 -199 c 4
 48 -52.9453 50 1326 46 1504 c 0
EndSplineSet
EndChar

StartChar: bracketright
Encoding: 93 93 91
Width: 606
VWidth: 0
Flags: W
HStem: -327 126<19.5668 420.204> 1495.27 120.73<38.5616 427.071>
VStem: 420.204 138<-200.91 1496>
LayerCount: 2
Fore
SplineSet
560.204 1504 m 0
 556.204 1326 558.204 -50.9453 558.204 -197 c 0
 558.204 -281 534.36 -326.84 466.204 -323 c 0
 324.204 -315 136.204 -325 52.2041 -327 c 0
 -27.7988 -328.905 -14.3359 -195.468 50.2041 -201 c 0
 190.204 -213 419.769 -203.261 420.204 -197 c 1
 429.012 -61.4766 436.204 1139.27 427.071 1496 c 1
 427.071 1496 192.204 1503.27 70.2041 1495.27 c 0
 -7.75684 1490.16 -41.7959 1612 70.2041 1616 c 0
 130.181 1618.14 364.116 1627 448.204 1624 c 0
 560.204 1620 560.981 1538.59 560.204 1504 c 0
EndSplineSet
EndChar

StartChar: grave
Encoding: 96 96 92
Width: 485
VWidth: 0
Flags: W
LayerCount: 2
Fore
SplineSet
40.1182 1386.62 m 4
 -12.7061 1436.11 84.877 1534.23 148.746 1463.55 c 4
 257.668 1343 342.668 1250 441.668 1144 c 4
 497.254 1084.48 421.076 1023.38 351.668 1090 c 4
 250.605 1187 181.667 1254 40.1182 1386.62 c 4
EndSplineSet
EndChar

StartChar: braceleft
Encoding: 123 123 93
Width: 753
VWidth: 0
Flags: W
HStem: -225 138<391.88 697.682> 606 147<53.5045 206.536> 1503 129<390.989 699.015>
LayerCount: 2
Fore
SplineSet
640.814 1503 m 0
 537.895 1522.3 421 1536 379.814 1440 c 24
 263 1165 493.814 909 289.814 678 c 1
 472.814 513 256 224 376.814 -24 c 24
 427 -126 553.124 -106.409 661.812 -87 c 0
 745.812 -72 745.814 -219 661.814 -225 c 0
 498.681 -236.652 352 -226 265.814 -87 c 24
 153 96 256.814 255 238.814 462 c 0
 231.606 544.894 198.692 615.485 89.6143 606 c 0
 20.6143 600 -4.18555 747 70.8145 753 c 0
 154.217 759.672 221 776 238.814 849 c 24
 301 1099 136 1283 259.814 1509 c 24
 340 1655 517.79 1668.37 667.814 1632 c 0
 766.814 1608 736.814 1485 640.814 1503 c 0
EndSplineSet
EndChar

StartChar: braceright
Encoding: 125 125 94
Width: 754
VWidth: 0
Flags: W
HStem: -229 138<52.1318 366.463> 596 147<548.293 701.309> 1495 129<55.7988 363.906>
LayerCount: 2
Fore
SplineSet
114 1495 m 0
 18 1477 -12 1600 87 1624 c 0
 237.023 1660.37 415 1647 495 1501 c 24
 619 1274 453 1090 516 839 c 28
 534 766 600.598 749.672 684 743 c 4
 759 737 734.199 590 665.199 596 c 4
 556.121 605.485 523.207 534.894 516 452 c 4
 498 245 603 84 489 -97 c 28
 401 -236 251.133 -240.652 88 -229 c 4
 4 -223 4 -76 88 -91 c 4
 196.689 -110.409 327 -137 378 -34 c 28
 501 213 282 503 465 668 c 5
 261 899 492 1156 375 1432 c 24
 334 1528 216.92 1514.3 114 1495 c 0
EndSplineSet
EndChar

StartChar: asciitilde
Encoding: 126 126 95
Width: 1227
VWidth: 0
Flags: W
LayerCount: 2
Fore
SplineSet
1156.04 512 m 0
 995.036 378 813.349 387.3 623.036 469 c 0
 425.036 554 262.036 568 99.0361 443 c 0
 30.1318 390.159 -11.1143 515.335 68.6357 572.654 c 0
 243.036 698 441.036 686 638.036 604 c 0
 811.597 531.757 945.036 512 1139.04 641.229 c 0
 1215.74 692.326 1225.37 569.709 1156.04 512 c 0
EndSplineSet
EndChar

StartChar: exclamdown
Encoding: 161 161 96
Width: 406
VWidth: 0
Flags: W
VStem: 137.99 136.05<128.005 639.723> 153.851 140.012<-453.213 69.6993>
LayerCount: 2
Fore
SplineSet
113.04 912 m 24x00
 123.04 967 208.04 997 249.04 958 c 24
 292.04 917 280.04 826 223.04 807 c 24
 167.04 788 103.04 854 113.04 912 c 24x00
137.99 596.658 m 0x80
 132.698 724.619 280.562 677.199 274.04 595.229 c 0x80
 262.722 452.988 281.148 -250.115 293.863 -393.9 c 0
 303.403 -501.775 152.633 -537.436 153.851 -394.541 c 0x40
 155.096 -248.492 145.347 418.77 137.99 596.658 c 0x80
EndSplineSet
EndChar

StartChar: cent
Encoding: 162 162 97
Width: 875
VWidth: 0
Flags: W
VStem: 397 136.05<1000.73 1180.06> 422.482 140.013<-231.42 -29.0901>
LayerCount: 2
Fore
SplineSet
397 1137 m 0x80
 391.708 1264.96 539.572 1217.54 533.05 1135.57 c 0x80
 521.732 993.33 549.78 -28.3213 562.495 -172.106 c 0
 572.035 -279.982 421.264 -315.642 422.482 -172.748 c 0x40
 423.727 -26.6992 404.357 959.11 397 1137 c 0x80
700.333 825 m 0
 655.333 852 520.333 882 418.333 851 c 0
 217.181 789.865 88.333 522 181.333 324 c 0
 267.528 140.487 475.333 54 769.333 155 c 0
 854.498 184.257 886.292 70.292 799.333 39 c 0
 535.333 -56 184.333 -36 60.4229 281.621 c 0
 -37.9863 533.876 68.8486 879.83 378.423 970.621 c 0
 526.333 1014 728.98 966.711 775.333 933 c 0
 841.333 885 775.443 779.934 700.333 825 c 0
EndSplineSet
EndChar

StartChar: Euro
Encoding: 8364 8364 98
Width: 1378
VWidth: 0
Flags: W
HStem: 482 136<79.7516 835.081> 836 136<62.7516 879.081>
LayerCount: 2
Fore
SplineSet
844.432 836 m 0
 666.432 840 266.433 842 120.433 838 c 0
 -22.4121 834.088 10.3965 985.505 118.433 978 c 0
 262.433 968 698.432 958 840.432 972 c 0
 922.268 980.066 972.467 833.123 844.432 836 c 0
800.432 482 m 0
 622.432 486 283.433 488 137.433 484 c 0
 -5.41211 480.088 27.3965 631.505 135.433 624 c 0
 279.433 614 654.432 604 796.432 618 c 0
 878.268 626.066 928.467 479.123 800.432 482 c 0
1041.43 1299 m 0
 971.432 1347 872.432 1349 756.432 1318 c 0
 376.433 1218 227.433 674 371.433 382 c 0
 545.432 29 969.432 66 1267.43 257 c 0
 1330.43 297 1384.43 198 1333.43 159 c 0
 961.432 -125 395.433 -60 239.433 348 c 0
 123.433 652 199.433 1272 695.432 1426 c 0
 854.432 1475 1036.43 1461 1107.43 1408 c 0
 1189.43 1346 1114.43 1249 1041.43 1299 c 0
EndSplineSet
EndChar

StartChar: yen
Encoding: 165 165 99
Width: 1160
VWidth: 0
Flags: W
HStem: 307.946 126.889<223.324 573.117 772.874 1164.67> 535.712 126.066<221.324 525.536 862.222 1163.29>
LayerCount: 2
Fore
SplineSet
570.465 16 m 0
 510.465 -96 382.574 13.7109 437.051 75.293 c 0
 480.658 124.588 531.811 222.288 573.117 307.946 c 1
 449.231 307.161 338.552 305.832 281.005 304.256 c 0
 138.16 300.344 170.969 451.761 279.005 444.256 c 0
 343.469 439.779 484.086 436.184 632.495 434.835 c 1
 634.071 438.195 635.557 441.341 636.947 444.256 c 1
 624.133 473.028 609.619 503.448 593.71 535.083 c 1
 460.801 534.32 340.029 532.928 279.005 531.256 c 0
 136.16 527.344 168.969 678.761 277.005 671.256 c 0
 325.937 667.858 418.747 664.968 525.536 663.182 c 1
 377.085 929.119 167.666 1234.89 42.4648 1374 c 0
 -12.8965 1435.51 74.9502 1555.23 144.465 1467 c 0
 287.981 1284.85 515.285 937.653 662.697 661.579 c 1
 684.553 661.43 706.469 661.331 728.232 661.286 c 1
 851.545 961.503 974.134 1291.61 984.465 1380 c 0
 997.037 1487.56 1172.02 1459.1 1128.46 1323 c 0
 1095.11 1218.77 981.031 938.872 862.222 661.778 c 1
 959.241 662.769 1042.16 665.236 1087 669.656 c 0
 1168.83 677.724 1219.04 530.779 1091 533.656 c 0
 1026.75 535.1 922.115 535.71 807.752 535.712 c 1
 796.015 508.759 784.345 482.101 772.817 455.912 c 1
 774.035 453.608 775.251 451.304 776.465 449 c 0
 779.097 444.003 781.189 439.092 782.788 434.289 c 1
 913.543 434.577 1032.02 437.039 1089 442.656 c 0
 1170.83 450.724 1221.04 303.779 1093 306.656 c 0
 1009.83 308.525 858.965 308.997 706.939 308.561 c 1
 662.295 211.334 611.106 91.8626 570.465 16 c 0
EndSplineSet
Validated: 33
EndChar

StartChar: uni00AD
Encoding: 173 173 100
Width: 650
VWidth: 0
Flags: W
HStem: 470.189 140<57.7516 593.151>
LayerCount: 2
Fore
SplineSet
552.428 472.59 m 0
 374.428 476.59 261.433 474.189 115.433 470.189 c 0
 -27.4121 466.277 5.39648 617.694 113.433 610.189 c 0
 257.433 600.189 406.428 594.59 548.428 608.59 c 0
 630.262 616.657 680.463 469.713 552.428 472.59 c 0
EndSplineSet
EndChar

StartChar: macron
Encoding: 175 175 101
Width: 695
VWidth: 0
Flags: W
HStem: 1330.2 117<59.3846 638.872>
LayerCount: 2
Fore
SplineSet
592.432 1330.2 m 0
 414.433 1334.2 266.433 1330.2 120.433 1326.2 c 0
 -22.4121 1322.29 10.3965 1454.71 118.433 1447.2 c 0
 262.433 1437.2 446.433 1433.2 588.432 1447.2 c 0
 670.268 1455.27 720.467 1327.32 592.432 1330.2 c 0
EndSplineSet
EndChar

StartChar: degree
Encoding: 176 176 102
Width: 520
VWidth: 0
Flags: W
LayerCount: 2
Fore
SplineSet
160 1397 m 0
 72.2148 1328.72 107.636 1152.77 222 1137 c 0
 338 1121 402.428 1170.99 404 1281 c 0
 406 1421 250 1467 160 1397 c 0
32.8281 1360 m 0
 68.5068 1535.29 336.514 1562.72 444.828 1440 c 24
 553.252 1317.16 475.671 1071.73 314.828 1040.5 c 24
 151.677 1008.82 -13.1719 1134 32.8281 1360 c 0
EndSplineSet
EndChar

StartChar: plusminus
Encoding: 177 177 103
Width: 957
VWidth: 0
Flags: W
HStem: 48.1895 139.999<67.7516 890.151> 470.189 140<67.7516 890.151>
VStem: 423.557 135.976<253.175 842.986>
LayerCount: 2
Fore
SplineSet
849.428 50.5898 m 0
 671.428 54.5898 271.433 52.1895 125.433 48.1895 c 0
 -17.4121 44.2773 15.3965 195.694 123.433 188.189 c 0
 267.433 178.189 703.428 172.59 845.428 186.59 c 0
 927.262 194.657 977.463 47.7129 849.428 50.5898 c 0
423.557 296.184 m 0
 426.652 474.201 421.775 642.178 417.034 788.155 c 0
 412.396 930.979 563.979 898.939 557.021 790.866 c 0
 547.752 646.817 544.812 442.801 559.533 300.873 c 0
 568.016 219.08 421.329 168.135 423.557 296.184 c 0
849.428 472.59 m 0
 671.428 476.59 271.433 474.189 125.433 470.189 c 0
 -17.4121 466.277 15.3965 617.694 123.433 610.189 c 0
 267.433 600.189 703.428 594.59 845.428 608.59 c 0
 927.262 616.657 977.463 469.713 849.428 472.59 c 0
EndSplineSet
EndChar

StartChar: guillemotleft
Encoding: 171 171 104
Width: 736
VWidth: 0
Flags: W
LayerCount: 2
Fore
SplineSet
611.433 141 m 0
 552.433 213 453.433 335 396.02 402.298 c 0
 325.537 484.915 318.466 495.326 400.02 596.298 c 0
 468.433 681 538.433 769 630.433 873 c 0
 671.082 918.951 748.832 827.504 691.433 755 c 0
 634.433 683 558.433 587 488.02 500.298 c 1
 545.433 429 629.433 323 684.433 261 c 0
 745.327 192.355 666.804 73.4287 611.433 141 c 0
295.433 141 m 0
 236.433 213 137.433 335 80.0195 402.298 c 0
 9.53711 484.915 2.46484 495.326 84.0195 596.298 c 0
 152.433 681 222.433 769 314.433 873 c 0
 355.082 918.951 432.832 827.504 375.433 755 c 0
 318.433 683 242.433 587 172.02 500.298 c 1
 229.433 429 313.433 323 368.433 261 c 0
 429.327 192.355 350.804 73.4287 295.433 141 c 0
EndSplineSet
EndChar

StartChar: guillemotright
Encoding: 187 187 105
Width: 736
VWidth: 0
Flags: W
LayerCount: 2
Fore
SplineSet
124.985 141 m 4
 69.6143 73.4287 -8.90918 192.355 51.9854 261 c 4
 106.985 323 190.985 429 248.398 500.298 c 5
 177.985 587 101.985 683 44.9854 755 c 4
 -12.4141 827.504 65.3359 918.951 105.985 873 c 4
 197.985 769 267.985 681 336.398 596.298 c 4
 417.952 495.326 410.881 484.915 340.398 402.298 c 4
 282.985 335 183.985 213 124.985 141 c 4
440.985 141 m 4
 385.614 73.4287 307.091 192.355 367.985 261 c 4
 422.985 323 506.985 429 564.398 500.298 c 5
 493.985 587 417.985 683 360.985 755 c 4
 303.586 827.504 381.336 918.951 421.985 873 c 4
 513.985 769 583.985 681 652.398 596.298 c 4
 733.953 495.326 726.881 484.915 656.398 402.298 c 4
 598.985 335 499.985 213 440.985 141 c 4
EndSplineSet
EndChar

StartChar: logicalnot
Encoding: 172 172 106
Width: 1085
VWidth: 0
Flags: W
HStem: 449.654 133.936<85.8188 926.5>
VStem: 928.5 120<75.1551 449.654>
LayerCount: 2
Fore
SplineSet
928.5 119.654 m 0
 928.5 279.854 926.5 297.654 926.5 449.654 c 1
 926.5 449.654 274.911 448.789 143.5 445.189 c 0
 0.655273 441.277 33.4639 592.694 141.5 585.189 c 0
 285.5 575.189 809.495 569.59 951.495 583.59 c 0
 981.634 586.561 1043.16 589.694 1046.5 519.654 c 0
 1048.5 477.654 1047.38 159.644 1048.5 111.654 c 0
 1050.5 25.6543 928.5 21.6543 928.5 119.654 c 0
EndSplineSet
Validated: 33
EndChar

StartChar: registered
Encoding: 174 174 107
Width: 1461
VWidth: 0
Flags: W
HStem: 0 118.182<503.297 970.444> 1365.36 103.56<512.058 951.432>
VStem: 408.711 125.522<766 1075.11> 428.408 131.825<237.391 595.154> 1310.63 125.5<467.083 997.315>
LayerCount: 2
Fore
SplineSet
708.233 1488.36 m 0xc8
 734.336 1491.59 755.363 1482.26 769.779 1468.92 c 1
 1206.63 1465.36 1445.63 1124.36 1436.13 735.53 c 0
 1421.57 139.588 1054.63 0 718.634 0 c 0
 386.634 0 48.8887 245.078 26.6338 662.358 c 0
 6.63379 1037.36 166.634 1421.36 708.233 1488.36 c 0xc8
685.434 1356.36 m 0
 222.634 1325.36 142.634 972 142.634 689.358 c 0
 142.634 374.333 418.655 114.438 719.434 118.182 c 0
 974.634 121.358 1294.37 217.607 1310.63 713.358 c 0
 1322.63 1079.36 1122.63 1361.36 712.434 1365.36 c 0
 711.274 1365.37 686.535 1356.43 685.434 1356.36 c 0
524.233 1068 m 1
 521.792 1000.59 529.685 922.503 534.233 758 c 1xe8
 662.233 742 783.835 720.61 886.233 784 c 0
 970.234 836 963.356 943.691 868.233 1014 c 0
 776.233 1082 653.588 1089.01 524.233 1068 c 1
408.711 1075.91 m 1
 405.883 1075.28 403.078 1074.54 400.233 1074 c 0
 326.233 1060 337.083 1159.3 379.17 1167.05 c 0
 391.832 1169.38 404.832 1171.71 418.128 1173.99 c 1
 430.585 1194.31 490.312 1199.31 510.233 1188 c 1
 660.349 1208.76 803.576 1206.12 955.867 1107.74 c 0
 1081.36 1026.68 1120.4 862.168 1030.73 746.134 c 0
 926.853 611.69 770.233 612 662.233 632 c 1
 803.879 490.418 812.098 436.006 1016.23 294 c 0
 1062.23 262 973.221 182.342 888.233 234 c 0
 687.18 356.208 668.233 410 547.148 596.312 c 1
 552.002 443.101 557.474 307.582 560.233 270 c 0
 565.295 201.1 425.771 189.471 428.408 280.57 c 0xd8
 430.863 365.34 413.332 892.476 408.711 1075.91 c 1
EndSplineSet
Validated: 33
EndChar

StartChar: acute
Encoding: 180 180 108
Width: 485
VWidth: 0
Flags: W
LayerCount: 2
Fore
SplineSet
445.718 1392.62 m 4
 304.169 1260 235.23 1193 134.169 1096 c 4
 64.7607 1029.38 -11.417 1090.48 44.1689 1150 c 4
 143.169 1256 228.169 1349 337.09 1469.55 c 4
 400.959 1540.23 498.542 1442.11 445.718 1392.62 c 4
EndSplineSet
EndChar

StartChar: dieresis
Encoding: 168 168 109
Width: 502
VWidth: 0
Flags: W
LayerCount: 2
Fore
SplineSet
296.8 1561.38 m 24
 302.054 1613.91 388.134 1643.35 424.8 1605.38 c 24
 468.36 1560.27 468.106 1465.77 408.8 1445.38 c 24
 349.331 1424.94 290.542 1498.81 296.8 1561.38 c 24
34.0996 1557 m 24
 39.3535 1609.53 125.434 1638.97 162.1 1601 c 24
 205.66 1555.89 205.406 1461.39 146.1 1441 c 24
 86.6309 1420.56 27.8418 1494.43 34.0996 1557 c 24
EndSplineSet
Validated: 33
EndChar

StartChar: periodcentered
Encoding: 183 183 110
Width: 299
VWidth: 0
Flags: W
LayerCount: 2
Fore
SplineSet
70.459 556.379 m 28
 75.7129 608.908 161.793 638.35 198.459 600.379 c 28
 242.02 555.269 241.766 460.769 182.459 440.38 c 28
 122.99 419.939 64.2012 493.81 70.459 556.379 c 28
EndSplineSet
Validated: 33
EndChar

StartChar: oe
Encoding: 339 339 116
Width: 1726
VWidth: 0
Flags: W
HStem: -18 123.011<360.353 689.194> 491.191 117.437<920.43 1384.22>
VStem: 1543 122<660.39 815.928>
LayerCount: 2
Fore
SplineSet
937.479 608.628 m 0
 1277.31 555.316 1548.12 606.318 1543 735 c 0
 1537.91 863 1301.92 927.704 1148.91 809 c 0
 947.82 653 948.82 289 1157.91 153 c 0
 1303.92 58.0273 1503 133 1601 221 c 0
 1662.17 275.933 1738.48 202.703 1681 135 c 0
 1591 29 1322.2 -74.5938 1129.91 19 c 0
 862.82 149 790.91 545 970 795 c 0
 1200.44 1116.68 1673.57 982.476 1665 741 c 0
 1656.6 504.398 1341.62 443.761 933.22 491.191 c 0
 899.735 495.08 907.8 613.283 937.479 608.628 c 0
466.595 988 m 0
 492.787 990.381 513.725 981.899 528.141 968.562 c 1
 771.381 944.559 940.711 799.614 976.595 592 c 0
 1032.59 268 864.595 -8 554.595 -18 c 0
 282.391 -26.7812 48.5947 148 26.5947 450 c 0
 5.04004 745.891 204.62 964.184 466.595 988 c 0
429.21 856.184 m 0
 261.553 804.767 152.854 654.835 154.595 474 c 0
 156.595 266 336.982 97.6406 546.895 105.011 c 0
 744.729 111.957 894.636 302.974 866.895 499.011 c 0
 836.895 711.011 734.895 849.011 432.595 856 c 0
 431.437 856.026 430.309 856.089 429.21 856.184 c 0
EndSplineSet
EndChar

StartChar: OE
Encoding: 338 338 120
Width: 1996
VWidth: 0
Flags: W
HStem: 0 117<520.172 1376.81> 730 123<1052.44 1538.06> 1334 109<1396.61 1936.51>
VStem: 909.06 143<906.863 1338.7> 932.06 135<74.7532 549.895>
LayerCount: 2
Fore
SplineSet
923.06 1322 m 0xe0
 838.219 1324.47 686.81 1332.8 570 1305 c 0
 111.94 1196 75.2373 702.546 216.06 409 c 0
 358.06 113 713.549 114.986 930.06 117 c 0
 1145.06 119 1535.29 104.54 1914.06 134 c 0
 2004.06 141 1978.06 16 1904.06 12 c 0
 1531.24 -8.15234 976.186 0 948.06 0 c 0
 678.06 0 280.06 -46 84.0596 375 c 0
 -53.2705 669.979 -42 1269 509 1413 c 0
 669.972 1455.07 841.617 1445.28 930.06 1440 c 0
 963.702 1437.99 1539.74 1424.46 1929.06 1443 c 0
 1971.06 1445 1965.06 1338 1908.06 1334 c 0
 1601.33 1312.47 974.341 1320.51 923.06 1322 c 0xe0
1041.06 1323 m 3
 1041.06 1265.92 1046.06 985 1052.06 846 c 1xf0
 1060.06 851 1070.06 854 1082.06 853 c 0
 1394.06 839 1518.06 845 1828.06 869 c 0
 1918.06 876 1892.06 750 1818.06 746 c 0
 1504.06 729 1396.06 734 1080.06 730 c 0
 1067.06 730 1057.06 734 1049.06 741 c 1
 1052.06 455 1062.58 229.952 1067.06 115 c 0
 1070.06 38 930.06 11 932.06 92 c 0xe8
 936.06 238 922.06 1142 909.06 1382 c 0xf0
 904.06 1472 1041.06 1389.03 1041.06 1323 c 3
EndSplineSet
Colour: ff00
EndChar

StartChar: questiondown
Encoding: 191 191 165
Width: 893
VWidth: 0
Flags: W
HStem: -471.157 124<333.078 836.508>
LayerCount: 2
Fore
SplineSet
557.222 864.843 m 24
 545.222 810.843 458.222 783.843 419.222 824.843 c 24
 378.222 867.843 394.222 958.843 452.222 974.843 c 24
 509.222 990.843 570.222 921.843 557.222 864.843 c 24
640.222 565 m 0
 691.222 497 684.222 443.843 640.222 369.843 c 0
 537.222 196.843 325.222 51.8428 224.222 -70.1572 c 0
 118.222 -197.157 130.222 -283.157 264.222 -335.157 c 0
 404.222 -389.157 643.222 -369.157 786.222 -347.157 c 0
 888.222 -332.157 898.222 -458.157 797.222 -471.157 c 0
 585.222 -498.157 389.222 -481.157 248.222 -451.157 c 0
 20.2217 -402.157 -58.7783 -209.157 133.222 6.84277 c 0
 258.222 147.843 432.222 282.843 514.222 411.843 c 0
 550.222 467.843 547.222 509 517.222 551 c 0
 449.676 645.564 572.499 655.297 640.222 565 c 0
EndSplineSet
EndChar

StartChar: multiply
Encoding: 215 215 167
Width: 831
VWidth: 0
Flags: W
LayerCount: 2
Fore
SplineSet
75.9395 718.218 m 0
 -10.998 812.25 126.864 891.658 175 825 c 0
 214.611 770.155 340.604 630 406.578 561.749 c 1
 445.604 609 581.708 760.006 637.837 822.023 c 0
 723.773 916.974 815.11 786.712 753 732.843 c 0
 699.678 686.598 538.604 516 494.948 461.107 c 1
 544.604 405 692.251 260.017 747 217 c 0
 832.156 150.092 725.116 11.3555 630 118 c 0
 586.959 166.258 457.604 309 408.16 359.405 c 1
 364.604 306 235.104 176.469 199 121 c 0
 139.923 30.2363 -7.77637 124.525 89.9951 228.74 c 0
 134.315 275.981 274.604 393 319.785 461.165 c 1
 268.604 519 132.767 656.754 75.9395 718.218 c 0
EndSplineSet
EndChar

StartChar: section
Encoding: 167 167 168
Width: 1161
VWidth: 0
Flags: W
HStem: 1478.21 128<510.666 997.214>
LayerCount: 2
Fore
SplineSet
635.598 794.817 m 1
 439.277 948.771 204.426 1125 145.5 1284.21 c 0
 127.369 1333.2 135.861 1435.23 244.5 1506.21 c 0
 469.5 1653.21 832.5 1650.21 969.5 1606.21 c 0
 1069.47 1574.11 1023.66 1438.19 941.5 1478.21 c 0
 748.5 1572.21 277.08 1452.48 286.5 1350.21 c 0
 307.5 1122.21 964.5 768.212 1040.5 560.212 c 0
 1156.7 242.189 825.638 144 624.5 144 c 0
 615.184 144 605.518 144.998 595.681 146.654 c 1
 780.25 -4.16731 981.469 -154.23 1021.5 -263.788 c 0
 1137.7 -581.811 795.638 -658.788 594.5 -658.788 c 0
 394.5 -658.788 236.282 -590.788 146.282 -448.788 c 0
 72.834 -332.903 231.469 -222.247 256.282 -344.788 c 0
 306.5 -592.788 941.735 -637.132 903.5 -325.788 c 0
 882.5 -154.788 230.5 179.212 126.5 460.212 c 0
 108.369 509.201 116.861 611.231 225.5 682.212 c 0
 339.514 756.701 495.649 785.756 635.598 794.817 c 1
423.161 296.34 m 1
 715.426 226.159 943.434 327.747 922.5 498.212 c 0
 916.205 549.471 853.211 615.376 765.275 690.109 c 1
 547.519 699.034 260.131 606.219 267.5 526.212 c 0
 273.75 458.358 336.33 379.344 423.161 296.34 c 1
EndSplineSet
Validated: 33
EndChar

StartChar: Oslash
Encoding: 216 216 170
Width: 1314
VWidth: 0
Flags: W
LayerCount: 2
Fore
SplineSet
1121 1466 m 4
 1191 1573 1265 1467 1212 1404 c 4
 1120 1295 288 106 215 -19 c 4
 160 -113 41 -61 125 55 c 4
 211 173 1024 1317 1121 1466 c 4
577.356 1455.05 m 0
 602.66 1462.23 624.874 1454.24 640.688 1442.6 c 1
 990.667 1468.23 1239.45 1188.28 1273.38 800.816 c 0
 1325.38 206.97 1007.5 17 702.508 -10.3008 c 0
 431.246 -34.582 121.497 148.087 48.1514 559.473 c 0
 -3.9209 851.541 84.084 1315.15 577.356 1455.05 c 0
569.424 1318.33 m 0
 153.134 1188.26 140.963 778.688 163.416 599.243 c 0
 202.528 286.655 457.58 84.1318 690.12 110.233 c 0
 937.638 138.016 1187.27 270.314 1148.13 764.785 c 0
 1119.23 1129.84 923.861 1361.13 595.252 1330.29 c 0
 594.098 1330.18 570.479 1318.66 569.424 1318.33 c 0
EndSplineSet
EndChar

StartChar: oslash
Encoding: 248 248 171
Width: 1012
VWidth: 0
Flags: W
HStem: -18 123.011<355.058 689.194>
LayerCount: 2
Fore
SplineSet
828 1007 m 4
 898 1114 972 1008 919 945 c 4
 827 836 288 106 215 -19 c 4
 160 -113 41 -61 125 55 c 4
 211 173 731 858 828 1007 c 4
466.595 988 m 0
 492.787 990.381 513.725 981.899 528.141 968.562 c 1
 771.381 944.559 940.711 799.614 976.595 592 c 0
 1032.59 268 864.595 -8 554.595 -18 c 0
 282.391 -26.7812 48.5947 148 26.5947 450 c 0
 5.04004 745.891 204.62 964.184 466.595 988 c 0
429.21 856.184 m 0
 261.553 804.767 152.854 654.835 154.595 474 c 0
 156.595 266 336.982 97.6406 546.895 105.011 c 0
 744.729 111.957 894.636 302.974 866.895 499.011 c 0
 836.895 711.011 734.895 849.011 432.595 856 c 0
 431.437 856.026 430.309 856.089 429.21 856.184 c 0
EndSplineSet
EndChar

StartChar: dotlessi
Encoding: 305 305 172
Width: 412
VWidth: 0
Flags: W
VStem: 140.171 136.056<451.753 971.336> 152.167 140.009<15.6691 551.262>
LayerCount: 2
Fore
SplineSet
140.171 927.739 m 0x80
 134.317 1055.67 282.389 1008.89 276.227 926.902 c 0x80
 265.532 784.615 278.831 218.77 292.176 75.041 c 0
 302.188 -32.792 151.575 -69.1113 152.167 73.7852 c 0x40
 152.771 219.839 148.308 749.88 140.171 927.739 c 0x80
EndSplineSet
EndChar

StartChar: divide
Encoding: 247 247 177
Width: 1085
VWidth: 0
Flags: W
HStem: 445.189 140<85.8188 996.219>
LayerCount: 2
Fore
SplineSet
447.5 863.654 m 28
 452.753 916.183 538.834 945.625 575.5 907.654 c 28
 619.059 862.544 618.805 768.044 559.5 747.654 c 28
 500.03 727.214 441.242 801.084 447.5 863.654 c 28
459.5 218.654 m 24
 464.753 271.183 550.834 300.625 587.5 262.654 c 24
 631.059 217.544 630.805 123.044 571.5 102.654 c 24
 512.03 82.2139 453.242 156.084 459.5 218.654 c 24
955.495 447.59 m 0
 777.495 451.59 289.5 449.189 143.5 445.189 c 0
 0.655273 441.277 33.4639 592.694 141.5 585.189 c 0
 285.5 575.189 809.495 569.59 951.495 583.59 c 0
 1033.33 591.657 1083.53 444.713 955.495 447.59 c 0
EndSplineSet
Validated: 33
EndChar

StartChar: Ccedilla
Encoding: 199 199 178
Width: 1202
VWidth: 0
Flags: W
VStem: 596.623 85.377<-114 58.0136>
LayerCount: 2
Fore
SplineSet
592 30 m 0
 592 73.1475 676.947 97.0986 679 54 c 0
 681.999 -9 680.623 -48 682 -114 c 17
 757 -96 880.623 -82 940 -171 c 0
 998.991 -259.422 945.623 -383 848.623 -428 c 24
 733.623 -481 586.623 -430 531.623 -360 c 0
 505.397 -326.621 525.209 -280.223 558.623 -306 c 0
 628.623 -360 720.623 -370 796.623 -344 c 0
 849.934 -325.762 875.213 -266.254 850.623 -226 c 0
 818.246 -173 747.623 -186 680.623 -216 c 0
 636.686 -235.673 595.119 -214.117 596.623 -166 c 0
 598.623 -102 591.999 -39 592 30 c 0
885 1299 m 0
 815 1347 716 1349 600 1318 c 0
 220 1218 71 674 215 382 c 0
 389 29 813 66 1111 257 c 0
 1174 297 1228 198 1177 159 c 0
 805 -125 239 -60 83 348 c 0
 -33 652 43 1272 539 1426 c 0
 698 1475 880 1461 951 1408 c 0
 1033 1346 958 1249 885 1299 c 0
EndSplineSet
EndChar

StartChar: cedilla
Encoding: 184 184 179
Width: 578
VWidth: 0
Flags: W
VStem: 143.534 85.377<-107 65.0136>
LayerCount: 2
Fore
SplineSet
138.911 37 m 0
 138.911 80.1475 223.858 104.099 225.911 61 c 0
 228.91 -2 227.534 -41 228.911 -107 c 17
 303.911 -89 427.534 -75 486.911 -164 c 0
 545.902 -252.422 492.534 -376 395.534 -421 c 24
 280.534 -474 133.534 -423 78.5342 -353 c 0
 52.3086 -319.621 72.1201 -273.223 105.534 -299 c 0
 175.534 -353 267.534 -363 343.534 -337 c 0
 396.845 -318.762 422.124 -259.254 397.534 -219 c 0
 365.157 -166 294.534 -179 227.534 -209 c 0
 183.597 -228.673 142.03 -207.117 143.534 -159 c 0
 145.534 -95 138.91 -32 138.911 37 c 0
EndSplineSet
EndChar

StartChar: ccedilla
Encoding: 231 231 180
Width: 875
VWidth: 0
Flags: W
VStem: 413.623 85.377<-112 60.0136>
LayerCount: 2
Fore
SplineSet
409 32 m 0
 409 75.1475 493.947 99.0986 496 56 c 0
 498.999 -7 497.623 -46 499 -112 c 17
 574 -94 697.623 -80 757 -169 c 0
 815.991 -257.422 762.623 -381 665.623 -426 c 24
 550.623 -479 403.623 -428 348.623 -358 c 0
 322.397 -324.621 342.209 -278.223 375.623 -304 c 0
 445.623 -358 537.623 -368 613.623 -342 c 0
 666.934 -323.762 692.213 -264.254 667.623 -224 c 0
 635.246 -171 564.623 -184 497.623 -214 c 0
 453.686 -233.673 412.119 -212.117 413.623 -164 c 0
 415.623 -100 408.999 -37 409 32 c 0
700.333 825 m 0
 655.333 852 520.333 882 418.333 851 c 0
 217.181 789.865 88.333 522 181.333 324 c 0
 267.528 140.487 475.333 54 769.333 155 c 0
 854.498 184.257 886.292 70.292 799.333 39 c 0
 535.333 -56 184.333 -36 60.4229 281.621 c 0
 -37.9863 533.876 68.8486 879.83 378.423 970.621 c 0
 526.333 1014 728.98 966.711 775.333 933 c 0
 841.333 885 775.443 779.934 700.333 825 c 0
EndSplineSet
EndChar

StartChar: ordfeminine
Encoding: 170 170 181
Width: 533
VWidth: 0
Flags: W
HStem: 1293.78 113.22<226.307 377.7>
VStem: 380.127 110.5<1120.22 1293.78 1407 1466.89>
LayerCount: 2
Fore
SplineSet
485.127 977 m 0
 421.127 972 395.291 994.439 390.127 1030 c 1
 266.127 937 45.376 957.622 27.127 1091 c 0
 4.67773 1255.09 164.903 1354.93 275.127 1391 c 0
 330.127 1409 364.726 1410.76 390.127 1407 c 1
 390.374 1418.59 392.335 1428.47 391.127 1434 c 0
 384.127 1466 297.22 1508.37 169.127 1394 c 0
 113.127 1344 35.127 1422 98.875 1488.19 c 0
 186.673 1579.36 345.825 1608.68 435.625 1562.78 c 0
 478.933 1540.64 493.031 1487 490.627 1440 c 0
 481.647 1264.43 482.897 1206.19 505.22 1055.59 c 0
 510.833 1017.72 510.472 978.98 485.127 977 c 0
377.7 1293.78 m 1
 370.7 1294.78 352.7 1294.78 309.7 1284.78 c 0
 238.655 1268.26 124.897 1207.69 151 1117.78 c 4
 169 1055.78 296.127 1078 380.127 1148 c 1
 376.879 1214.13 376.874 1234.89 377.7 1293.78 c 1
EndSplineSet
Validated: 33
EndChar

StartChar: ordmasculine
Encoding: 186 186 182
Width: 556
VWidth: 0
Flags: W
LayerCount: 2
Fore
SplineSet
196 1377.66 m 0
 90 1313.66 145.475 1135.13 236 1117.66 c 0
 350 1095.66 407.503 1173.93 418 1259.66 c 0
 430 1357.66 296.877 1438.57 196 1377.66 c 0
32.8281 1360 m 0
 75.7118 1533.67 374.287 1573.16 480 1431.66 c 24
 591.522 1282.39 528 1013.66 314 983.662 c 0
 132.562 958.227 -28 1113.66 32.8281 1360 c 0
EndSplineSet
Validated: 33
EndChar

StartChar: uni00B5
Encoding: 181 181 183
Width: 1024
VWidth: 0
Flags: W
VStem: 90 148<436.908 937.459> 115.482 122.735<-433.036 13.6026> 785 132<505.226 971.077>
LayerCount: 2
Fore
SplineSet
238.217 27.5489 m 1x60
 244.258 -172.111 250.887 -339.993 255.495 -392.106 c 4
 265.035 -499.982 114.264 -535.642 115.482 -392.748 c 4x60
 116.727 -246.699 97.3574 739.11 90 917 c 0
 82 1045 231 1001 226 919 c 0
 222 848 228 505 238 348 c 0xa0
 249 169 328 105 448 121 c 0
 678 151 783 496 785 923 c 0
 786 1051 922 1006 917 924 c 0
 909 782 931 226 947 83 c 0
 959 -25 813 -64 811 79 c 0
 810 142 809 235 805 383 c 1
 704 72 589 4 438 -9 c 0
 349.994 -16.7137 285.468 -1.93012 238.217 27.5489 c 1x60
EndSplineSet
EndChar

StartChar: paragraph
Encoding: 182 182 184
Width: 961
VWidth: 0
Flags: W
HStem: 551.334 127.69<272.59 556.245>
VStem: 557.119 126.002<-1.17419 551.334 693.028 1343.97> 761.178 130.652<10.7619 520.718> 786.178 120.652<824.019 1299.67>
LayerCount: 2
Fore
SplineSet
761.178 52 m 0xe0
 750.83 184.312 753.232 394.55 756.83 577.312 c 1
 732.062 572.719 707.492 568.611 683.197 565.042 c 1
 683.719 327.608 686.348 112.477 690.616 51 c 0
 698.12 -57.0361 546.703 -89.8447 550.615 53 c 0
 552.309 114.791 554.539 320.778 556.245 551.334 c 1
 273.827 532.955 52.2715 607.876 27.8301 865.312 c 0
 -4.26758 1203.4 240.83 1417.31 549.178 1456 c 0
 761.438 1482.63 898.179 1440 931.178 1283 c 0
 944.506 1219.59 930.83 1195.31 906.83 1174.31 c 1xd0
 882.83 742.312 885.83 283.312 891.83 61.3125 c 0
 895.409 -71.0967 769.959 -60.2979 761.178 52 c 0xe0
557.616 1328.04 m 0
 557.487 1333.78 557.66 1339.17 558.106 1344.21 c 1
 354.504 1315.09 109.781 1147.72 159.831 861.312 c 0
 185.699 713.285 372.672 670.078 557.119 679.024 c 1
 558.867 957.121 559.615 1239.09 557.616 1328.04 c 0
683.121 693.028 m 1
 710.944 697.865 737.737 703.717 762.836 710.37 c 1
 769.829 896.433 774.83 1084.31 786.178 1279 c 0
 786.642 1286.97 788.729 1293.91 791.191 1299.95 c 1
 769.125 1322.72 736.52 1337.67 692.403 1344.58 c 1
 693.847 1338.04 694.318 1331.16 693.616 1324.04 c 0
 686.656 1253.44 683.403 973.943 683.121 693.028 c 1
EndSplineSet
Validated: 33
EndChar

StartChar: Eth
Encoding: 208 208 185
Width: 1260
VWidth: 0
Flags: W
HStem: 88 98<35.903 104.003> 742.843 116<-51.6763 709.439>
VStem: 112 140<19.581 535.387>
LayerCount: 2
Fore
SplineSet
663 742.843 m 0
 485 746.843 152.005 740.442 6.00488 736.442 c 0
 -136.84 732.53 -104.031 863.947 4.00488 856.442 c 0
 148.005 846.442 517 844.843 659 858.843 c 0
 740.834 866.91 791.035 739.966 663 742.843 c 0
184 1345 m 0
 138 1342 121 1458 166 1461 c 0
 559 1486 839 1409 1079 1113 c 0
 1274 873 1280 453 1067 213 c 0
 828 -56 432 -36 59 88 c 0
 -10 111 26 206 89 186 c 0
 408 85 797 63 982 304 c 0
 1156 530 1130 867 971 1062 c 0
 765 1315 491 1362 184 1345 c 0
87 1388 m 0
 82 1516 230 1469 223 1387 c 0
 212 1245 239 223 252 79 c 0
 262 -29 111 -65 112 78 c 0
 113 224 94 1210 87 1388 c 0
EndSplineSet
EndChar

StartChar: AE
Encoding: 198 198 186
Width: 2030
VWidth: 0
Flags: W
HStem: 0 119<1063.71 1170.24 1645.38 1914.01> 483 112.229<511.068 980.693> 730 123<1049.09 1534.71> 1324 119<949.524 1936.35>
VStem: 905.71 143<906.863 1338.09>
LayerCount: 2
Fore
SplineSet
957.71 483 m 0
 798.71 481.229 561.856 494 347.856 466 c 0
 206.165 447.461 237.582 603.73 345.856 606 c 0
 536.71 610 842.71 604 965.86 595.229 c 0
 1047.88 589.387 1085.84 484.427 957.71 483 c 0
816.71 1402 m 0
 845.655 1446.45 883.7 1440.25 931.71 1440 c 0
 1313.71 1438 1568.71 1426 1925.71 1443 c 0
 1968.95 1445.06 1974.71 1328 1904.71 1324 c 0
 1597.73 1306.46 968.71 1312 918.71 1314 c 1
 833.627 1199.46 191.402 168.42 125.869 39.8066 c 0
 76.7031 -56.6846 -70.0078 -6.88965 6.86133 113.573 c 0
 85.4287 236.695 719.547 1252.8 816.71 1402 c 0
1037.71 1323 m 0
 1040.71 1266 1042.71 985 1048.71 846 c 1
 1056.71 851 1066.71 854 1078.71 853 c 0
 1390.71 839 1514.71 845 1824.71 869 c 0
 1914.71 876 1888.71 750 1814.71 746 c 0
 1500.71 729 1392.71 734 1076.71 730 c 0
 1063.71 730 1053.71 734 1045.71 741 c 1
 1048.71 455 1060.71 234 1063.71 119 c 1
 1348.71 109 1625.71 108 1910.71 130 c 0
 2000.71 137 1974.71 16 1900.71 12 c 0
 1594.71 -5 1320.71 3 1014.71 0 c 1
 974.71 -14 926.71 11 928.71 92 c 0
 932.71 238 918.71 1142 905.71 1382 c 0
 900.71 1472 1035.71 1386 1037.71 1323 c 0
EndSplineSet
Colour: ff00
EndChar

StartChar: Thorn
Encoding: 222 222 187
Width: 1050
VWidth: 0
Flags: W
VStem: 95.4541 140<34.4708 675.925 1344.55 1403.06>
LayerCount: 2
Fore
SplineSet
87.4004 1385 m 0
 84.5234 1513.03 231.466 1462.82 223.4 1381 c 0
 209.4 1239 225.454 222 235.454 78 c 0
 242.957 -30.0361 91.541 -62.8447 95.4541 80 c 0
 99.4541 226 91.4004 1207 87.4004 1385 c 0
313.941 290 m 4
 201.941 304 115.941 340 55.9414 380 c 4
 -25.3105 434.168 23.9414 520 75.9414 488 c 4
 156.312 438.54 253.997 412.244 331.941 404 c 4
 539.941 382 749.915 398.75 841.941 581 c 4
 950 795 846.941 1026 675.941 1098 c 4
 531.161 1158.96 367.481 1117.92 220.736 1083.05 c 4
 148.712 1065.94 130.152 1198.03 212.139 1217.74 c 4
 371.419 1256.03 558.119 1262.19 670.555 1230 c 4
 984.941 1140 1071 823 982.441 576.372 c 4
 872.662 270.646 595.139 254.851 313.941 290 c 4
EndSplineSet
EndChar

StartChar: thorn
Encoding: 254 254 188
Width: 1063
VWidth: 0
Flags: W
VStem: 107.059 140<-824.529 154.411 1339.03 1392.06>
LayerCount: 2
Fore
SplineSet
99 1374 m 0
 96.123 1502.03 243.066 1451.82 235 1370 c 0
 221 1228 237.059 -637 247.059 -781 c 0
 254.562 -889.036 103.146 -921.845 107.059 -779 c 0
 111.059 -633 103 1196 99 1374 c 0
321 0 m 0
 209 14 111 70 51 110 c 0
 -30.252 164.168 19 250 71 218 c 0
 151.372 168.54 241 126 339 114 c 0
 546.609 88.5784 744.253 100.211 841 280 c 0
 961 503 854 777 683 849 c 0
 538.22 909.96 374.54 868.917 227.795 834.05 c 0
 155.771 816.937 137.211 949.032 219.198 968.741 c 0
 378.478 1007.03 565.178 1013.19 677.614 981 c 0
 992 891 1087 555 989.5 286.372 c 0
 878.672 -18.9755 602.198 -35.1494 321 0 c 0
EndSplineSet
EndChar

StartChar: ae
Encoding: 230 230 189
Width: 1550
VWidth: 0
Flags: W
HStem: 495.063 118.251<750.244 1213.88>
VStem: 1366.68 122<665.978 820.928>
LayerCount: 2
Fore
SplineSet
763.165 613.314 m 0
 1102.06 560.517 1371.79 611.571 1366.68 740 c 0
 1361.59 868 1125.61 932.704 972.595 814 c 0
 771.505 658 772.505 294 981.595 158 c 0
 1127.61 63.0273 1326.68 138 1424.68 226 c 0
 1485.86 280.933 1562.17 207.703 1504.68 140 c 0
 1414.68 34 1145.89 -69.5938 953.595 24 c 0
 686.505 154 614.595 550 793.685 800 c 0
 1024.13 1121.68 1497.26 987.476 1488.68 746 c 0
 1480.35 511.311 1170.38 449.752 766.784 495.063 c 0
 730.138 499.178 732.843 618.039 763.165 613.314 c 0
704.685 104 m 0
 437.831 -84.6445 55.2744 -35.0771 27.4521 198 c 0
 -1.31543 439 228.685 578 418.517 605 c 0
 554.922 624.401 661.295 611.567 706.553 605.013 c 1
 706.993 625.212 706.976 680.85 707.853 702 c 0
 716.685 915 401.853 920 181.853 712 c 0
 118.007 651.638 53.8525 760 129.853 828 c 0
 296.259 976.891 542.083 1027.79 702.685 949 c 0
 808.685 897 833.876 787.803 827.853 706 c 0
 812.685 500 804.685 390 822.685 314 c 0
 838.069 249.044 784.549 160.458 704.685 104 c 0
703.324 479.237 m 1
 681.685 484 554.685 516 452.685 496 c 0
 310.181 468.058 122.685 372 151.853 220 c 0
 183.177 56.7676 582.685 66 730.685 290 c 1
 718.685 344 701.853 376.589 703.324 479.237 c 1
EndSplineSet
EndChar

StartChar: germandbls
Encoding: 223 223 190
Width: 1134
VWidth: 0
Flags: W
HStem: 722.462 153<394.168 654.365>
VStem: 80.999 140.001<27.2564 1205.66>
LayerCount: 2
Fore
SplineSet
213.574 963.98 m 0
 213.743 894.428 220.4 97 221 83 c 0
 225.634 -25.1973 77.0869 -57.8447 80.999 85 c 0
 84.7852 223.177 85.0625 840.853 86.5996 981 c 0
 90 1291 222 1396 341.6 1426 c 0
 666.91 1507.6 912.109 1350.27 930 1132 c 0
 945 949 849 849 689 824 c 1
 840 828 985 735 1062 561 c 0
 1142.99 377.995 1075 102 879 33 c 0
 688.223 -34.1611 506.192 -30.5137 348 42 c 0
 272.883 76.4326 297 201 365 169 c 0
 525.11 93.6541 690.289 99 810 147 c 0
 975.639 213.416 1007.73 398.849 930 537 c 0
 835 705.843 632 700.462 440 722.462 c 0
 319.972 736.215 339.477 870.29 437.4 875.462 c 0
 618 885 825 949 807 1114 c 0
 790.507 1265.19 619.4 1351 405 1306 c 0
 304.479 1284.9 213 1201 213.574 963.98 c 0
EndSplineSet
EndChar

StartChar: eth
Encoding: 240 240 191
Width: 1028
VWidth: 0
Flags: W
LayerCount: 2
Fore
SplineSet
887 1347.8 m 0
 755 1226 637 1160 517 1094 c 0
 432.701 1047.64 392.16 1159.58 465 1196 c 0
 601 1264 688.475 1321.04 813 1422 c 0
 887 1482 940.196 1396.89 887 1347.8 c 0
802.91 309.379 m 0
 897 441 876 711 837 867 c 0
 767.051 1146.79 657 1263 450 1413 c 0
 387.781 1458.09 468.623 1540.9 534 1497 c 0
 744 1356 900.337 1171.83 963 888 c 0
 1014 657 993 360 891 222 c 0
 570.487 -211.635 96.4902 0 40.4902 250 c 0
 -30.6299 567.498 148.812 880.597 462.49 956 c 0
 670.49 1006 891 891 948 714 c 0
 960.398 675.5 897.096 596.091 882 634 c 0
 837 747 700.086 853.936 520.4 845.379 c 0
 310.4 835.379 58.4004 501.379 182.4 247.379 c 0
 271.346 65.1836 591.292 13.3488 802.91 309.379 c 0
EndSplineSet
EndChar

StartChar: sterling
Encoding: 163 163 192
Width: 1157
VWidth: 0
Flags: W
HStem: 282 114<179.347 337.719> 699.454 140<164.871 248.339 401.365 815.639>
VStem: 248.339 134.732<837.329 1171.81>
LayerCount: 2
Fore
SplineSet
956 1219 m 0
 839.248 1310.73 719.264 1361.24 584 1300 c 0
 438.722 1234.23 372.566 1131.45 375 972 c 0
 375.757 922.39 378.66 876.262 383.071 833.035 c 1
 507.871 831.239 646.814 834.531 741.396 843.855 c 0
 823.229 851.923 873.431 704.979 745.396 707.855 c 0
 634.492 710.348 512.721 708.026 401.365 704.954 c 1
 432.071 536.651 479.355 413.757 486.713 284.61 c 1
 666.698 149.364 833.585 -32.669 1056 174 c 0
 1106.01 220.467 1183.35 115.533 1098 51 c 0
 868.271 -122.697 639.706 8.25458 473.835 132.572 c 1
 427.532 -21.1351 225.047 -46.6136 114 42 c 0
 4.05624 129.733 30.8186 372.046 183 396 c 0
 239.159 404.84 291.893 394.482 342.467 372.956 c 1
 322.531 466.85 289.184 580.072 267.04 700.954 c 1
 249.146 700.414 231.89 699.906 215.4 699.454 c 0
 72.5557 695.543 105.364 846.96 213.4 839.454 c 0
 224.495 838.684 236.172 837.975 248.339 837.329 c 1
 244.558 882.234 243.397 927.571 246 972.8 c 0
 258.513 1190.25 344.849 1334.89 545 1420.8 c 0
 729.693 1500.08 899.64 1437.75 1046 1300 c 0
 1097 1252 1040 1153 956 1219 c 0
358.157 222.798 m 1
 313.499 257.322 278.264 281.354 255 282 c 0
 182.965 284.001 144.836 196.927 186 162 c 0
 237.094 118.648 323.536 76.145 354 198 c 0
 355.942 205.769 357.308 214.044 358.157 222.798 c 1
EndSplineSet
EndChar

StartChar: doublestorya
Encoding: 65537 -1 193
Width: 885
VWidth: 0
Flags: W
VStem: 709.322 119.846<298.073 547.423 690.013 855.333> 719.458 135.71<-13.7183 72.7168>
LayerCount: 2
Fore
SplineSet
819.168 -22 m 0x40
 751.326 -30.2734 728.66 10.7373 719.458 72.7168 c 1x40
 452.604 -115.928 61.2812 -84.4688 28.7676 148 c 0
 -11.2314 434 276.022 606.064 475.168 660 c 0
 591.346 691.465 662.61 696.567 707.868 690.013 c 1
 708.309 710.212 708.749 730.836 709.168 752 c 0
 713.168 954 403.168 934 183.168 726 c 0
 119.322 665.638 55.168 774 131.168 842 c 0
 297.574 990.891 571.168 1052 731.168 972 c 0
 808.331 933.418 833.451 839.912 829.168 758 c 0x80
 813.168 452 815.396 350.485 855.168 88 c 0
 865.169 22 864.116 -16.5186 819.168 -22 c 0x40
704.64 527.237 m 1
 679.887 542.53 651.52 566.623 543.168 548 c 0
 415.169 526 108.236 371.007 153.168 170 c 0
 189.427 7.79199 535.232 60.4453 709.322 209.818 c 1x80
 703.536 325.073 703.168 424.589 704.64 527.237 c 1
EndSplineSet
Validated: 33
EndChar

StartChar: dcroat
Encoding: 273 273 194
Width: 977
VWidth: 0
Flags: W
HStem: 1128 121<455.952 976.676>
VStem: 738.4 136<75.4526 1421.63>
LayerCount: 2
Fore
SplineSet
905 1132 m 0
 727.001 1136 663 1132 517 1128 c 0
 374.155 1124.09 406.964 1256.51 515 1249 c 0
 659 1239 759.001 1235 901 1249 c 0
 982.836 1257.07 1033.04 1129.12 905 1132 c 0
738.4 1378 m 0
 735.523 1506.04 882.466 1455.83 874.4 1374 c 0
 860.4 1232 872 210 882 66 c 0
 889.504 -42.0361 738.087 -74.8447 742 68 c 0
 746 214 742.4 1200 738.4 1378 c 0
707.333 825 m 0
 662.333 852 573.502 871.539 470 846 c 0
 239 789 95.1074 544.683 161.91 336.379 c 0
 239 96 512 18 779 198 c 0
 853.667 248.338 866.854 155.862 794 99 c 0
 548 -93 149 -57 41 294 c 0
 -38.6299 552.797 116 891 430.09 965.621 c 0
 580.056 1001.25 735.98 966.711 782.333 933 c 0
 848.333 885 782.443 779.934 707.333 825 c 0
EndSplineSet
EndChar

StartChar: circumflex
Encoding: 710 710 195
Width: 617
VWidth: 0
Flags: W
LayerCount: 2
Fore
SplineSet
68 1190 m 0
 140.063 1282 176 1341 238.937 1440 c 0
 278.289 1501.9 332.207 1510.88 379.938 1432 c 0
 435 1341 486 1275 555 1182 c 0
 591.556 1132.73 519.844 1036.86 465.938 1112 c 0
 415 1183 367 1251 306.937 1348 c 1
 241 1242 185.586 1173.75 145.938 1116 c 0
 102 1052 14.1309 1121.23 68 1190 c 0
EndSplineSet
EndChar

StartChar: tilde
Encoding: 732 732 196
Width: 959
VWidth: 0
Flags: W
LayerCount: 2
Fore
SplineSet
767 1131 m 0
 707 1050 590.158 1017.78 446.163 1102 c 0
 347 1160 296.269 1142.63 241 1077 c 0
 193 1020 121 1070 153.163 1145 c 0
 183.101 1214.81 342.163 1311 477.163 1215 c 0
 577.585 1143.59 622 1145 700 1220 c 0
 759.275 1277 843.23 1233.91 767 1131 c 0
EndSplineSet
EndChar

StartChar: ring
Encoding: 730 730 197
Width: 520
VWidth: 0
Flags: W
LayerCount: 2
Fore
SplineSet
160 1397 m 0
 72.2148 1328.72 107.636 1152.77 222 1137 c 0
 338 1121 402.428 1170.99 404 1281 c 0
 406 1421 250 1467 160 1397 c 0
32.8281 1360 m 0
 68.5068 1535.29 336.514 1562.72 444.828 1440 c 24
 553.252 1317.16 475.671 1071.73 314.828 1040.5 c 24
 151.677 1008.82 -13.1719 1134 32.8281 1360 c 0
EndSplineSet
EndChar

StartChar: caron
Encoding: 711 711 198
Width: 617
VWidth: 0
Flags: W
LayerCount: 2
Fore
SplineSet
548.512 1366 m 0
 476.448 1274 440.512 1215 377.575 1116 c 0
 338.223 1054.1 284.305 1045.12 236.574 1124 c 0
 181.512 1215 130.512 1281 61.5117 1374 c 0
 24.9561 1423.27 96.668 1519.14 150.574 1444 c 0
 201.512 1373 249.512 1305 309.574 1208 c 1
 375.512 1314 430.926 1382.25 470.573 1440 c 0
 514.512 1504 602.381 1434.77 548.512 1366 c 0
EndSplineSet
EndChar

StartChar: uni02CB
Encoding: 715 715 199
Width: 485
VWidth: 0
Flags: W
LayerCount: 2
Fore
SplineSet
40.1182 1386.62 m 0
 -12.7061 1436.11 84.877 1534.23 148.746 1463.55 c 0
 257.668 1343 342.668 1250 441.668 1144 c 0
 497.254 1084.48 421.076 1023.38 351.668 1090 c 0
 250.605 1187 181.667 1254 40.1182 1386.62 c 0
EndSplineSet
EndChar

StartChar: uni02CA
Encoding: 714 714 200
Width: 485
VWidth: 0
Flags: W
LayerCount: 2
Fore
SplineSet
445.718 1392.62 m 4
 304.169 1260 235.23 1193 134.169 1096 c 4
 64.7607 1029.38 -11.417 1090.48 44.1689 1150 c 4
 143.169 1256 228.169 1349 337.09 1469.55 c 4
 400.959 1540.23 498.542 1442.11 445.718 1392.62 c 4
EndSplineSet
EndChar

StartChar: uni02C9
Encoding: 713 713 201
Width: 695
VWidth: 0
Flags: W
HStem: 1330.2 117<59.3846 638.872>
LayerCount: 2
Fore
SplineSet
592.432 1330.2 m 0
 414.433 1334.2 266.433 1330.2 120.433 1326.2 c 0
 -22.4121 1322.29 10.3965 1454.71 118.433 1447.2 c 0
 262.433 1437.2 446.433 1433.2 588.432 1447.2 c 0
 670.268 1455.27 720.467 1327.32 592.432 1330.2 c 0
EndSplineSet
EndChar

StartChar: beta
Encoding: 946 946 202
Width: 1134
VWidth: 0
Flags: W
HStem: 722.462 153<394.168 654.365>
VStem: 86.5996 126.974<514.785 1187.08> 89.999 140.001<-523.744 3.49384>
LayerCount: 2
Fore
SplineSet
213.574 963.98 m 0xc0
 213.743 894.428 229.4 -454 230 -468 c 0
 234.634 -576.197 86.0869 -608.845 89.999 -466 c 0xa0
 93.7852 -327.823 85.0625 840.853 86.5996 981 c 0
 90 1291 222 1396 341.6 1426 c 0
 666.91 1507.6 912.109 1350.27 930 1132 c 0
 945 949 849 849 689 824 c 1
 840 828 985 735 1062 561 c 0
 1142.99 377.995 1075 102 879 33 c 0
 688.223 -34.1611 506.192 -30.5137 348 42 c 0
 272.883 76.4326 297 201 365 169 c 0
 525.11 93.6541 690.289 99 810 147 c 0
 975.639 213.416 1007.73 398.849 930 537 c 0
 835 705.843 632 700.462 440 722.462 c 0
 319.972 736.215 339.477 870.29 437.4 875.462 c 0
 618 885 825 949 807 1114 c 0
 790.507 1265.19 619.4 1351 405 1306 c 0
 304.479 1284.9 213 1201 213.574 963.98 c 0xc0
EndSplineSet
EndChar

StartChar: ogonek
Encoding: 731 731 204
Width: 947
VWidth: 0
Flags: W
LayerCount: 2
Fore
SplineSet
345.368 44 m 4
 361.205 63.0049 422.143 61.5488 408.368 41 c 4
 347.368 -50 334.564 -107.496 371.368 -142 c 4
 419.368 -187 533.368 -171 609.368 -105 c 4
 660.107 -60.9375 714.368 -176 637.368 -236 c 4
 541.041 -311.061 377.368 -319 308.368 -246 c 4
 245.558 -179.548 265.368 -52 345.368 44 c 4
EndSplineSet
EndChar

StartChar: dotaccent
Encoding: 729 729 220
Width: 299
VWidth: 0
Flags: W
LayerCount: 2
Fore
SplineSet
67 1436 m 24
 72.2539 1488.53 158.334 1517.97 195 1480 c 24
 238.561 1434.89 238.307 1340.39 179 1320 c 24
 119.531 1299.56 60.7422 1373.43 67 1436 c 24
EndSplineSet
EndChar

StartChar: breve
Encoding: 728 728 221
Width: 979
VWidth: 0
Flags: W
HStem: 1267 130<313.971 666.242>
LayerCount: 2
Fore
SplineSet
191.742 1412 m 0
 149.707 1466.2 215.742 1528 248.742 1495 c 0
 331.308 1412.43 388.742 1399 489.742 1397 c 24
 585.742 1395 652.583 1411.92 717.742 1487 c 0
 763.742 1540 826.546 1471.8 789.742 1416 c 0
 727.742 1322 621.742 1268 491.742 1267 c 24
 361.742 1266 267.742 1314 191.742 1412 c 0
EndSplineSet
EndChar

StartChar: hungarumlaut
Encoding: 733 733 251
Width: 582
VWidth: 0
Flags: W
VStem: 161.409 131<1356.82 1512.03> 422.409 131<1356.82 1512.03>
LayerCount: 2
Fore
SplineSet
553.409 1463 m 0
 480.409 1283 446.409 1193 395.409 1063 c 0
 360.409 973 264.409 997 290.409 1074 c 0
 335.409 1212 374.409 1332 422.409 1487 c 0
 450.409 1578 580.409 1530 553.409 1463 c 0
292.409 1463 m 0
 219.409 1283 185.409 1193 134.409 1063 c 0
 99.4092 973 3.40918 997 29.4092 1074 c 0
 74.4092 1212 113.409 1332 161.409 1487 c 0
 189.409 1578 319.409 1530 292.409 1463 c 0
EndSplineSet
EndChar

StartChar: IJ
Encoding: 306 306 252
Width: 1552
VWidth: 0
HStem: -291 114<259.015 728.758> 1381.3 110.32<274.198 665.694>
VStem: 140.074 140.001<13.2231 1381.3>
LayerCount: 2
Fore
SplineSet
140.433 1419.23 m 0
 138.794 1492.17 178.884 1492.46 225.024 1491.62 c 0
 535 1486 779.175 1455.27 1158 1514 c 0
 1221.38 1523.83 1268.97 1471.58 1272 1412 c 0
 1299 881 1370 375 1139 21 c 0
 945.823 -275.037 675.244 -334.911 302 -291 c 0
 200 -279 209 -165 284 -177 c 0
 580.536 -224.446 814.48 -182.48 1007 48 c 0
 1220 303 1209 731 1149 1394 c 1
 849.047 1351.15 481 1372 274.198 1381.3 c 1
 263.335 1152.46 270.659 204.491 280.075 68.9043 c 0
 287.579 -39.1318 136.162 -71.9404 140.074 70.9043 c 0
 144.074 216.904 144.433 1241.23 140.433 1419.23 c 0
EndSplineSet
EndChar

StartChar: ij
Encoding: 307 307 253
Width: 930
VWidth: 0
Flags: W
VStem: 150.459 136<112.257 230.027 578.368 973.622> 642.059 140<-801.681 697>
LayerCount: 2
Fore
SplineSet
140.459 1356 m 24
 145.712 1408.53 231.793 1437.97 268.459 1400 c 24
 312.018 1354.89 311.764 1260.39 252.459 1240 c 24
 192.989 1219.56 134.201 1293.43 140.459 1356 c 24
643.222 697 m 1
 606 393 476 75 434 21 c 0
 389.651 -36.0195 327 -72 260 -45 c 24
 181 -13 140.393 42.8262 143 138 c 0
 147 284 154.459 752 150.459 930 c 0
 147.582 1058.03 294.525 1007.82 286.459 926 c 0
 272.459 784 265 316 275 172 c 0
 277.504 135.946 310.94 98.7666 344 114 c 0
 446 161 593 783 606 921 c 0
 618.011 1048.5 785.525 1007.82 777.459 926 c 0
 763.459 784 772.059 -602 782.059 -746 c 0
 789.562 -854.036 638.146 -886.845 642.059 -744 c 0
 645.367 -623.229 645.529 273.396 643.222 697 c 1
610.459 1356 m 24
 615.712 1408.53 701.793 1437.97 738.459 1400 c 24
 782.018 1354.89 781.764 1260.39 722.459 1240 c 24
 662.989 1219.56 604.201 1293.43 610.459 1356 c 24
EndSplineSet
EndChar

StartChar: uni0237
Encoding: 567 567 278
Width: 545
VWidth: 0
Flags: W
VStem: 254.9 132.1<480.334 967.598>
LayerCount: 2
Fore
SplineSet
254.9 936 m 0
 244.711 1021.09 379.855 1002.88 387 939 c 0
 448.466 389.417 461.355 -175.764 419.9 -470 c 0
 341 -1030 -235.242 -928.615 -360 -663 c 0
 -391 -597 -335.906 -553.557 -302 -605 c 0
 -186 -781 170.297 -853.379 260.9 -559 c 0
 344 -289 321 384 254.9 936 c 0
EndSplineSet
EndChar

StartChar: gcommaaccent
Encoding: 291 291 315
Width: 900
VWidth: 0
Flags: W
VStem: 422 130<1071.36 1389.52>
LayerCount: 2
Fore
SplineSet
552 1111 m 0
 555 1026 429 1031 422 1102 c 0
 407 1253 470 1447 539 1523 c 0
 603 1593 678 1508 624 1444 c 0
 537 1340 548 1243 552 1111 c 0
EndSplineSet
Refer: 5 103 N 1 0 0 1 0 0 2
EndChar

StartChar: Hbar
Encoding: 294 294 316
Width: 1333
VWidth: 0
Flags: W
HStem: 723 140<167.319 687.55> 757 122<687.55 1190.44> 1145 121<8.251 1329.82>
VStem: 90.1387 136.049<930.122 1427.26> 115.621 140.013<15.7803 531.806> 1077.5 136.05<920.031 1417.17> 1102.99 140.01<5.6865 521.713>
LayerCount: 2
Fore
SplineSet
1303 1157 m 0x20
 1125 1161 201 1149 55 1145 c 0
 -87.8447 1141.09 -55.0361 1273.51 53 1266 c 0
 197 1256 1157 1260 1299 1274 c 0
 1380.84 1282.07 1431.04 1154.12 1303 1157 c 0x20
EndSplineSet
Refer: 34 72 N 1 0 0 1 0 0 2
EndChar

StartChar: hbar
Encoding: 295 295 317
Width: 1024
VWidth: 0
Flags: W
HStem: 1141 117<-0.0473022 579.44>
VStem: 99.9551 124.592<763.888 1424.64> 113.982 127.543<-11.8623 572.444> 802.863 126.603<20.4965 502.932>
LayerCount: 2
Fore
SplineSet
533 1141 m 0x90
 355.001 1145 207.001 1141 61.001 1137 c 0
 -81.8438 1133.09 -49.0352 1265.51 59.001 1258 c 0
 203.001 1248 387.001 1244 529 1258 c 0
 610.836 1266.07 661.035 1138.12 533 1141 c 0x90
802.863 42.6094 m 0
 816.559 415.265 805.503 595.175 775.061 716.051 c 0
 731 891 506.927 897.29 376.021 740.88 c 0
 235.207 572.629 245.204 319.321 241.525 130.096 c 0
 240.573 81.2305 257.751 2.75879 202.136 -12.2832 c 0
 134.702 -30.5205 114.19 29.2539 113.982 83.8564 c 0xb0
 112.024 597.072 107.19 820.016 99.9551 1402.09 c 0
 98.9844 1480.14 217.906 1466.02 217.089 1399.96 c 0
 213.822 1136.15 222 1012 224.547 763.888 c 17xd0
 350 951 553.217 1038 745.014 958.992 c 0
 963.103 869.148 936.505 449.081 929.466 56.6348 c 0
 927.853 -33.3506 799.775 -41.3584 802.863 42.6094 c 0
EndSplineSet
EndChar

StartChar: kgreenlandic
Encoding: 312 312 318
Width: 991
VWidth: 0
Flags: W
HStem: 890 114<675.264 807.264>
VStem: 115.554 124.599<53.8902 370.553 731.392 966.335>
LayerCount: 2
Fore
SplineSet
116 938 m 0
 106.051 1065.68 238.562 1030.1 243 948 c 0
 247 874 251 828 251.226 731.392 c 1
 392.134 866.301 571.74 953.41 727 1004 c 0
 813.892 1032.31 884.255 924.87 787 890 c 0
 575 814 435 732 301 578 c 0
 293.281 569.13 288.455 553.77 295 544 c 0
 433 338 692.554 92 898.554 156 c 0
 981.695 181.83 951.554 -66 742.554 12 c 0
 559.811 80.2002 419.588 134.765 253.729 370.553 c 1
 253.818 202.804 243.735 139.884 240.153 58.9043 c 0
 235.367 -49.2861 108.663 -79.7324 115.554 63 c 0
 136.554 498 134 707 116 938 c 0
EndSplineSet
EndChar

StartChar: uni2010
Encoding: 8208 8208 319
Width: 660
VWidth: 0
Flags: W
HStem: 470.189 140<62.7511 598.151>
LayerCount: 2
Fore
SplineSet
557.428 472.59 m 0
 379.428 476.59 266.433 474.189 120.433 470.189 c 0
 -22.4131 466.277 10.3955 617.694 118.433 610.189 c 0
 262.433 600.189 411.428 594.59 553.428 608.59 c 0
 635.262 616.657 685.463 469.713 557.428 472.59 c 0
EndSplineSet
EndChar

StartChar: uni2011
Encoding: 8209 8209 320
Width: 660
VWidth: 0
Flags: W
HStem: 470.189 140<62.7511 598.151>
LayerCount: 2
Fore
SplineSet
557.428 472.59 m 0
 379.428 476.59 266.433 474.189 120.433 470.189 c 0
 -22.4131 466.277 10.3955 617.694 118.433 610.189 c 0
 262.433 600.189 411.428 594.59 553.428 608.59 c 0
 635.262 616.657 685.463 469.713 557.428 472.59 c 0
EndSplineSet
EndChar

StartChar: figuredash
Encoding: 8210 8210 321
Width: 1035
VWidth: 0
Flags: W
HStem: 445.189 140<62.7516 973.15>
LayerCount: 2
Fore
SplineSet
932.427 447.59 m 0
 754.427 451.59 266.432 449.189 120.433 445.189 c 0
 -22.4121 441.277 10.3965 592.694 118.433 585.189 c 0
 262.432 575.189 786.427 569.59 928.427 583.59 c 0
 1010.26 591.657 1060.46 444.713 932.427 447.59 c 0
EndSplineSet
EndChar

StartChar: endash
Encoding: 8211 8211 322
Width: 1035
VWidth: 0
Flags: W
HStem: 445.189 140<62.7516 973.15>
LayerCount: 2
Fore
SplineSet
932.427 447.59 m 0
 754.427 451.59 266.432 449.189 120.433 445.189 c 0
 -22.4121 441.277 10.3965 592.694 118.433 585.189 c 0
 262.432 575.189 786.427 569.59 928.427 583.59 c 0
 1010.26 591.657 1060.46 444.713 932.427 447.59 c 0
EndSplineSet
EndChar

StartChar: emdash
Encoding: 8212 8212 323
Width: 2173
VWidth: 0
Flags: W
HStem: 445.189 140<62.7516 2111.15>
LayerCount: 2
Fore
SplineSet
2070.43 447.59 m 0
 1892.43 451.59 266.432 449.189 120.433 445.189 c 0
 -22.4121 441.277 10.3965 592.694 118.433 585.189 c 0
 262.432 575.189 1924.43 569.59 2066.43 583.59 c 0
 2148.26 591.657 2198.46 444.713 2070.43 447.59 c 0
EndSplineSet
EndChar

StartChar: afii00208
Encoding: 8213 8213 324
Width: 2173
VWidth: 0
Flags: W
HStem: 445.189 140<62.7516 2111.15>
LayerCount: 2
Fore
SplineSet
2070.43 447.59 m 0
 1892.43 451.59 266.432 449.189 120.433 445.189 c 0
 -22.4121 441.277 10.3965 592.694 118.433 585.189 c 0
 262.432 575.189 1924.43 569.59 2066.43 583.59 c 0
 2148.26 591.657 2198.46 444.713 2070.43 447.59 c 0
EndSplineSet
EndChar

StartChar: Lslash
Encoding: 321 321 325
Width: 1020
VWidth: 0
Flags: W
HStem: -12 132<241.82 706.34> 32 122<629.339 1020.23>
VStem: 112 126<115.589 1435.78>
LayerCount: 2
Fore
SplineSet
388 779 m 4x20
 224.586 708.319 161.814 677.277 30.8164 612.688 c 4
 -97.3496 549.495 -113.907 668.904 -12.6035 707.189 c 4
 122.421 758.222 221.246 797.026 344.433 869.032 c 4
 415.427 910.528 505.544 829.84 388 779 c 4x20
EndSplineSet
Refer: 38 76 N 1 0 0 1 0 0 2
EndChar

StartChar: lslash
Encoding: 322 322 326
Width: 406
VWidth: 0
Flags: W
VStem: 135 130<0 1440>
LayerCount: 2
Fore
SplineSet
408 779 m 0
 244.586 708.319 181.814 677.277 50.8164 612.688 c 0
 -77.3496 549.495 -93.9072 668.904 7.39648 707.189 c 0
 142.421 758.222 241.246 797.026 364.433 869.032 c 0
 435.427 910.528 525.544 829.84 408 779 c 0
EndSplineSet
Refer: 11 108 N 1 0 0 1 0 0 2
EndChar

StartChar: Eng
Encoding: 330 330 328
Width: 1140
VWidth: 0
Flags: W
HStem: -296 120<652.112 859.798>
VStem: 117.311 137<-8.19292 554.411> 911.312 128.998<-122.784 1204.48>
LayerCount: 2
Fore
SplineSet
911.312 51 m 0
 917.062 406.252 919.371 899.995 905 1062 c 0
 872 1434 529.755 1349.82 385.129 1206 c 0
 183 1005 264.241 315 254.311 126 c 0
 251.746 77.1924 258.322 2.19629 202.24 -11 c 0
 134.241 -27 115.296 33.4336 117.311 88 c 0
 128.311 386 115 1021 83 1371 c 0
 75.8936 1448.73 196 1467.21 208 1387 c 0
 216.099 1332.86 218 1286 224 1221.79 c 17
 381 1440 698 1503 841 1416 c 0
 967.121 1339.27 1021 1215 1030 1083 c 0
 1041.84 909.374 1040.92 243.311 1040.31 61 c 0
 1039.87 -71 1029.87 -170 930.871 -245 c 0
 848.458 -307.434 756.871 -311 684.871 -296 c 0
 598.894 -278.088 618.871 -176 687.871 -176 c 0
 748.616 -176 788.996 -174.531 840.871 -146 c 0
 900.871 -113 909.871 -38 911.312 51 c 0
EndSplineSet
EndChar

StartChar: eng
Encoding: 331 331 329
Width: 1026
VWidth: 0
Flags: W
HStem: -297 120<568.241 775.927>
VStem: 117.311 137<-8.19292 562.529> 827.44 131<-123.784 517.766>
LayerCount: 2
Fore
SplineSet
827.44 50 m 0
 833.19 405.252 840.441 554 794.44 710 c 0
 736.754 905.633 545.327 895.482 404.44 748 c 0
 236.311 572 264.241 315 254.311 126 c 0
 251.746 77.1924 258.322 2.19629 202.24 -11 c 0
 134.241 -27 115.296 33.4336 117.311 88 c 0
 128.311 386 132.311 560 100.311 910 c 0
 93.2041 987.733 210.311 1006.21 222.311 926 c 0
 230.41 871.857 234 825 241.311 760.785 c 17
 355.311 943.785 585.36 1039.31 774.44 954 c 0
 989.441 857 959.662 426.123 958.44 60 c 0
 958 -72 946 -171 847 -246 c 0
 764.587 -308.434 673 -312 601 -297 c 0
 515.022 -279.088 535 -177 604 -177 c 0
 664.745 -177 705.125 -175.531 757 -147 c 0
 817 -114 826 -39 827.44 50 c 0
EndSplineSet
EndChar

StartChar: longs
Encoding: 383 383 332
Width: 675
VWidth: 0
Flags: W
HStem: -504 120<-97.9006 155.192> 1333 114<426.142 672.717>
VStem: 189 123<563.46 1204.43> 232 122.271<-304.673 483.601>
LayerCount: 2
Fore
SplineSet
-37 -384 m 0xd0
 275 -402 239.663 -170.418 232 33 c 0xd0
 221 325 205.729 660 189 1003 c 0
 180.046 1186.59 259.729 1483 628.457 1447 c 0
 736.051 1436.5 713.098 1318.28 628.729 1333 c 0
 370.729 1378 305.743 1128.82 312 1018 c 0xe0
 329.729 704 340 360 354.271 52 c 0
 364.356 -165.629 407 -525 -55 -504 c 0
 -164.272 -499.033 -145.237 -377.756 -37 -384 c 0xd0
EndSplineSet
EndChar

StartChar: uni0250
Encoding: 592 592 333
Width: 905
VWidth: 0
Flags: W
VStem: 69 135.71<868.126 968.135> 95 120<133.51 306.83 425.752 685.224>
LayerCount: 2
Fore
SplineSet
105 980.843 m 0x80
 172.842 989.116 195.508 930.105 204.71 868.126 c 1x80
 471.564 1056.77 867.578 1006.92 895.4 773.843 c 0
 924.168 532.843 635.168 369.843 441.168 325.843 c 0
 341.258 303.183 261.558 300.275 216.3 306.83 c 1
 215.859 286.631 215.419 258.007 215 236.843 c 0
 211 34.8428 521 54.8428 741 262.843 c 0
 804.846 323.205 869 214.843 793 146.843 c 0
 626.594 -2.04785 353 -63.1572 193 16.8428 c 0
 115.837 55.4248 90.7168 148.931 95 230.843 c 0x40
 111 536.843 108.771 608.357 69 870.843 c 0
 58.999 936.843 60.0518 975.361 105 980.843 c 0x80
219.528 432.605 m 1
 241.168 427.843 289.168 415.843 381 430.843 c 0
 509.178 451.78 810.168 586.843 771 751.843 c 0
 732.611 913.56 388.936 880.397 214.846 731.024 c 1
 220.632 615.77 221 535.254 219.528 432.605 c 1
EndSplineSet
EndChar

StartChar: uni0251
Encoding: 593 593 334
Width: 918
VWidth: 0
Flags: W
VStem: 723 123<454.906 779.036 868.816 987.204> 754.977 138.013<8.77242 112.321>
LayerCount: 2
Fore
SplineSet
726 955 m 0x40
 734.597 1002.89 848.111 1015.37 846 913 c 0x80
 840 622 844 516 859.529 338.682 c 1
 886.116 319.091 903.323 273.795 880.49 244 c 0
 877.225 239.738 873.946 235.538 870.655 231.397 c 1
 877.268 170.341 884.702 105.62 892.99 36 c 0
 902.99 -48 775.99 -51 766.99 18 c 0
 762.737 50.6035 758.736 82.2686 754.977 113.11 c 1
 446.633 -137.863 89.6201 30.668 40.4902 250 c 0
 -30.6289 567.498 117 911 397.5 977.455 c 0
 556.941 1015.23 704 953 718.305 868.816 c 1
 719.557 911.795 719 916 726 955 c 0x40
744.12 251.902 m 1
 735 442 724.883 543.753 723 717 c 1
 693 785 601.848 869.088 474 863 c 0
 264 853 68.4902 540.09 166.99 256.545 c 0
 227.269 83.0234 535.812 35.2803 744.12 251.902 c 1
EndSplineSet
EndChar

StartChar: uni0252
Encoding: 594 594 335
Width: 1008
VWidth: 0
Flags: W
LayerCount: 2
Fore
SplineSet
229.077 141 m 1
 310.077 93 631.077 18 754.077 174 c 0
 854.053 300.798 876.977 551.836 800.377 712 c 0
 712.377 896 496.377 880 364.377 743 c 0
 212.146 585.004 207.308 193.25 229.077 141 c 1
126 957 m 0
 124.185 1035.04 247.395 1016.92 243 951 c 0
 239 891 237 844 232.377 776 c 17
 349.377 941 568.296 1026.31 757.377 941 c 0
 972.377 844 1028.74 396.027 860.377 132 c 0
 684.377 -144 283.077 18 205.077 18 c 1
 121.078 -39 98.4824 44.4199 100.078 99 c 0
 115.078 612 130 785 126 957 c 0
EndSplineSet
EndChar

StartChar: uni0254
Encoding: 596 596 336
Width: 791
VWidth: 0
Flags: W
LayerCount: 2
Fore
SplineSet
104.947 696 m 0
 48.6621 626.164 -10.2158 730.547 50.9473 807 c 0
 182.947 972 345.607 991.021 493.947 961 c 0
 745.947 910 816.345 508.789 732.947 262 c 0
 683.947 117 608.947 38 490.947 0 c 0
 335.021 -50.2129 182.947 -23 88.9473 48 c 0
 10.499 107.253 62.9473 197 124.947 162 c 0
 240.347 96.8545 300.947 70 436.947 112 c 0
 516.223 136.482 593.947 215 618.947 298 c 0
 670.753 469.995 651.947 753 466.947 835 c 0
 358.756 882.955 212.947 830 104.947 696 c 0
EndSplineSet
EndChar

StartChar: uni0259
Encoding: 601 601 337
Width: 987
VWidth: 0
Flags: W
HStem: 471.229 116.457<458.177 926.774>
LayerCount: 2
Fore
SplineSet
656.08 792 m 0
 525.224 906.962 300.705 864.01 191.08 791 c 0
 122.649 745.425 57.6504 828.856 124.264 887.6 c 0
 228.557 979.572 526.186 1040.83 703.039 920.589 c 0
 948.685 753.57 997.225 356.682 784.08 135 c 0
 509.82 -150.241 46.0801 -31 25.4834 405.588 c 0
 13.4121 661.465 225.08 635 906.152 587.686 c 4
 997.015 581.373 971.568 471.229 873.08 471.229 c 0
 420.08 471.229 144.512 546.77 153.08 407 c 0
 169.08 146 401.08 54 589.018 144.157 c 0
 847.894 268.345 843.466 627.376 656.08 792 c 0
EndSplineSet
EndChar

StartChar: uni0258
Encoding: 600 600 338
Width: 988
VWidth: 0
Flags: W
HStem: 503 117.361<477.727 940.936>
VStem: 25.0596 121.879<611.385 773.625>
LayerCount: 2
Fore
SplineSet
623.791 174.217 m 0
 489.68 63.0674 253.106 113.503 145.628 189.638 c 0
 78.5371 237.163 11.1641 155.637 76.0596 95 c 0
 177.663 0.0644531 486.789 -70.7764 667.029 44.3301 c 0
 917.38 204.211 943.229 605.856 736.552 833.579 c 0
 470.612 1126.59 19.0596 935 25.0596 656 c 0
 30.5664 399.897 439.06 440 907.06 503 c 0
 997.328 515.151 974.762 634.901 877.354 620.361 c 0
 493.06 563 148.06 539 146.939 664.083 c 0
 145.453 830.004 391.558 927.193 557.219 826.892 c 0
 774.929 695.076 815.836 333.381 623.791 174.217 c 0
EndSplineSet
EndChar

StartChar: uni025B
Encoding: 603 603 339
Width: 784
VWidth: 0
Flags: W
LayerCount: 2
Fore
SplineSet
80.2227 665 m 0
 46.2227 752 71.2227 873 189.223 935 c 0
 293.223 989 498.223 1010 662.223 936 c 0
 764.223 890 713.223 785 625.223 817 c 0
 474.223 872 325.223 879 254.223 829 c 0
 203.223 793 183.223 720 214.223 678 c 0
 255.223 623 362.223 585 487.223 597 c 0
 589.345 606.804 592.223 478 490.223 476 c 0
 351.223 473 190.223 436 157.223 290 c 0
 136.223 198 205.223 141 283.223 123 c 0
 428.223 90 569.223 122 675.223 168 c 0
 755.223 202 798.223 82 712.223 41 c 0
 564.223 -30 298.223 -29 186.223 21 c 0
 48.2227 82 2.22266 218 35.2227 339 c 0
 63.2227 442 164.223 506 236.223 526 c 1
 158.223 543 104.223 604 80.2227 665 c 0
EndSplineSet
EndChar

StartChar: uni025C
Encoding: 604 604 340
Width: 771
VWidth: 0
Flags: W
LayerCount: 2
Fore
SplineSet
689.375 693 m 0
 670.146 630.033 618.676 566 541.775 542.5 c 1
 614.676 528 693.695 470 729.695 369.2 c 0
 771.99 250.782 735.455 111.8 602.975 40.4004 c 0
 494.781 -17.9111 230.054 -39.5957 77.375 19.6064 c 0
 -11.3242 54 22.6758 175 104.676 147 c 0
 214.231 109.591 356.676 88 498.676 132 c 0
 575.4 155.774 642.676 222 614.676 312 c 0
 570.101 455.276 431.7 481.178 292.676 473 c 0
 190.676 467 184.676 604 286.676 594 c 0
 404.262 582.472 518.025 638.408 554.676 696 c 0
 582.676 740 560.676 814 506.676 846 c 0
 432.247 890.105 282.676 873.843 136.676 807 c 0
 51.9062 768.19 -7.32422 864.843 91.0557 918.7 c 0
 248.385 1004.83 454.407 1000.52 561.936 954.4 c 0
 684.334 901.9 716.734 782.6 689.375 693 c 0
EndSplineSet
EndChar

StartChar: uni026A
Encoding: 618 618 343
Width: 673
VWidth: 0
Flags: W
HStem: -2.40039 140<75.7565 272.6 412.608 611.155> 840 140<62.7516 265.604 401.659 598.151>
VStem: 272.6 140.008<68.3893 475.338 795.811 888.358>
LayerCount: 2
Fore
SplineSet
570.432 0 m 0
 392.433 4 279.438 1.59961 133.438 -2.40039 c 0
 -9.40723 -6.3125 23.4014 145.105 131.438 137.6 c 0
 275.438 127.6 424.433 122 566.432 136 c 0
 648.266 144.068 698.467 -2.87695 570.432 0 c 0
557.428 842.4 m 0
 379.428 846.4 266.433 844 120.433 840 c 0
 -22.4121 836.088 10.3965 987.506 118.433 980 c 0
 262.433 970 411.428 964.4 553.428 978.4 c 0
 635.262 986.469 685.463 839.523 557.428 842.4 c 0
265.604 863.739 m 0
 259.75 991.67 407.821 944.89 401.659 862.902 c 0
 390.965 720.615 399.264 258.77 412.608 115.041 c 0
 422.62 7.20801 272.008 -29.1113 272.6 113.785 c 0
 273.204 259.839 273.74 685.88 265.604 863.739 c 0
EndSplineSet
EndChar

StartChar: uni0272
Encoding: 626 626 344
Width: 1030
VWidth: 0
Flags: W
HStem: -236 130<-51.0571 107.447>
VStem: 112.866 127.681<-95.5243 539.875 739.888 966.257> 806.863 129.603<16.4965 501.213>
LayerCount: 2
Fore
SplineSet
806.863 38.6094 m 0
 820.559 411.265 808.503 595.175 778.061 716.051 c 0
 734 891 513.927 897.29 383.021 740.88 c 0
 242.207 572.629 252.348 313.969 248 77 c 0
 246 -32 256 -144 158 -204 c 0
 94.7119 -242.748 26.8076 -234.358 0 -236 c 0
 -98 -242 -104.315 -99.6273 -10 -106 c 0
 138 -116 120 -22 120.982 75.8564 c 0
 123.512 327.987 121 726 112.866 946.131 c 0
 109.984 1024.13 240.12 1010.06 239 944 c 0
 238 885 240 819 240.547 739.888 c 17
 352 960 560.217 1038 752.014 958.992 c 0
 970.103 869.148 943.505 445.081 936.466 52.6348 c 0
 934.853 -37.3506 803.775 -45.3584 806.863 38.6094 c 0
EndSplineSet
EndChar

StartChar: uni0275
Encoding: 629 629 345
Width: 1012
VWidth: 0
Flags: W
HStem: -18 123.011<360.353 689.194> 474.229 121<126.728 858.164>
LayerCount: 2
Fore
SplineSet
869 481.229 m 0
 691.001 485.229 337.001 478.229 191.001 474.229 c 0
 48.1562 470.318 80.9648 602.738 189.001 595.229 c 0
 333.001 585.229 723.001 584.229 865 598.229 c 0
 946.836 606.299 997.035 478.35 869 481.229 c 0
466.595 988 m 0
 492.787 990.381 513.725 981.899 528.141 968.562 c 1
 771.381 944.559 940.711 799.614 976.595 592 c 0
 1032.59 268 864.595 -8 554.595 -18 c 0
 282.391 -26.7812 48.5947 148 26.5947 450 c 0
 5.04004 745.891 204.62 964.184 466.595 988 c 0
429.21 856.184 m 0
 261.553 804.767 152.854 654.835 154.595 474 c 0
 156.595 266 336.982 97.6406 546.895 105.011 c 0
 744.729 111.957 894.636 302.974 866.895 499.011 c 0
 836.895 711.011 734.895 849.011 432.595 856 c 0
 431.437 856.026 430.309 856.089 429.21 856.184 c 0
EndSplineSet
EndChar

StartChar: uni0279
Encoding: 633 633 346
Width: 719
VWidth: 0
Flags: W
HStem: 0 123<-3.38784 244.163>
VStem: 464.485 134.515<415.548 975.005>
LayerCount: 2
Fore
SplineSet
47 123 m 0
 168 117 296 153 380.369 315.814 c 0
 473.676 495.877 466.743 648.421 464.485 837.668 c 0
 463.903 886.539 447.511 960.956 502.627 977.736 c 0
 569.455 998.081 597.497 936.582 599 882 c 0
 607.208 583.909 602.485 399.668 640.903 62.2842 c 0
 649.734 -15.2715 538.325 -40.8125 521.186 38.4629 c 0
 509.618 91.9717 495.485 210.668 490.512 296.36 c 1
 388.724 41.2773 254.381 4.62305 47 0 c 0
 -59.0684 -2.36328 -49.0996 127.766 47 123 c 0
EndSplineSet
EndChar

StartChar: uni027E
Encoding: 638 638 347
Width: 791
VWidth: 0
Flags: W
HStem: -4 140<-3.68123 534.833> 11 122<296.349 669.446>
VStem: 140 127<130.464 749.194>
LayerCount: 2
Fore
SplineSet
624 11 m 0x60
 535 10 200 0 54 -4 c 0
 -88.8447 -7.91211 -56.0361 143.506 52 136 c 0xa0
 196 126 519 125 622 133 c 0
 703.984 139.369 752.06 12.4375 624 11 c 0x60
140 469 m 0
 131.34 652.601 132.204 872.173 310 952 c 0
 457 1018 688 972 772 934 c 0
 878.597 885.778 805 766 706 814 c 0
 635.234 848.311 469 877 394 841 c 0
 278.937 785.77 264.866 589.977 267 479 c 0
 269 375 287 213 292 104 c 0
 295.722 22.8633 170.191 1.95312 165 98 c 0
 159 209 145 363 140 469 c 0
EndSplineSet
EndChar

StartChar: uni0280
Encoding: 640 640 348
Width: 878
VWidth: 0
Flags: W
HStem: 832 111<60.8478 124.569>
VStem: 134.464 123.649<-7.89245 427.934 596.953 834.99>
LayerCount: 2
Fore
SplineSet
255.97 850.48 m 1
 255 791 253 698 256 601 c 1
 510.43 577.305 626.447 586.735 695 661 c 0
 719 687 719.644 742.872 701 776 c 0
 651 864.843 447.747 883.43 255.97 850.48 c 1
124.569 834.99 m 1
 120.377 834 116.188 833 112.001 832 c 0
 34.9863 813.51 13.6035 930.85 76.001 943 c 0
 94.7734 946.65 114.047 950.311 133.758 953.871 c 1
 152.228 985.74 190.748 985.83 220.282 968.09 c 1
 442.84 1000.65 700.274 987.481 797 854 c 0
 847 785 866.004 672 813 603 c 0
 741.309 509.673 603 463 368.049 481.279 c 1
 481 372 709 172 821.996 71 c 0
 867.284 30.5205 780.917 -79.917 675 26 c 0
 607 94 387 294 258.113 427.934 c 1
 265.309 187.699 267.372 140.928 271.464 82 c 0
 278.968 -26.0361 130.552 -58.8447 134.464 84 c 0
 138.105 216.918 131.42 547.371 124.569 834.99 c 1
EndSplineSet
EndChar

StartChar: uni0281
Encoding: 641 641 349
Width: 878
VWidth: 0
Flags: W
VStem: 96 136<539.946 936.414> 121 116<123.454 365.662 534 566.625>
LayerCount: 2
Fore
SplineSet
253 112 m 1x00
 446 88 649 115 695 206 c 0
 712 240 708 296 683 321 c 0
 611 392 495 396 242 361 c 1
 243 264 249 171 253 112 c 1x00
121 121 m 1x40
 115 409 106 763 96 896 c 0
 86 1039 235 1012 232 904 c 0x80
 231 845 233 774 237 534 c 1
 360 674 561 865 626 936 c 0
 727 1047 818 940 775 898 c 0
 667 792 457 599 349 485 c 1
 583 514 723 474 799 384 c 0
 855 317 841 203 794 132 c 0
 703 -6 447 -30 223 -7 c 1
 194 -26 156 -28 136 3 c 1
 116 6 97 8 78 11 c 0
 15 20 31 139 109 124 c 0
 113 123 117 122 121 121 c 1x40
EndSplineSet
EndChar

StartChar: uni0283
Encoding: 643 643 350
Width: 675
VWidth: 0
Flags: W
HStem: -504 120<-97.9006 155.192> 1333 114<426.142 672.717>
VStem: 189 123<563.46 1204.43> 232 122.271<-304.673 483.601>
LayerCount: 2
Fore
SplineSet
-37 -384 m 0xd0
 275 -402 239.663 -170.418 232 33 c 0xd0
 221 325 205.729 660 189 1003 c 0
 180.046 1186.59 259.729 1483 628.457 1447 c 0
 736.051 1436.5 713.098 1318.28 628.729 1333 c 0
 370.729 1378 305.743 1128.82 312 1018 c 0xe0
 329.729 704 340 360 354.271 52 c 0
 364.356 -165.629 407 -525 -55 -504 c 0
 -164.272 -499.033 -145.237 -377.756 -37 -384 c 0xd0
EndSplineSet
EndChar

StartChar: uni028A
Encoding: 650 650 351
Width: 1091
VWidth: 0
Flags: W
HStem: 854 118<51.0775 300.508 764.508 1026.18>
LayerCount: 2
Fore
SplineSet
420.508 830 m 0
 262.018 745.472 209.299 516.876 224.508 411 c 4
 250.508 230 359.508 78 624.508 130 c 0
 823.494 169.046 896.508 362 838.508 606 c 0
 812.196 716.688 706.508 816 636.508 856 c 0
 617.297 866.978 590.508 962.08 688.508 972 c 0
 786.508 981.92 936.508 974 992.508 972 c 0
 1102.51 968.071 1078.51 860 994.508 854 c 0
 957.49 851.355 846.508 854 764.508 852 c 1
 804.508 848.539 904.508 770 950.508 670 c 0
 1017.48 524.403 1034.51 86 659.508 7 c 0
 392.757 -49.1953 143.508 87 102.508 378 c 0
 81.0186 530.522 138.508 756 300.508 854 c 1
 222.508 850 151.872 848 96.5078 848 c 0
 4.50781 848.001 -3.49219 972 100.508 972 c 0
 126.891 972 351.068 972 394.508 972 c 0
 480.508 972 450.508 846 420.508 830 c 0
EndSplineSet
EndChar

StartChar: uni028C
Encoding: 652 652 352
Width: 870
VWidth: 0
Flags: W
LayerCount: 2
Fore
SplineSet
875.943 72 m 0
 908.342 -9.13184 786.245 -61.8896 753.942 24 c 0
 624.186 369 525.186 524 389.942 798 c 1
 264.186 491 220.186 336 115.942 27 c 0
 86.3818 -60.6201 -29.0156 2.98535 -9.05762 61 c 0
 106.186 396 165.186 587 311.942 939 c 0
 347.421 1024.1 434.942 1009 466.942 943 c 0
 630.606 605.44 732.186 432 875.943 72 c 0
EndSplineSet
EndChar

StartChar: uni0289
Encoding: 649 649 353
Width: 1024
VWidth: 0
Flags: W
HStem: 481.229 117<1.72717 1027.73>
VStem: 90 136<441.594 963.142> 114 124<188.791 750.479> 785 132<604.458 971.077>
LayerCount: 2
Fore
SplineSet
987 481.229 m 0x90
 809.001 485.229 212 485.229 66 481.229 c 0
 -76.8447 477.318 -44.0361 609.738 64 602.229 c 0
 208 592.229 841.001 584.229 983 598.229 c 0
 1064.84 606.299 1115.04 478.35 987 481.229 c 0x90
90 917 m 0xd0
 82 1045 231 1001 226 919 c 0xd0
 222 848 228 505 238 348 c 0
 249 169 328 105 448 121 c 0
 678 151 783 496 785 923 c 0
 786 1051 922 1006 917 924 c 0
 909 782 931 226 947 83 c 0
 959 -25 813 -64 811 79 c 0
 810 142 809 235 805 383 c 1
 704 72 589 4 438 -9 c 0
 187 -31 127 130 114 293 c 0xb0
 101.815 445.779 96 822 90 917 c 0xd0
EndSplineSet
EndChar

StartChar: alpha
Encoding: 945 945 354
Width: 975
VWidth: 0
Flags: W
LayerCount: 2
Fore
SplineSet
774.4 223.379 m 1
 548.4 -174 96.4902 0 40.4902 250 c 0
 -30.6299 567.498 148.812 880.597 462.49 956 c 0
 670.49 1006 750.49 942 788.49 848 c 0
 794.94 832.044 791.274 815.253 781.817 801.197 c 1
 798.277 794.723 810.871 779.534 812.4 754 c 0
 832.4 420 850.4 318 972.4 138 c 0
 1004.02 91.3496 989.585 -27.0977 938.4 0 c 0
 870.4 36 834.4 102 774.4 223.379 c 1
701.5 770.116 m 1
 647.941 783.292 682.445 853.096 520.4 845.379 c 0
 310.4 835.379 61.4268 502.834 182.4 247.379 c 0
 266.4 70 536.488 37.0381 686.312 310.758 c 0
 726.4 384 717.676 568.946 694.4 728 c 0
 692.01 744.332 695.053 758.524 701.5 770.116 c 1
EndSplineSet
EndChar

StartChar: theta
Encoding: 952 952 355
Width: 1023
VWidth: 0
Flags: W
HStem: 0 131.534<381.053 672.924> 722.441 140<96.9339 634.775> 737.843 136<564.698 939.238>
VStem: 876.61 121.87<386.96 1046.42>
LayerCount: 2
Fore
SplineSet
895.61 737.843 m 0xb0
 717.61 741.843 300.615 726.441 154.615 722.441 c 0
 11.7705 718.529 44.5791 869.946 152.615 862.441 c 0xd0
 296.615 852.441 749.61 859.843 891.61 873.843 c 0
 973.444 881.91 1023.65 734.966 895.61 737.843 c 0xb0
451.61 1333 m 0
 388.796 1337.83 377.304 1451.37 448.297 1451.6 c 0
 876.61 1453 1000.61 1139 998.48 681.215 c 0
 996.013 150.906 738.61 0 534.61 0 c 0
 318.61 0 74.6104 185 30.3457 625.23 c 0
 0.665039 920.416 92.6104 1312 355.541 1408.72 c 0
 459.008 1446.78 512.077 1345.26 406.61 1297 c 0
 194.61 1200 128.211 844.906 146.61 665 c 0
 182.61 313 346.61 132 526.222 131.534 c 0
 702.812 131.076 872.221 281.989 876.61 676 c 0
 880.61 1035 802.61 1306 451.61 1333 c 0
EndSplineSet
EndChar

StartChar: quoteleft
Encoding: 8216 8216 356
Width: 227
VWidth: 0
Flags: W
VStem: 25.3926 136<1082.03 1406.93>
LayerCount: 2
Fore
SplineSet
25.3926 1392 m 0
 29.3955 1474.47 158.651 1440.63 161.393 1373 c 0
 164.393 1299 173.393 1130 198.393 1054 c 0
 225.525 971.515 117.209 929.847 87.3926 1018 c 0
 64.3926 1086 20.3926 1289 25.3926 1392 c 0
EndSplineSet
EndChar

StartChar: quoteright
Encoding: 8217 8217 357
Width: 227
VWidth: 0
Flags: W
VStem: 25.3926 136<1082.03 1406.93>
LayerCount: 2
Fore
SplineSet
25.3926 1392 m 0
 29.3955 1474.47 158.651 1440.63 161.393 1373 c 0
 164.393 1299 173.393 1130 198.393 1054 c 0
 225.525 971.515 117.209 929.847 87.3926 1018 c 0
 64.3926 1086 20.3926 1289 25.3926 1392 c 0
EndSplineSet
EndChar

StartChar: quotedblleft
Encoding: 8220 8220 358
Width: 480
VWidth: 0
Flags: W
VStem: 25.3926 136<1082.03 1406.93> 287.393 136<1082.03 1406.93>
LayerCount: 2
Fore
SplineSet
287.393 1392 m 0
 291.396 1474.47 420.651 1440.63 423.393 1373 c 0
 426.393 1299 435.393 1130 460.393 1054 c 0
 487.525 971.515 379.209 929.847 349.393 1018 c 0
 326.393 1086 282.393 1289 287.393 1392 c 0
25.3926 1392 m 0
 29.3955 1474.47 158.651 1440.63 161.393 1373 c 0
 164.393 1299 173.393 1130 198.393 1054 c 0
 225.525 971.515 117.209 929.847 87.3926 1018 c 0
 64.3926 1086 20.3926 1289 25.3926 1392 c 0
EndSplineSet
EndChar

StartChar: quotedblright
Encoding: 8221 8221 359
Width: 480
VWidth: 0
Flags: W
VStem: 25.3926 136<1082.03 1406.93> 287.393 136<1082.03 1406.93>
LayerCount: 2
Fore
SplineSet
287.393 1392 m 0
 291.396 1474.47 420.651 1440.63 423.393 1373 c 0
 426.393 1299 435.393 1130 460.393 1054 c 0
 487.525 971.515 379.209 929.847 349.393 1018 c 0
 326.393 1086 282.393 1289 287.393 1392 c 0
25.3926 1392 m 0
 29.3955 1474.47 158.651 1440.63 161.393 1373 c 0
 164.393 1299 173.393 1130 198.393 1054 c 0
 225.525 971.515 117.209 929.847 87.3926 1018 c 0
 64.3926 1086 20.3926 1289 25.3926 1392 c 0
EndSplineSet
EndChar

StartChar: dagger
Encoding: 8224 8224 360
Width: 865
VWidth: 0
Flags: W
HStem: 855 112<8.72717 372.752> 888 94<487.433 855.488>
VStem: 370.91 105.051<989.651 1409.9> 396.393 109.012<11.3889 508.623>
LayerCount: 2
Fore
SplineSet
802 888 m 0x40
 713 887 219 859 73 855 c 0
 -69.8447 851.088 -37.0361 974.505 71 967 c 0x80
 215 957 697 974 800 982 c 0
 881.984 988.368 930.06 889.438 802 888 c 0x40
370.91 1361.2 m 0x20
 365.618 1489.16 482.482 1441.74 475.961 1359.77 c 0x20
 464.643 1217.53 492.69 220.879 505.405 77.0938 c 0
 514.945 -30.7822 395.175 -66.4414 396.393 76.4521 c 0x10
 397.638 222.501 378.268 1183.31 370.91 1361.2 c 0x20
EndSplineSet
EndChar

StartChar: guilsinglleft
Encoding: 8249 8249 361
Width: 420
VWidth: 0
Flags: W
LayerCount: 2
Fore
SplineSet
295.434 141 m 0
 236.434 213 137.434 335 80.0195 402.298 c 0
 9.53711 484.915 2.46484 495.326 84.0195 596.298 c 0
 152.434 681 222.434 769 314.434 873 c 0
 355.082 918.951 432.832 827.504 375.434 755 c 0
 318.434 683 242.434 587 172.021 500.298 c 1
 229.434 429 313.434 323 368.434 261 c 0
 429.327 192.355 350.805 73.4287 295.434 141 c 0
EndSplineSet
EndChar

StartChar: guilsinglright
Encoding: 8250 8250 362
Width: 420
VWidth: 0
Flags: W
LayerCount: 2
Fore
SplineSet
125.403 141 m 0
 70.0322 73.4287 -8.49121 192.355 52.4033 261 c 0
 107.403 323 191.403 429 248.816 500.298 c 1
 178.403 587 102.403 683 45.4033 755 c 0
 -11.9961 827.504 65.7539 918.951 106.403 873 c 0
 198.403 769 268.403 681 336.816 596.298 c 0
 418.37 495.326 411.299 484.915 340.816 402.298 c 0
 283.403 335 184.403 213 125.403 141 c 0
EndSplineSet
EndChar

StartChar: perthousand
Encoding: 8240 8240 363
Width: 1591
VWidth: 0
Flags: W
LayerCount: 2
Fore
SplineSet
1268 349 m 0
 1180 281 1216 147 1306 127 c 0
 1377.61 111.087 1453.5 155.27 1464 241 c 0
 1476 339 1343.79 407.562 1268 349 c 0
1114 327 m 0
 1149.68 502.291 1417.68 529.718 1526 407 c 24
 1634.42 284.158 1556.84 38.7314 1396 7.5 c 24
 1232.85 -24.1797 1068 101 1114 327 c 0
756.828 349 m 0
 668.828 281 704.828 147 794.828 127 c 0
 866.438 111.087 942.33 155.27 952.83 241 c 0
 964.83 339 832.614 407.562 756.828 349 c 0
602.828 327 m 0
 638.507 502.291 906.51 529.718 1014.83 407 c 24
 1123.25 284.158 1045.67 38.7314 884.83 7.5 c 24
 721.677 -24.1797 556.828 101 602.828 327 c 0
186.828 1206.34 m 0
 98.8281 1138.34 134.828 1004.34 224.828 984.343 c 0
 296.438 968.433 372.331 1012.61 382.828 1098.34 c 0
 394.828 1196.34 262.614 1264.9 186.828 1206.34 c 0
32.8281 1184.34 m 0
 68.5068 1359.63 336.514 1387.06 444.828 1264.34 c 24
 553.252 1141.5 475.671 896.073 314.828 864.843 c 24
 151.677 833.163 -13.1719 958.343 32.8281 1184.34 c 0
865.771 1295.93 m 0
 932.93 1404.98 1033.8 1294.7 982.564 1230.39 c 0
 893.651 1118.79 276.681 153.32 206.828 27 c 0
 154.425 -67.7715 9.48242 -13.0371 90.3867 104.754 c 0
 173.079 225.145 772.408 1144.33 865.771 1295.93 c 0
EndSplineSet
EndChar

StartChar: uni2031
Encoding: 8241 8241 364
Width: 2110
VWidth: 0
Flags: W
LayerCount: 2
Fore
SplineSet
1780 347 m 0
 1692 279 1728 145 1818 125 c 0
 1889.61 109.087 1965.5 153.27 1976 239 c 0
 1988 337 1855.79 405.562 1780 347 c 0
1626 325 m 0
 1661.68 500.291 1929.68 527.718 2038 405 c 24
 2146.42 282.158 2068.84 36.7314 1908 5.5 c 24
 1744.85 -26.1797 1580 99 1626 325 c 0
1268 349 m 0
 1180 281 1216 147 1306 127 c 0
 1377.61 111.087 1453.5 155.27 1464 241 c 0
 1476 339 1343.79 407.562 1268 349 c 0
1114 327 m 0
 1149.68 502.291 1417.68 529.718 1526 407 c 24
 1634.42 284.158 1556.84 38.7314 1396 7.5 c 24
 1232.85 -24.1797 1068 101 1114 327 c 0
756.828 349 m 0
 668.828 281 704.828 147 794.828 127 c 0
 866.438 111.087 942.33 155.27 952.83 241 c 0
 964.83 339 832.614 407.562 756.828 349 c 0
602.828 327 m 0
 638.507 502.291 906.51 529.718 1014.83 407 c 24
 1123.25 284.158 1045.67 38.7314 884.83 7.5 c 24
 721.677 -24.1797 556.828 101 602.828 327 c 0
186.828 1206.34 m 0
 98.8281 1138.34 134.828 1004.34 224.828 984.343 c 0
 296.438 968.433 372.331 1012.61 382.828 1098.34 c 0
 394.828 1196.34 262.614 1264.9 186.828 1206.34 c 0
32.8281 1184.34 m 0
 68.5068 1359.63 336.514 1387.06 444.828 1264.34 c 24
 553.252 1141.5 475.671 896.073 314.828 864.843 c 24
 151.677 833.163 -13.1719 958.343 32.8281 1184.34 c 0
865.771 1295.93 m 0
 932.93 1404.98 1033.8 1294.7 982.564 1230.39 c 0
 893.651 1118.79 276.681 153.32 206.828 27 c 0
 154.425 -67.7715 9.48242 -13.0371 90.3867 104.754 c 0
 173.079 225.145 772.408 1144.33 865.771 1295.93 c 0
EndSplineSet
EndChar

StartChar: minute
Encoding: 8242 8242 365
Width: 321
VWidth: 0
Flags: W
VStem: 161.409 131<1356.82 1512.03>
LayerCount: 2
Fore
SplineSet
292.409 1463 m 0
 219.409 1283 185.409 1193 134.409 1063 c 0
 99.4092 973 3.40918 997 29.4092 1074 c 0
 74.4092 1212 113.409 1332 161.409 1487 c 0
 189.409 1578 319.409 1530 292.409 1463 c 0
EndSplineSet
EndChar

StartChar: radical
Encoding: 8730 8730 368
Width: 1156
VWidth: 0
Flags: W
LayerCount: 2
Fore
SplineSet
78.3916 906 m 24
 60.1494 944 -41.6514 981.461 19.1494 996 c 0
 111.149 1018 187.149 981 200.393 954 c 0
 243.203 866.717 429.149 454 564.393 180 c 1
 683.149 504 933.906 1276 1038.15 1585 c 0
 1067.71 1672.62 1174.11 1609.01 1154.15 1551 c 0
 1038.91 1216 764.149 408 633.393 39 c 0
 602.599 -47.9004 519.393 -31 487.393 35 c 0
 323.729 372.56 243.149 569 78.3916 906 c 24
EndSplineSet
EndChar

StartChar: uni221B
Encoding: 8731 8731 369
Width: 1156
VWidth: 0
Flags: W
HStem: 927.498 75.1621<320.686 645.955>
LayerCount: 2
Fore
SplineSet
696.086 1324.8 m 4
 684.933 1287.65 655.08 1249.87 610.478 1236.01 c 5
 652.76 1227.45 698.591 1193.23 719.471 1133.76 c 4
 744.002 1063.89 722.812 981.893 645.974 939.766 c 4
 583.221 905.363 429.68 892.568 341.126 927.498 c 4
 289.68 947.791 309.4 1019.18 356.96 1002.66 c 4
 420.502 980.59 503.12 967.85 585.48 993.811 c 4
 629.98 1007.84 669 1046.91 652.76 1100.01 c 4
 626.906 1184.54 546.634 1199.83 466 1195 c 4
 406.84 1191.46 403.36 1272.29 462.521 1266.39 c 4
 530.72 1259.59 596.702 1292.59 617.96 1326.57 c 4
 634.2 1352.53 621.44 1396.19 590.12 1415.07 c 4
 546.951 1441.09 460.2 1431.5 375.521 1392.06 c 4
 326.354 1369.16 292 1426.19 349.061 1457.96 c 4
 440.312 1508.78 559.804 1506.24 622.171 1479.03 c 4
 693.162 1448.05 711.954 1377.66 696.086 1324.8 c 4
78.3916 906 m 24
 60.1494 944 -41.6514 981.461 19.1494 996 c 0
 111.149 1018 187.149 981 200.393 954 c 0
 243.203 866.717 429.149 454 564.393 180 c 1
 683.149 504 933.906 1276 1038.15 1585 c 0
 1067.71 1672.62 1174.11 1609.01 1154.15 1551 c 0
 1038.91 1216 764.149 408 633.393 39 c 0
 602.599 -47.9004 519.393 -31 487.393 35 c 0
 323.729 372.56 243.149 569 78.3916 906 c 24
EndSplineSet
EndChar

StartChar: angle
Encoding: 8736 8736 370
Width: 954
VWidth: 0
Flags: W
HStem: -1 125<170.004 889.417>
LayerCount: 2
Fore
SplineSet
852.004 1 m 0
 613.004 -9 351.004 1 123.004 -1 c 0
 49.8359 -1.6416 -10.9961 110 50.0039 179 c 0
 215.004 364 632.004 764 826.004 966 c 0
 868.139 1009.87 974.004 946 908.004 882 c 0
 723.004 702 319.004 298 170.004 124 c 1
 363.004 119 617.004 111 850.004 127 c 0
 941.337 133.271 939.295 4.65234 852.004 1 c 0
EndSplineSet
EndChar

StartChar: uni2221
Encoding: 8737 8737 371
Width: 954
VWidth: 0
Flags: W
HStem: -1 125<170.004 889.417>
LayerCount: 2
Fore
SplineSet
234 426 m 0
 173.483 465.717 215.023 547.055 300 504 c 0
 525 390 573 243 591 18 c 0
 597.494 -63.1797 501.485 -95.9873 495 0 c 0
 480 222 434.55 294.379 234 426 c 0
852.004 1 m 0
 613.004 -9 351.004 1 123.004 -1 c 0
 49.8359 -1.6416 -10.9961 110 50.0039 179 c 0
 215.004 364 632.004 764 826.004 966 c 0
 868.139 1009.87 974.004 946 908.004 882 c 0
 723.004 702 319.004 298 170.004 124 c 1
 363.004 119 617.004 111 850.004 127 c 0
 941.337 133.271 939.295 4.65234 852.004 1 c 0
EndSplineSet
EndChar

StartChar: uni2226
Encoding: 8742 8742 373
Width: 840
VWidth: 0
Flags: W
VStem: 140.074 140.001<-236.681 1535.72> 560.074 140.001<-236.681 1535.72>
LayerCount: 2
Fore
SplineSet
858.567 845.968 m 0
 695.153 775.287 180.382 551.245 49.3838 486.656 c 0
 -78.7822 423.463 -95.3398 542.872 5.96387 581.157 c 0
 140.988 632.189 691.813 863.994 815 936 c 0
 885.994 977.496 976.111 896.808 858.567 845.968 c 0
EndSplineSet
Refer: 372 8741 N 1 0 0 1 0 0 3
EndChar

StartChar: logicaland
Encoding: 8743 8743 374
Width: 870
VWidth: 0
Flags: W
LayerCount: 2
Fore
SplineSet
875.943 72 m 0
 908.342 -9.13184 786.245 -61.8896 753.942 24 c 0
 624.186 369 525.186 524 389.942 798 c 1
 264.186 491 220.186 336 115.942 27 c 0
 86.3818 -60.6201 -29.0156 2.98535 -9.05762 61 c 0
 106.186 396 165.186 587 311.942 939 c 0
 347.421 1024.1 434.942 1009 466.942 943 c 0
 630.606 605.44 732.186 432 875.943 72 c 0
EndSplineSet
EndChar

StartChar: logicalor
Encoding: 8744 8744 375
Width: 870
VWidth: 0
Flags: W
LayerCount: 2
Fore
SplineSet
-4.75781 906 m 0
 -37.1562 987.132 84.9404 1039.89 117.243 954 c 0
 247 609 346 454 481.243 180 c 1
 607 487 651 642 755.243 951 c 0
 784.804 1038.62 900.201 975.015 880.243 917 c 0
 765 582 706 391 559.243 39 c 0
 523.765 -46.0957 436.243 -31 404.243 35 c 0
 240.579 372.56 139 546 -4.75781 906 c 0
EndSplineSet
EndChar

StartChar: therefore
Encoding: 8756 8756 376
Width: 1000
VWidth: 0
Flags: W
LayerCount: 2
Fore
SplineSet
744.558 109 m 24
 754.558 164 839.558 194 880.558 155 c 24
 923.558 114 911.558 23 854.558 4 c 24
 798.558 -15 734.558 51 744.558 109 c 24
423.558 907 m 24
 433.558 962 518.558 992 559.558 953 c 24
 602.558 912 590.558 821 533.558 802 c 24
 477.558 783 413.558 849 423.558 907 c 24
94.6377 101 m 24
 104.638 156 189.638 186 230.638 147 c 24
 273.638 106 261.638 15 204.638 -4 c 24
 148.638 -23 84.6377 43 94.6377 101 c 24
EndSplineSet
EndChar

StartChar: uni2235
Encoding: 8757 8757 377
Width: 1000
VWidth: 0
Flags: W
LayerCount: 2
Fore
SplineSet
744.558 918 m 24
 754.558 973 839.558 1003 880.558 964 c 24
 923.558 923 911.558 832 854.558 813 c 24
 798.558 794 734.558 860 744.558 918 c 24
426.558 105 m 24
 436.558 160 521.558 190 562.558 151 c 24
 605.558 110 593.558 19 536.558 0 c 24
 480.558 -19 416.558 47 426.558 105 c 24
94.6377 910 m 24
 104.638 965 189.638 995 230.638 956 c 24
 273.638 915 261.638 824 204.638 805 c 24
 148.638 786 84.6377 852 94.6377 910 c 24
EndSplineSet
EndChar

StartChar: uni2236
Encoding: 8758 8758 378
Width: 338
VWidth: 0
Flags: W
LayerCount: 2
Fore
SplineSet
81.04 916 m 28
 91.04 971 176.04 1001 217.04 962 c 28
 260.04 921 248.04 830 191.04 811 c 28
 135.04 792 71.04 858 81.04 916 c 28
97.0801 101 m 24
 107.08 156 192.08 186 233.08 147 c 24
 276.08 106 264.08 15 207.08 -4 c 24
 151.08 -23 87.0801 43 97.0801 101 c 24
EndSplineSet
EndChar

StartChar: uni2237
Encoding: 8759 8759 379
Width: 700
VWidth: 0
Flags: W
LayerCount: 2
Fore
SplineSet
442.077 916 m 24
 452.077 971 537.077 1001 578.077 962 c 24
 621.077 921 609.077 830 552.077 811 c 24
 496.077 792 432.077 858 442.077 916 c 24
458.117 101 m 24
 468.117 156 553.117 186 594.117 147 c 24
 637.117 106 625.117 15 568.117 -4 c 24
 512.117 -23 448.117 43 458.117 101 c 24
81.0771 916 m 24
 91.0771 971 176.077 1001 217.077 962 c 24
 260.077 921 248.077 830 191.077 811 c 24
 135.077 792 71.0771 858 81.0771 916 c 24
97.1172 101 m 24
 107.117 156 192.117 186 233.117 147 c 24
 276.117 106 264.117 15 207.117 -4 c 24
 151.117 -23 87.1172 43 97.1172 101 c 24
EndSplineSet
EndChar

StartChar: similar
Encoding: 8764 8764 380
Width: 1227
VWidth: 0
Flags: W
LayerCount: 2
Fore
SplineSet
1156.04 512 m 0
 995.036 378 813.349 387.3 623.036 469 c 0
 425.036 554 262.036 568 99.0361 443 c 0
 30.1318 390.159 -11.1143 515.335 68.6357 572.654 c 0
 243.036 698 441.036 686 638.036 604 c 0
 811.597 531.757 945.036 512 1139.04 641.229 c 0
 1215.74 692.326 1225.37 569.709 1156.04 512 c 0
EndSplineSet
EndChar

StartChar: uni2243
Encoding: 8771 8771 381
Width: 1147
VWidth: 0
Flags: W
HStem: 264 136<68.7513 1048.08>
LayerCount: 2
Fore
SplineSet
1059.94 632.843 m 0
 898.932 498.843 752.244 508.144 561.932 589.843 c 0
 363.933 674.843 272.933 688.843 109.933 563.843 c 0
 41.0283 511.003 -0.217773 636.179 79.5322 693.497 c 0
 253.933 818.843 379.933 806.843 576.932 724.843 c 0
 750.492 652.601 848.932 632.843 1042.94 762.071 c 0
 1119.64 813.169 1129.27 690.552 1059.94 632.843 c 0
1013.43 264 m 0
 835.432 268 272.433 270 126.433 266 c 0
 -16.4121 262.088 16.3965 413.505 124.433 406 c 0
 268.433 396 867.432 386 1009.43 400 c 0
 1091.27 408.066 1141.47 261.123 1013.43 264 c 0
EndSplineSet
EndChar

StartChar: uni2244
Encoding: 8772 8772 382
Width: 1147
VWidth: 0
Flags: W
HStem: 264 136<68.7513 1048.08>
LayerCount: 2
Fore
SplineSet
751 890 m 4
 821 997 895 891 842 828 c 4
 750 719 471 264 398 139 c 4
 343 45 224 97 308 213 c 4
 394 331 654 741 751 890 c 4
EndSplineSet
Refer: 381 8771 N 1 0 0 1 0 0 2
EndChar

StartChar: congruent
Encoding: 8773 8773 383
Width: 1147
VWidth: 0
Flags: W
HStem: 84 136<62.7513 1042.08> 409 136<68.7513 1048.08>
LayerCount: 2
Fore
SplineSet
1059.94 780.843 m 0
 898.932 646.843 752.244 656.144 561.932 737.843 c 0
 363.933 822.843 272.933 836.843 109.933 711.843 c 0
 41.0283 659.003 -0.217773 784.179 79.5322 841.497 c 0
 253.933 966.843 379.933 954.843 576.932 872.843 c 0
 750.492 800.601 848.932 780.843 1042.94 910.071 c 0
 1119.64 961.169 1129.27 838.552 1059.94 780.843 c 0
1013.43 409 m 4
 835.432 413 272.433 415 126.433 411 c 4
 -16.4121 407.088 16.3965 558.505 124.433 551 c 4
 268.433 541 867.432 531 1009.43 545 c 4
 1091.27 553.066 1141.47 406.123 1013.43 409 c 4
1007.43 84 m 4
 829.432 88 266.433 90 120.433 86 c 4
 -22.4121 82.0879 10.3965 233.505 118.433 226 c 4
 262.433 216 861.432 206 1003.43 220 c 4
 1085.27 228.066 1135.47 81.123 1007.43 84 c 4
EndSplineSet
EndChar

StartChar: uni2246
Encoding: 8774 8774 384
Width: 1147
VWidth: 0
Flags: W
HStem: 84 136<62.7513 1042.08> 409 136<68.7513 1048.08>
LayerCount: 2
Fore
SplineSet
688 622 m 0
 758 729 832 623 779 560 c 0
 687 451 504 143 431 18 c 0
 376 -76 257 -24 341 92 c 0
 427 210 591 473 688 622 c 0
EndSplineSet
Refer: 383 8773 N 1 0 0 1 0 0 2
EndChar

StartChar: uni2247
Encoding: 8775 8775 385
Width: 1147
VWidth: 0
Flags: W
HStem: 84 136<62.7513 1042.08> 409 136<68.7513 1048.08>
LayerCount: 2
Fore
SplineSet
796 955 m 0
 866 1062 940 956 887 893 c 0
 795 784 426 157 353 32 c 0
 298 -62 179 -10 263 106 c 0
 349 224 699 806 796 955 c 0
EndSplineSet
Refer: 383 8773 N 1 0 0 1 0 0 2
EndChar

StartChar: equivalence
Encoding: 8801 8801 387
Width: 1147
VWidth: 0
Flags: W
HStem: 84 136<62.7513 1042.08> 409 136<68.7513 1048.08> 733 136<68.7513 1048.08>
LayerCount: 2
Fore
SplineSet
1013.43 733 m 0
 835.432 737 272.433 739 126.433 735 c 0
 -16.4121 731.088 16.3965 882.505 124.433 875 c 0
 268.433 865 867.432 855 1009.43 869 c 0
 1091.27 877.066 1141.47 730.123 1013.43 733 c 0
1013.43 409 m 0
 835.432 413 272.433 415 126.433 411 c 0
 -16.4121 407.088 16.3965 558.505 124.433 551 c 0
 268.433 541 867.432 531 1009.43 545 c 0
 1091.27 553.066 1141.47 406.123 1013.43 409 c 0
1007.43 84 m 0
 829.432 88 266.433 90 120.433 86 c 0
 -22.4121 82.0879 10.3965 233.505 118.433 226 c 0
 262.433 216 861.432 206 1003.43 220 c 0
 1085.27 228.066 1135.47 81.123 1007.43 84 c 0
EndSplineSet
EndChar

StartChar: notequal
Encoding: 8800 8800 388
Width: 1116
VWidth: 0
Flags: W
HStem: 263 136<62.7513 1042.08> 617 136<68.7513 1048.08>
LayerCount: 2
Fore
SplineSet
751 882 m 0
 821 989 895 883 842 820 c 0
 750 711 471 256 398 131 c 0
 343 37 224 89 308 205 c 0
 394 323 654 733 751 882 c 0
EndSplineSet
Refer: 75 61 N 1 0 0 1 0 0 2
EndChar

StartChar: lessequal
Encoding: 8804 8804 389
Width: 1147
VWidth: 0
Flags: W
HStem: 127 136<80.7172 1060.05> 333 116.001<768.555 1068.59>
LayerCount: 2
Fore
SplineSet
1008.97 333 m 0
 798.966 365 340.966 457 100.966 505 c 0
 29.042 519.385 15.6631 676.087 104.966 699 c 0
 408.966 777 764.966 843 1014.97 917 c 0
 1073.79 934.413 1145.54 833.572 1056.97 807 c 0
 816.966 735 468.966 667 192.966 601 c 1
 390.966 561 796.966 483 1056.97 449.001 c 0
 1147.95 437.104 1095.33 319.84 1008.97 333 c 0
1025.4 127 m 0
 847.397 131 284.398 133 138.398 129 c 0
 -4.44629 125.088 28.3623 276.505 136.398 269 c 0
 280.398 259 879.397 249 1021.4 263 c 0
 1103.23 271.066 1153.43 124.123 1025.4 127 c 0
EndSplineSet
EndChar

StartChar: greaterequal
Encoding: 8805 8805 390
Width: 1147
VWidth: 0
Flags: W
HStem: 127 136<86.954 1066.28> 333 116.001<78.4144 378.445>
LayerCount: 2
Fore
SplineSet
138.034 333 m 0
 51.6709 319.84 -0.952148 437.104 90.0342 449.001 c 0
 350.034 483 756.034 561 954.034 601 c 1
 678.034 667 330.034 735 90.0342 807 c 0
 1.45898 833.572 73.2051 934.413 132.034 917 c 0
 382.034 843 738.034 777 1042.03 699 c 0
 1131.34 676.087 1117.96 519.385 1046.03 505 c 0
 806.034 457 348.034 365 138.034 333 c 0
121.603 127 m 0
 -6.43262 124.123 43.7666 271.066 125.603 263 c 0
 267.603 249 866.602 259 1010.6 269 c 0
 1118.64 276.505 1151.45 125.088 1008.6 129 c 0
 862.602 133 299.603 131 121.603 127 c 0
EndSplineSet
EndChar

StartChar: pi
Encoding: 960 960 391
Width: 1089
VWidth: 0
Flags: W
HStem: 0 132<806.961 1021.49> 849 136<69.9033 234.604 370.659 683.943 820 1012.81>
VStem: 199 141<31.9581 361.4> 683.943 136.057<471.352 890.33>
LayerCount: 2
Fore
SplineSet
683.943 846.837 m 0
 702.773 973.51 839.557 925.858 820 846 c 0
 784 699 766.049 405 772 264 c 0
 777.951 123 913 111 985 132 c 0
 1085.96 161.448 1097.82 16.7568 979 0 c 0
 745 -33 655.109 93 643 261 c 0
 630.889 429 667 732.843 683.943 846.837 c 0
977 849 m 0
 799 853 266.433 844 120.433 840 c 0
 -22.4121 836.088 10.3965 987.506 118.433 980 c 0
 262.433 970 831 971 973 985 c 0
 1054.83 993.069 1105.04 846.123 977 849 c 0
234.604 863.739 m 0
 212.201 989.829 363.221 944.784 370.659 862.902 c 0
 388 672 376 216 340 63 c 0
 315.195 -42.418 160.994 -50.751 199 87 c 0
 249.009 268.256 274 642 234.604 863.739 c 0
EndSplineSet
EndChar

StartChar: mu
Encoding: 956 956 392
Width: 1024
VWidth: 0
Flags: W
VStem: 90 148<436.908 937.459> 115.482 122.735<-433.036 13.6026> 785 132<505.226 971.077>
LayerCount: 2
Fore
SplineSet
238.217 27.5489 m 1x60
 244.258 -172.111 250.887 -339.993 255.495 -392.106 c 4
 265.035 -499.982 114.264 -535.642 115.482 -392.748 c 4x60
 116.727 -246.699 97.3574 739.11 90 917 c 0
 82 1045 231 1001 226 919 c 0
 222 848 228 505 238 348 c 0xa0
 249 169 328 105 448 121 c 0
 678 151 783 496 785 923 c 0
 786 1051 922 1006 917 924 c 0
 909 782 931 226 947 83 c 0
 959 -25 813 -64 811 79 c 0
 810 142 809 235 805 383 c 1
 704 72 589 4 438 -9 c 0
 349.994 -16.7137 285.468 -1.93012 238.217 27.5489 c 1x60
EndSplineSet
EndChar

StartChar: uni0292
Encoding: 658 658 393
Width: 1033
VWidth: 0
Flags: W
HStem: 841 120<96.3225 717.518>
LayerCount: 2
Fore
SplineSet
297.962 252 m 0
 202.09 247.052 172.156 342.436 223.962 385 c 0
 408.962 537 587.962 717 717.518 849 c 1
 461.518 859 339.962 849 131.518 841 c 0
 37.5879 837.395 41.4482 958.497 111.518 961 c 0
 391.518 971 478.518 982 762.518 972 c 0
 882.593 967.771 917.022 861.856 856.962 801 c 0
 705.962 648 577.406 511 388.962 372 c 1
 750.962 411 899.904 313.703 981.962 64 c 0
 1074.96 -219 917.436 -449.679 660.962 -531 c 0
 496.962 -583 267.962 -570 99.9619 -506 c 0
 -2.67871 -466.898 1.13184 -345.597 104.962 -376 c 0
 285.962 -429 441.228 -469.874 610.962 -424 c 0
 832.962 -364 933.962 -123 864.962 39 c 0
 772.564 255.933 607.962 268 297.962 252 c 0
EndSplineSet
EndChar

StartChar: uniFB00
Encoding: 64256 64256 394
Width: 1426
VWidth: 0
Flags: W
HStem: 467.771 140<-6.68125 185.942> 496 122<941.13 1241.44>
VStem: 169 127<607.599 1210.94> 226 127<7.05368 463.734> 781 127<618.722 1192.29> 838 127<5.05368 487.967>
LayerCount: 2
Fore
SplineSet
781 928 m 0x08
 771.92 1111.58 772.57 1332.6 951 1411 c 0
 1149 1498 1370.27 1408 1491 1330 c 0
 1589.27 1266.51 1500.23 1157.34 1425 1210 c 0
 1335 1273 1150.52 1350.35 1035 1300 c 0
 918 1249 903.602 1048.91 908 938 c 0x08
 920.729 617 939.73 390.137 965 49 c 0
 971 -32 844 -53 838 43 c 0x04
 815.529 402.533 796.729 610 781 928 c 0x08
1196 496 m 0x40
 1107 495 197 471.771 51 467.771 c 0
 -91.8447 463.859 -59.0361 615.277 49 607.771 c 0x80
 193 597.771 1091 610 1194 618 c 0
 1275.98 624.369 1324.06 497.438 1196 496 c 0x40
169 930 m 0x20
 159.92 1113.58 160.57 1334.6 339 1413 c 0
 537 1500 758.271 1410 879 1332 c 0
 977.271 1268.51 888.231 1159.34 813 1212 c 0
 723 1275 538.516 1352.35 423 1302 c 0
 306 1251 291.602 1050.91 296 940 c 0x20
 308.729 619 327.73 392.137 353 51 c 0
 359 -30 232 -51 226 45 c 0x10
 203.529 404.533 184.729 612 169 930 c 0x20
EndSplineSet
LCarets2: 1 0 
Ligature2: "'liga' Standard Ligatures lookup 0-1" f f
EndChar

StartChar: uniFB01
Encoding: 64257 64257 395
Width: 1006
VWidth: 0
Flags: W
HStem: 836 140<-4.68125 523.523> 863.205 123.023<298.561 732.051>
VStem: 169 127<476.862 1210.94> 226 127<7.05368 503.075> 732.051 133.949<445.03 863.205>
LayerCount: 2
Fore
SplineSet
169 930 m 0x28
 159.92 1113.58 160.57 1334.6 339 1413 c 0
 537 1500 758.271 1410 879 1332 c 0
 977.271 1268.51 888.231 1159.34 813 1212 c 0
 723 1275 538.516 1352.35 423 1302 c 0
 306 1251 291.602 1050.91 296 940 c 0x28
 308.729 619 327.73 392.137 353 51 c 0
 359 -30 232 -51 226 45 c 0x18
 203.529 404.533 184.729 612 169 930 c 0x28
866 907 m 0
 855.306 764.713 882.664 221.984 896.009 78.2559 c 0
 906.021 -29.5771 755.408 -65.8965 756 77 c 0
 756.554 211.142 740.35 691.781 732.051 863.205 c 1x48
 584.673 858.505 183.473 839.574 53 836 c 0
 -89.8447 832.088 -57.0361 983.505 51 976 c 0x88
 195 966 667.909 979.49 771 986.229 c 0x48
 844 991 869.689 956.09 866 907 c 0
EndSplineSet
LCarets2: 1 0 
Ligature2: "'liga' Standard Ligatures lookup 0-1" f i
EndChar

StartChar: uniFB03
Encoding: 64259 64259 396
Width: 1690
VWidth: 0
Flags: W
HStem: 822 140<44.3212 205.089> 854.205 123.023<986.908 1403.05>
VStem: 209.432 127<480.862 1214.94> 266.432 127<11.0537 507.075> 839.432 127<476.862 1194.29> 896.432 126.998<7.05368 503.075> 1403.05 133.95<425.407 854.205>
LayerCount: 2
Fore
SplineSet
209.432 934 m 0x22
 200.352 1117.58 201.002 1338.6 379.432 1417 c 0
 577.432 1504 798.703 1414 919.432 1336 c 0
 1017.7 1272.51 928.664 1163.34 853.432 1216 c 0
 763.432 1279 578.947 1356.35 463.432 1306 c 0
 346.432 1255 332.033 1054.91 336.432 944 c 0x22
 349.16 623 368.162 396.137 393.432 55 c 0
 399.432 -26 272.432 -47 266.432 49 c 0x12
 243.961 408.533 225.16 616 209.432 934 c 0x22
839.432 930 m 0x0a
 830.353 1113.58 831.002 1334.6 1009.43 1413 c 0
 1207.43 1500 1428.7 1410 1549.43 1332 c 0
 1647.7 1268.51 1558.66 1159.34 1483.43 1212 c 0
 1393.43 1275 1208.95 1352.35 1093.43 1302 c 0
 976.432 1251 962.034 1050.91 966.432 940 c 0x0a
 979.161 619 998.162 392.137 1023.43 51 c 0
 1029.43 -30 902.432 -51 896.432 45 c 0x06
 873.961 404.533 855.161 612 839.432 930 c 0x0a
1537 898 m 0
 1526.31 755.713 1553.1 221.984 1566.44 78.2559 c 0
 1576.45 -29.5771 1425.84 -65.8965 1426.43 77 c 0
 1426.99 211.143 1411.35 682.781 1403.05 854.205 c 1x42
 1255.68 849.505 232.474 825.574 102.002 822 c 0
 -40.8418 818.088 -8.0332 969.506 100.002 962 c 0x82
 244.002 952 1338.91 970.49 1442 977.229 c 0x42
 1515 982 1540.69 947.09 1537 898 c 0
EndSplineSet
LCarets2: 2 0 0 
Ligature2: "'liga' Standard Ligatures lookup 0-1" f f i
EndChar

StartChar: ti
Encoding: 65538 -1 397
Width: 1115
VWidth: 0
Flags: W
HStem: 822 140<15.3188 348.528> 858.606 122.821<496.085 857.922>
VStem: 344.91 136.051<979.551 1404.26> 370.393 140.012<17.7803 534.241> 857.922 134.134<440.96 858.606>
LayerCount: 2
Fore
SplineSet
344.91 1361.2 m 0x28
 339.618 1489.16 487.482 1441.74 480.961 1359.77 c 0x28
 469.643 1217.53 497.69 220.879 510.405 77.0938 c 0
 519.945 -30.7822 369.175 -66.4414 370.393 76.4521 c 0x18
 371.638 222.501 352.268 1183.31 344.91 1361.2 c 0x28
827.102 1351.6 m 24
 831.132 1404.25 916.506 1435.67 954.044 1398.58 c 24
 998.641 1354.48 1000.58 1260 941.769 1238.25 c 24
 882.79 1216.42 822.301 1288.9 827.102 1351.6 c 24
857.922 858.606 m 1x48
 690.14 852.135 203.049 825.563 73 822 c 0
 -69.8447 818.088 -37.0361 969.505 71 962 c 0x88
 211.694 952.23 772.415 973.007 894.156 981.427 c 0
 948.065 985.156 996.031 957.053 992.056 904.163 c 0
 981.361 761.876 1001.66 216.984 1015.01 73.2559 c 0
 1025.02 -34.5771 874.408 -70.8965 875 72 c 0
 875.557 206.865 865.823 651.273 857.922 858.606 c 1x48
EndSplineSet
LCarets2: 1 0 
Ligature2: "'liga' Standard Ligatures lookup 0-1" t i
EndChar

StartChar: uni02D0
Encoding: 720 720 398
Width: 338
VWidth: 0
Flags: HW
LayerCount: 2
Fore
SplineSet
81.04 916 m 24
 91.04 971 176.04 1001 217.04 962 c 24
 260.04 921 248.04 830 191.04 811 c 24
 135.04 792 71.04 858 81.04 916 c 24
97.0801 101 m 24
 107.08 156 192.08 186 233.08 147 c 24
 276.08 106 264.08 15 207.08 -4 c 24
 151.08 -23 87.0801 43 97.0801 101 c 24
EndSplineSet
EndChar

StartChar: uni02D1
Encoding: 721 721 399
Width: 338
VWidth: 0
Flags: HW
LayerCount: 2
Fore
SplineSet
81.04 916 m 24
 91.04 971 176.04 1001 217.04 962 c 24
 260.04 921 248.04 830 191.04 811 c 24
 135.04 792 71.04 858 81.04 916 c 24
EndSplineSet
EndChar

StartChar: minus
Encoding: 8722 8722 460
Width: 957
VWidth: 0
Flags: W
HStem: 470.189 140<67.7516 890.151>
LayerCount: 2
Fore
SplineSet
849.428 472.59 m 0
 671.428 476.59 271.433 474.189 125.433 470.189 c 0
 -17.4121 466.277 15.3965 617.694 123.433 610.189 c 0
 267.433 600.189 703.428 594.59 845.428 608.59 c 0
 927.262 616.657 977.463 469.713 849.428 472.59 c 0
EndSplineSet
EndChar
